<svg width="24" height="24" viewBox="0 0 24 24" fill="none" xmlns="http://www.w3.org/2000/svg">
<path d="M10.75 13.25H2.75V15.25H10.75V13.25Z" fill="black"/>
<path d="M10.75 17.75H2.75V19.75H10.75V17.75Z" fill="black"/>
<path fill-rule="evenodd" clip-rule="evenodd" d="M4.5 2.75C4.03587 2.75 3.59075 2.93437 3.26256 3.26256C2.93437 3.59075 2.75 4.03587 2.75 4.5V9C2.75 9.46413 2.93437 9.90925 3.26256 10.2374C3.59075 10.5656 4.03587 10.75 4.5 10.75H19.5C19.9641 10.75 20.4092 10.5656 20.7374 10.2374C21.0656 9.90925 21.25 9.46413 21.25 9V4.5C21.25 4.03587 21.0656 3.59075 20.7374 3.26256C20.4092 2.93437 19.9641 2.75 19.5 2.75H4.5ZM4.75 8.75V4.75H19.25V8.75H4.75Z" fill="black"/>
<path fill-rule="evenodd" clip-rule="evenodd" d="M15 13.25C14.5359 13.25 14.0908 13.4344 13.7626 13.7626C13.4344 14.0908 13.25 14.5359 13.25 15V19.5C13.25 19.9641 13.4344 20.4092 13.7626 20.7374C14.0908 21.0656 14.5359 21.25 15 21.25H19.5C19.9641 21.25 20.4092 21.0656 20.7374 20.7374C21.0656 20.4092 21.25 19.9641 21.25 19.5V15C21.25 14.5359 21.0656 14.0908 20.7374 13.7626C20.4092 13.4344 19.9641 13.25 19.5 13.25H15ZM15.25 19.25V15.25H19.25V19.25H15.25Z" fill="black"/>
</svg>
