<svg width="71" height="71" viewBox="0 0 71 71" fill="none" xmlns="http://www.w3.org/2000/svg">
<rect x="0.781311" y="0.658325" width="69.6483" height="69.6483" rx="21.1055" fill="#FFECEC"/>
<path fill-rule="evenodd" clip-rule="evenodd" d="M31.3843 31.2614C31.3843 33.0098 32.8017 34.4272 34.5501 34.4272C36.2986 34.4272 37.7159 33.0098 37.7159 31.2614C37.7159 29.5129 36.2986 28.0955 34.5501 28.0955C32.8017 28.0955 31.3843 29.5129 31.3843 31.2614ZM34.5501 24.9297C31.0532 24.9297 28.2184 27.7645 28.2184 31.2614C28.2184 34.7583 31.0532 37.593 34.5501 37.593C38.047 37.593 40.8818 34.7583 40.8818 31.2614C40.8818 27.7645 38.047 24.9297 34.5501 24.9297Z" fill="black"/>
<path d="M44.4671 45.2752C42.4291 41.9341 38.7501 39.7036 34.5501 39.7036C30.6367 39.7036 27.1756 41.6401 25.0728 44.6072C25.7699 45.4176 26.5637 46.1425 27.4364 46.7637C28.9368 44.4217 31.5622 42.8694 34.5501 42.8694C37.7464 42.8694 40.5278 44.6457 41.9611 47.265C42.876 46.7042 43.7173 46.035 44.4671 45.2752Z" fill="black"/>
<path fill-rule="evenodd" clip-rule="evenodd" d="M26.2464 49.7803C26.4468 48.6865 26.8581 47.6664 27.4364 46.7637C29.5924 48.2985 32.2297 49.2011 35.0777 49.2011C37.6002 49.2011 39.9572 48.4931 41.9611 47.265C42.4739 48.2021 42.8141 49.2472 42.939 50.3575C40.6062 51.6384 37.927 52.3669 35.0777 52.3669C31.8248 52.3669 28.7937 51.4174 26.2464 49.7803Z" fill="black"/>
<path d="M35.0777 22.8192C42.3629 22.8192 48.2687 28.725 48.2687 36.0101C48.2687 39.6211 46.8178 42.8932 44.4671 45.2752C45.048 46.2275 45.4956 47.2699 45.7839 48.3767C49.2452 45.3775 51.4346 40.9495 51.4346 36.0101C51.4346 26.9765 44.1114 19.6533 35.0777 19.6533C26.0441 19.6533 18.7209 26.9765 18.7209 36.0101C18.7209 40.5438 20.5655 44.6467 23.545 47.6093C23.9084 46.5288 24.4264 45.5193 25.0728 44.6072C23.087 42.2983 21.8868 39.2944 21.8868 36.0101C21.8868 28.725 27.7926 22.8192 35.0777 22.8192Z" fill="black"/>
<path d="M27.4364 46.7637C26.5637 46.1425 25.7699 45.4176 25.0728 44.6072C24.4264 45.5193 23.9084 46.5288 23.545 47.6093C24.3645 48.4242 25.2699 49.1528 26.2464 49.7803C26.4468 48.6865 26.8581 47.6664 27.4364 46.7637Z" fill="black"/>
<path d="M45.7839 48.3767C45.4956 47.2699 45.048 46.2275 44.4671 45.2752C43.7173 46.035 42.876 46.7042 41.9611 47.265C42.4739 48.2021 42.8141 49.2472 42.939 50.3575C43.9583 49.7978 44.9115 49.1326 45.7839 48.3767Z" fill="black"/>
</svg>
