<svg width="24" height="25" viewBox="0 0 24 25" fill="none" xmlns="http://www.w3.org/2000/svg">
<path d="M12.0281 4.24936C7.06266 4.24936 3 8.28381 3 13.2775C3 16.4091 4.57992 19.2586 7.23194 20.9232C7.48586 21.0925 7.85262 21.0078 8.0219 20.7539C8.19118 20.5 8.10654 20.1332 7.85262 19.964C6.89338 19.3715 6.10342 18.5815 5.51095 17.6787L6.10342 17.3402C6.38555 17.1709 6.47019 16.8323 6.30091 16.5784C6.13164 16.2963 5.79308 16.2116 5.53916 16.3809L4.94669 16.7195C4.5235 15.8167 4.24137 14.8574 4.18494 13.8418H4.80563C5.11597 13.8418 5.36989 13.5878 5.36989 13.2775C5.36989 12.9672 5.11597 12.7132 4.80563 12.7132H4.18494C4.26958 11.6694 4.5235 10.7101 4.97491 9.80731L5.53916 10.1459C5.6238 10.2023 5.73665 10.2305 5.82129 10.2305C6.01878 10.2305 6.21627 10.1176 6.30091 9.94837C6.47019 9.66624 6.35734 9.32769 6.10342 9.18662L5.53916 8.87628C6.10342 8.05811 6.83696 7.32457 7.65513 6.78852L7.96548 7.35278C8.07833 7.52206 8.24761 7.63491 8.4451 7.63491C8.52974 7.63491 8.64259 7.6067 8.72723 7.55027C9.00936 7.381 9.09399 7.04244 8.92472 6.78852L8.61437 6.25248C9.48897 5.82928 10.4482 5.57537 11.4639 5.49073V6.19605C11.4639 6.50639 11.7178 6.76031 12.0281 6.76031C12.3385 6.76031 12.5924 6.50639 12.5924 6.19605V5.49073C13.6363 5.57537 14.5955 5.82928 15.4983 6.25248L15.188 6.78852C15.0187 7.07065 15.1316 7.40921 15.3855 7.55027C15.4701 7.6067 15.583 7.63491 15.6676 7.63491C15.8651 7.63491 16.0626 7.52206 16.1472 7.35278L16.4576 6.81674C17.2757 7.38099 17.9811 8.08632 18.5453 8.90449L18.0093 9.21484C17.7272 9.38411 17.6425 9.72267 17.8118 9.97658C17.9246 10.1459 18.0939 10.2587 18.2914 10.2587C18.3761 10.2587 18.4889 10.2305 18.5735 10.1741L19.1096 9.86373C19.5328 10.7383 19.8149 11.7258 19.8995 12.7697H19.2789C18.9685 12.7697 18.7146 13.0236 18.7146 13.3339C18.7146 13.6443 18.9685 13.8982 19.2789 13.8982H19.8995C19.8149 14.9138 19.561 15.8731 19.1378 16.7477L18.5735 16.4373C18.2914 16.2681 17.9529 16.3809 17.8118 16.6348C17.6425 16.917 17.7554 17.2555 18.0093 17.3966L18.5735 17.7069C17.9529 18.638 17.1347 19.4279 16.1472 20.0204C15.8933 20.1897 15.8087 20.5282 15.9497 20.8104C16.0626 20.9796 16.2319 21.0925 16.4294 21.0925C16.5422 21.0925 16.6268 21.0643 16.7115 21.0078C19.3917 19.3433 20.9999 16.4938 20.9999 13.3339C21.0281 8.28381 16.9936 4.24936 12.0281 4.24936ZM16.1754 11.5001C16.4576 11.3308 16.5422 10.9923 16.3729 10.7383C16.2037 10.4562 15.8651 10.3716 15.6112 10.5408L12.5642 12.29C12.3949 12.2054 12.2256 12.149 11.9999 12.149C11.3792 12.149 10.8714 12.6568 10.8714 13.2775C10.8714 13.8982 11.3792 14.406 11.9999 14.406C12.6206 14.406 13.1284 13.8982 13.1284 13.2775L16.1754 11.5001Z" fill="black"/>
</svg>
