<svg width="169" height="42" viewBox="0 0 169 42" fill="none" xmlns="http://www.w3.org/2000/svg">
<path d="M17.1035 1.8651H18.2857L17.8032 7.96933H16.8381C16.5003 6.48952 15.8408 5.32336 14.8596 4.47086C13.8945 3.61836 12.7203 3.19211 11.337 3.19211C10.388 3.19211 9.54356 3.38513 8.80365 3.77116C8.06374 4.14112 7.43643 4.67996 6.92171 5.3877C6.42308 6.07935 6.03704 6.93185 5.7636 7.9452C5.50624 8.94247 5.37756 10.0684 5.37756 11.323C5.37756 13.8162 5.88424 15.7383 6.89759 17.0895C7.92702 18.4245 9.439 19.0921 11.4335 19.0921C13.042 19.0921 14.369 18.6578 15.4146 17.7892C16.4762 16.9206 17.2321 15.6258 17.6825 13.9047H18.7441V20.4432H17.6101L17.2724 18.5371C15.503 19.9687 13.3557 20.6845 10.8303 20.6845C9.36662 20.6845 8.03962 20.4673 6.84933 20.033C5.65905 19.5987 4.6457 18.9875 3.80928 18.1993C2.97287 17.3951 2.32143 16.422 1.85496 15.2799C1.40459 14.1379 1.1794 12.8672 1.1794 11.4678C1.1794 10.0041 1.42067 8.66902 1.90322 7.46265C2.38577 6.25628 3.06133 5.21881 3.92992 4.35022C4.81459 3.48164 5.86011 2.81411 7.06648 2.34765C8.28893 1.8651 9.64006 1.62383 11.1199 1.62383C12.1011 1.62383 13.0179 1.76055 13.8704 2.03399C14.7229 2.30744 15.6478 2.74977 16.645 3.361L17.1035 1.8651ZM27.3876 16.4863C27.3876 17.1297 27.4117 17.6444 27.46 18.0304C27.5082 18.4165 27.6047 18.7141 27.7495 18.9232C27.8943 19.1323 28.1034 19.277 28.3768 19.3575C28.6502 19.4218 29.0202 19.462 29.4867 19.4781V20.4432H21.8865V19.4781C22.3369 19.462 22.6988 19.4137 22.9723 19.3333C23.2618 19.2368 23.4789 19.0921 23.6237 18.899C23.7846 18.6899 23.8891 18.4084 23.9374 18.0546C24.0017 17.6846 24.0339 17.2182 24.0339 16.6552V6.69058C24.0339 5.75765 24.0178 4.99362 23.9856 4.39848C23.9534 3.78725 23.9132 3.36904 23.865 3.14385C23.7846 2.74173 23.5996 2.47633 23.31 2.34765C23.0366 2.21897 22.5299 2.15463 21.79 2.15463V1.3343L27.3876 0.417459V16.4863ZM39.8245 13.5669C38.4734 14.1781 37.452 14.7491 36.7603 15.2799C36.0847 15.7946 35.747 16.3335 35.747 16.8965C35.747 17.3629 35.8756 17.7329 36.133 18.0063C36.3904 18.2798 36.7121 18.4165 37.0981 18.4165C37.4841 18.4165 37.846 18.3521 38.1838 18.2235C38.5216 18.0787 38.8111 17.8937 39.0524 17.6685C39.2937 17.4433 39.4787 17.1779 39.6073 16.8723C39.7521 16.5506 39.8245 16.2128 39.8245 15.859V13.5669ZM39.8245 12.2881V11.2748C39.8245 10.3419 39.6556 9.66629 39.3178 9.24808C38.9961 8.81379 38.4894 8.59664 37.7978 8.59664C37.3313 8.59664 36.9775 8.72532 36.7362 8.98268C36.4949 9.22395 36.2697 9.63412 36.0606 10.2132C35.9158 10.6153 35.7067 10.929 35.4333 11.1541C35.1759 11.3793 34.814 11.4919 34.3476 11.4919C33.8972 11.4919 33.5514 11.3552 33.3101 11.0818C33.0688 10.8083 32.9482 10.4223 32.9482 9.92365C32.9482 9.15157 33.3664 8.54034 34.2028 8.08997C35.0553 7.63959 36.3341 7.4144 38.0391 7.4144C39.8406 7.4144 41.1274 7.74414 41.8994 8.40362C42.6715 9.04702 43.0576 10.1328 43.0576 11.6608V16.9447C43.0576 18.3119 43.331 18.9955 43.8779 18.9955C44.1835 18.9955 44.465 18.891 44.7223 18.6819L45.0843 19.3816C44.8591 19.7837 44.5052 20.1054 44.0226 20.3467C43.5562 20.5719 43.0254 20.6845 42.4302 20.6845C41.6903 20.6845 41.1274 20.4593 40.7413 20.0089C40.3553 19.5585 40.1623 18.9232 40.1623 18.1028H40.0416C39.5752 18.9392 38.972 19.5746 38.2321 20.0089C37.4922 20.4432 36.6477 20.6603 35.6987 20.6603C34.6854 20.6603 33.8731 20.3788 33.2618 19.8159C32.6506 19.2368 32.345 18.4889 32.345 17.572C32.345 16.8643 32.6587 16.2048 33.286 15.5936C33.9133 14.9663 34.9588 14.355 36.4225 13.7599L39.8245 12.2881ZM48.9499 20.4432H48.202V16.052H49.2153C49.4888 17.2101 49.8828 18.0546 50.3976 18.5854C50.9123 19.1162 51.5798 19.3816 52.4001 19.3816C52.9953 19.3816 53.4537 19.2609 53.7754 19.0197C54.1132 18.7623 54.2821 18.4165 54.2821 17.9822C54.2821 17.5318 54.081 17.0975 53.6789 16.6793C53.2768 16.245 52.6253 15.7866 51.7246 15.3041C50.5021 14.6446 49.6255 13.9931 49.0947 13.3497C48.5639 12.6903 48.2985 11.9503 48.2985 11.13C48.2985 10.5992 48.395 10.1086 48.588 9.65825C48.7971 9.19178 49.0705 8.78966 49.4083 8.45188C49.7622 8.11409 50.1804 7.85673 50.663 7.6798C51.1455 7.48678 51.6683 7.39027 52.2312 7.39027C52.7299 7.39027 53.2205 7.46265 53.703 7.60742C54.2016 7.75218 54.6359 7.95324 55.0059 8.2106L55.4402 7.63155H56.0675V11.2748H55.1265C54.7566 10.3579 54.3705 9.69846 53.9684 9.29633C53.5824 8.89421 53.1079 8.69315 52.5449 8.69315C52.0945 8.69315 51.7326 8.81379 51.4592 9.05506C51.2018 9.29633 51.0731 9.61803 51.0731 10.0202C51.0731 10.4705 51.2661 10.8968 51.6522 11.2989C52.0543 11.701 52.7138 12.1434 53.6306 12.6259C54.274 12.9798 54.8289 13.3256 55.2954 13.6634C55.7619 14.0012 56.1399 14.347 56.4294 14.7009C56.7189 15.0387 56.928 15.4006 57.0567 15.7866C57.2015 16.1566 57.2739 16.5587 57.2739 16.993C57.2739 17.5559 57.1693 18.0626 56.9602 18.513C56.7511 18.9634 56.4535 19.3494 56.0675 19.6711C55.6814 19.9928 55.215 20.2421 54.6681 20.4191C54.1373 20.596 53.5422 20.6845 52.8827 20.6845C52.191 20.6845 51.5476 20.596 50.9525 20.4191C50.3573 20.226 49.8667 19.9526 49.4807 19.5987L48.9499 20.4432ZM61.709 20.4432H60.961V16.052H61.9744C62.2478 17.2101 62.6419 18.0546 63.1566 18.5854C63.6713 19.1162 64.3388 19.3816 65.1592 19.3816C65.7543 19.3816 66.2127 19.2609 66.5344 19.0197C66.8722 18.7623 67.0411 18.4165 67.0411 17.9822C67.0411 17.5318 66.84 17.0975 66.4379 16.6793C66.0358 16.245 65.3844 15.7866 64.4836 15.3041C63.2612 14.6446 62.3845 13.9931 61.8537 13.3497C61.3229 12.6903 61.0575 11.9503 61.0575 11.13C61.0575 10.5992 61.154 10.1086 61.347 9.65825C61.5562 9.19178 61.8296 8.78966 62.1674 8.45188C62.5212 8.11409 62.9395 7.85673 63.422 7.6798C63.9045 7.48678 64.4273 7.39027 64.9903 7.39027C65.4889 7.39027 65.9795 7.46265 66.4621 7.60742C66.9607 7.75218 67.395 7.95324 67.7649 8.2106L68.1992 7.63155H68.8265V11.2748H67.8856C67.5156 10.3579 67.1296 9.69846 66.7275 9.29633C66.3414 8.89421 65.8669 8.69315 65.3039 8.69315C64.8536 8.69315 64.4916 8.81379 64.2182 9.05506C63.9608 9.29633 63.8322 9.61803 63.8322 10.0202C63.8322 10.4705 64.0252 10.8968 64.4112 11.2989C64.8133 11.701 65.4728 12.1434 66.3897 12.6259C67.0331 12.9798 67.588 13.3256 68.0545 13.6634C68.5209 14.0012 68.8989 14.347 69.1884 14.7009C69.478 15.0387 69.6871 15.4006 69.8158 15.7866C69.9605 16.1566 70.0329 16.5587 70.0329 16.993C70.0329 17.5559 69.9284 18.0626 69.7192 18.513C69.5101 18.9634 69.2126 19.3494 68.8265 19.6711C68.4405 19.9928 67.974 20.2421 67.4271 20.4191C66.8963 20.596 66.3012 20.6845 65.6417 20.6845C64.9501 20.6845 64.3067 20.596 63.7115 20.4191C63.1164 20.226 62.6258 19.9526 62.2398 19.5987L61.709 20.4432ZM88.9354 9.03093C89.627 8.50013 90.1257 7.95324 90.4313 7.39027C90.753 6.8273 90.9138 6.21607 90.9138 5.55659C90.9138 4.88102 90.7449 4.34218 90.4072 3.94006C90.0855 3.53793 89.6431 3.33687 89.0802 3.33687C88.0507 3.33687 87.536 4.06874 87.536 5.53246C87.536 6.15977 87.6566 6.771 87.8979 7.36614C88.1392 7.96129 88.485 8.51622 88.9354 9.03093ZM87.15 11.9021C86.3296 12.449 85.7023 13.0924 85.268 13.8323C84.8337 14.5722 84.6166 15.3362 84.6166 16.1244C84.6166 16.9447 84.8739 17.6203 85.3887 18.1511C85.9034 18.6658 86.5548 18.9232 87.343 18.9232C87.9703 18.9232 88.6459 18.7784 89.3697 18.4889C90.0935 18.1833 90.7852 17.765 91.4446 17.2342L87.15 11.9021ZM93.6402 15.0387C94.0263 14.6044 94.3801 14.1701 94.7018 13.7358C95.0396 13.3015 95.3291 12.8994 95.5704 12.5294C95.8117 12.1434 95.9967 11.7975 96.1253 11.4919C96.254 11.1863 96.3184 10.937 96.3184 10.744C96.3184 10.4866 96.1977 10.3016 95.9565 10.189C95.7313 10.0765 95.3372 10.0202 94.7742 10.0202V9.05506H100.613V10.0202C100.243 10.0202 99.9214 10.0523 99.6479 10.1167C99.3906 10.181 99.1493 10.2775 98.9241 10.4062C98.715 10.5188 98.522 10.6716 98.3451 10.8646C98.1681 11.0415 97.9912 11.2587 97.8143 11.5161L94.4606 16.1726C95.12 17.0091 95.8278 17.6685 96.5838 18.1511C97.3398 18.6336 98.0716 18.8749 98.7794 18.8749C99.2297 18.8749 99.5836 18.8025 99.841 18.6578C100.098 18.4969 100.364 18.1913 100.637 17.7409L101.264 17.9098C101.088 18.8106 100.677 19.5022 100.034 19.9848C99.3906 20.4512 98.5542 20.6845 97.5247 20.6845C97.1065 20.6845 96.7044 20.6362 96.3184 20.5397C95.9484 20.4432 95.5624 20.2904 95.1602 20.0813C94.7742 19.8722 94.364 19.6068 93.9298 19.2851C93.4955 18.9473 93.0129 18.5532 92.4821 18.1028C91.6618 18.8749 90.6886 19.5022 89.5627 19.9848C88.4528 20.4512 87.3189 20.6845 86.1607 20.6845C85.3887 20.6845 84.6729 20.5799 84.0134 20.3708C83.37 20.1456 82.807 19.848 82.3245 19.4781C81.858 19.0921 81.4881 18.6417 81.2146 18.127C80.9573 17.5962 80.8286 17.0251 80.8286 16.4139C80.8286 15.3362 81.2629 14.339 82.1315 13.4221C83.0161 12.4892 84.4155 11.5482 86.3296 10.5992C85.7988 9.84322 85.4047 9.13549 85.1474 8.476C84.9061 7.81652 84.7855 7.12487 84.7855 6.40105C84.7855 5.69331 84.8981 5.04992 85.1233 4.47086C85.3484 3.87572 85.6621 3.36904 86.0642 2.95083C86.4824 2.53263 86.973 2.21093 87.536 1.98574C88.1151 1.74446 88.7504 1.62383 89.4421 1.62383C90.0533 1.62383 90.6163 1.71229 91.131 1.88923C91.6457 2.06616 92.088 2.31548 92.458 2.63718C92.8279 2.95888 93.1175 3.33687 93.3266 3.77116C93.5357 4.20546 93.6402 4.688 93.6402 5.21881C93.6402 6.08739 93.3346 6.91577 92.7234 7.70393C92.1122 8.476 91.131 9.30438 89.7798 10.189L93.6402 15.0387ZM112.586 14.2907H113.527C113.752 15.8188 114.364 17.0251 115.361 17.9098C116.358 18.7784 117.589 19.2127 119.052 19.2127C119.648 19.2127 120.194 19.1403 120.693 18.9955C121.192 18.8508 121.618 18.6497 121.972 18.3924C122.326 18.1189 122.599 17.8053 122.792 17.4514C122.985 17.0814 123.082 16.6713 123.082 16.2209C123.082 15.8349 123.017 15.5051 122.889 15.2317C122.776 14.9421 122.551 14.6687 122.213 14.4113C121.875 14.1379 121.409 13.8645 120.814 13.591C120.235 13.3176 119.479 13.0039 118.546 12.65C116.664 11.9262 115.272 11.0898 114.372 10.1408C113.471 9.1757 113.021 8.04171 113.021 6.73883C113.021 5.98284 113.165 5.29119 113.455 4.66388C113.744 4.03657 114.146 3.49772 114.661 3.04734C115.192 2.59697 115.819 2.25114 116.543 2.00987C117.283 1.75251 118.095 1.62383 118.98 1.62383C119.8 1.62383 120.572 1.75251 121.296 2.00987C122.02 2.26722 122.736 2.65326 123.444 3.16798L123.878 1.96161H124.457L124.722 7.17313H123.781C123.395 5.85416 122.792 4.84885 121.972 4.1572C121.151 3.44947 120.202 3.0956 119.125 3.0956C118.128 3.0956 117.315 3.34491 116.688 3.84355C116.077 4.32609 115.771 4.95341 115.771 5.72548C115.771 6.06327 115.827 6.36888 115.94 6.64232C116.053 6.89968 116.262 7.149 116.567 7.39027C116.873 7.63155 117.291 7.88086 117.822 8.13822C118.353 8.37949 119.036 8.65294 119.873 8.95855C120.999 9.39284 121.956 9.83518 122.744 10.2856C123.548 10.7198 124.2 11.1944 124.698 11.7091C125.213 12.2077 125.591 12.7385 125.832 13.3015C126.073 13.8645 126.194 14.4837 126.194 15.1593C126.194 15.9796 126.017 16.7276 125.663 17.4031C125.309 18.0787 124.811 18.6578 124.167 19.1403C123.54 19.6229 122.784 20.0008 121.899 20.2743C121.031 20.5477 120.066 20.6845 119.004 20.6845C118.039 20.6845 117.17 20.5558 116.398 20.2984C115.626 20.025 114.83 19.5907 114.01 18.9955L113.527 20.4432H112.948L112.586 14.2907ZM137.102 13.5669C135.751 14.1781 134.729 14.7491 134.038 15.2799C133.362 15.7946 133.024 16.3335 133.024 16.8965C133.024 17.3629 133.153 17.7329 133.41 18.0063C133.668 18.2798 133.989 18.4165 134.375 18.4165C134.761 18.4165 135.123 18.3521 135.461 18.2235C135.799 18.0787 136.088 17.8937 136.33 17.6685C136.571 17.4433 136.756 17.1779 136.885 16.8723C137.029 16.5506 137.102 16.2128 137.102 15.859V13.5669ZM137.102 12.2881V11.2748C137.102 10.3419 136.933 9.66629 136.595 9.24808C136.273 8.81379 135.767 8.59664 135.075 8.59664C134.609 8.59664 134.255 8.72532 134.013 8.98268C133.772 9.22395 133.547 9.63412 133.338 10.2132C133.193 10.6153 132.984 10.929 132.711 11.1541C132.453 11.3793 132.091 11.4919 131.625 11.4919C131.174 11.4919 130.829 11.3552 130.587 11.0818C130.346 10.8083 130.225 10.4223 130.225 9.92365C130.225 9.15157 130.644 8.54034 131.48 8.08997C132.333 7.63959 133.611 7.4144 135.316 7.4144C137.118 7.4144 138.405 7.74414 139.177 8.40362C139.949 9.04702 140.335 10.1328 140.335 11.6608V16.9447C140.335 18.3119 140.608 18.9955 141.155 18.9955C141.461 18.9955 141.742 18.891 142 18.6819L142.362 19.3816C142.136 19.7837 141.782 20.1054 141.3 20.3467C140.833 20.5719 140.303 20.6845 139.708 20.6845C138.968 20.6845 138.405 20.4593 138.019 20.0089C137.633 19.5585 137.44 18.9232 137.44 18.1028H137.319C136.852 18.9392 136.249 19.5746 135.509 20.0089C134.769 20.4432 133.925 20.6603 132.976 20.6603C131.963 20.6603 131.15 20.3788 130.539 19.8159C129.928 19.2368 129.622 18.4889 129.622 17.572C129.622 16.8643 129.936 16.2048 130.563 15.5936C131.191 14.9663 132.236 14.355 133.7 13.7599L137.102 12.2881ZM146.227 20.4432H145.479V16.052H146.493C146.766 17.2101 147.16 18.0546 147.675 18.5854C148.19 19.1162 148.857 19.3816 149.677 19.3816C150.273 19.3816 150.731 19.2609 151.053 19.0197C151.39 18.7623 151.559 18.4165 151.559 17.9822C151.559 17.5318 151.358 17.0975 150.956 16.6793C150.554 16.245 149.903 15.7866 149.002 15.3041C147.779 14.6446 146.903 13.9931 146.372 13.3497C145.841 12.6903 145.576 11.9503 145.576 11.13C145.576 10.5992 145.672 10.1086 145.865 9.65825C146.074 9.19178 146.348 8.78966 146.686 8.45188C147.039 8.11409 147.458 7.85673 147.94 7.6798C148.423 7.48678 148.946 7.39027 149.508 7.39027C150.007 7.39027 150.498 7.46265 150.98 7.60742C151.479 7.75218 151.913 7.95324 152.283 8.2106L152.717 7.63155H153.345V11.2748H152.404C152.034 10.3579 151.648 9.69846 151.246 9.29633C150.86 8.89421 150.385 8.69315 149.822 8.69315C149.372 8.69315 149.01 8.81379 148.736 9.05506C148.479 9.29633 148.35 9.61803 148.35 10.0202C148.35 10.4705 148.543 10.8968 148.929 11.2989C149.332 11.701 149.991 12.1434 150.908 12.6259C151.551 12.9798 152.106 13.3256 152.573 13.6634C153.039 14.0012 153.417 14.347 153.707 14.7009C153.996 15.0387 154.205 15.4006 154.334 15.7866C154.479 16.1566 154.551 16.5587 154.551 16.993C154.551 17.5559 154.447 18.0626 154.237 18.513C154.028 18.9634 153.731 19.3494 153.345 19.6711C152.959 19.9928 152.492 20.2421 151.945 20.4191C151.415 20.596 150.819 20.6845 150.16 20.6845C149.468 20.6845 148.825 20.596 148.23 20.4191C147.635 20.226 147.144 19.9526 146.758 19.5987L146.227 20.4432ZM158.986 20.4432H158.238V16.052H159.252C159.525 17.2101 159.919 18.0546 160.434 18.5854C160.949 19.1162 161.616 19.3816 162.436 19.3816C163.032 19.3816 163.49 19.2609 163.812 19.0197C164.149 18.7623 164.318 18.4165 164.318 17.9822C164.318 17.5318 164.117 17.0975 163.715 16.6793C163.313 16.245 162.662 15.7866 161.761 15.3041C160.538 14.6446 159.662 13.9931 159.131 13.3497C158.6 12.6903 158.335 11.9503 158.335 11.13C158.335 10.5992 158.431 10.1086 158.624 9.65825C158.833 9.19178 159.107 8.78966 159.445 8.45188C159.799 8.11409 160.217 7.85673 160.699 7.6798C161.182 7.48678 161.705 7.39027 162.268 7.39027C162.766 7.39027 163.257 7.46265 163.739 7.60742C164.238 7.75218 164.672 7.95324 165.042 8.2106L165.476 7.63155H166.104V11.2748H165.163C164.793 10.3579 164.407 9.69846 164.005 9.29633C163.619 8.89421 163.144 8.69315 162.581 8.69315C162.131 8.69315 161.769 8.81379 161.495 9.05506C161.238 9.29633 161.109 9.61803 161.109 10.0202C161.109 10.4705 161.302 10.8968 161.688 11.2989C162.091 11.701 162.75 12.1434 163.667 12.6259C164.31 12.9798 164.865 13.3256 165.332 13.6634C165.798 14.0012 166.176 14.347 166.466 14.7009C166.755 15.0387 166.964 15.4006 167.093 15.7866C167.238 16.1566 167.31 16.5587 167.31 16.993C167.31 17.5559 167.206 18.0626 166.997 18.513C166.787 18.9634 166.49 19.3494 166.104 19.6711C165.718 19.9928 165.251 20.2421 164.704 20.4191C164.174 20.596 163.578 20.6845 162.919 20.6845C162.227 20.6845 161.584 20.596 160.989 20.4191C160.394 20.226 159.903 19.9526 159.517 19.5987L158.986 20.4432Z" fill="#3A3A3A"/>
<path d="M49.9032 32.8957C50.6609 32.8957 51.2694 33.1597 51.7286 33.6878C52.1954 34.2159 52.4289 35.0118 52.4289 36.0757C52.4289 37.1242 52.1954 37.9201 51.7286 38.4635C51.2694 39.0069 50.6571 39.2786 49.8918 39.2786C49.4172 39.2786 49.0231 39.1906 48.7093 39.0146C48.4032 38.8309 48.1621 38.6204 47.9861 38.3832H47.9172C47.9325 38.5133 47.9478 38.6778 47.9631 38.8768C47.9784 39.0758 47.9861 39.248 47.9861 39.3934V41.919H46.9758V33.0105H47.8024L47.9401 33.8485H47.9861C48.1697 33.5807 48.4108 33.3549 48.7093 33.1712C49.0078 32.9875 49.4058 32.8957 49.9032 32.8957ZM49.7196 33.7452C49.092 33.7452 48.6481 33.9212 48.3879 34.2733C48.1353 34.6253 48.0014 35.1611 47.9861 35.8805V36.0757C47.9861 36.8334 48.1085 37.4188 48.3534 37.8321C48.606 38.2378 49.069 38.4406 49.7425 38.4406C50.1175 38.4406 50.4237 38.3373 50.6609 38.1306C50.9058 37.924 51.0857 37.6446 51.2005 37.2926C51.3229 36.9328 51.3842 36.5234 51.3842 36.0642C51.3842 35.3601 51.2464 34.7975 50.9709 34.3766C50.703 33.9557 50.2859 33.7452 49.7196 33.7452ZM59.6181 36.0757C59.6181 37.0936 59.3579 37.8819 58.8375 38.4406C58.3247 38.9993 57.6282 39.2786 56.7481 39.2786C56.2047 39.2786 55.7187 39.1562 55.2901 38.9113C54.8692 38.6587 54.5362 38.2952 54.2913 37.8206C54.0464 37.3385 53.924 36.7568 53.924 36.0757C53.924 35.0578 54.1804 34.2733 54.6931 33.7222C55.2059 33.1712 55.9024 32.8957 56.7825 32.8957C57.3412 32.8957 57.831 33.022 58.252 33.2745C58.6806 33.5194 59.0135 33.8791 59.2507 34.3537C59.4957 34.8205 59.6181 35.3945 59.6181 36.0757ZM54.9687 36.0757C54.9687 36.8027 55.1102 37.3806 55.3934 37.8092C55.6843 38.2301 56.1435 38.4406 56.771 38.4406C57.391 38.4406 57.8463 38.2301 58.1372 37.8092C58.428 37.3806 58.5734 36.8027 58.5734 36.0757C58.5734 35.3486 58.428 34.7784 58.1372 34.3651C57.8463 33.9518 57.3871 33.7452 56.7596 33.7452C56.132 33.7452 55.6766 33.9518 55.3934 34.3651C55.1102 34.7784 54.9687 35.3486 54.9687 36.0757ZM65.1967 35.6853C65.0972 35.3716 65.0092 35.0654 64.9327 34.7669C64.8638 34.4608 64.8102 34.2235 64.772 34.0552H64.726C64.6954 34.2235 64.6457 34.4608 64.5768 34.7669C64.5079 35.0654 64.4199 35.3754 64.3128 35.6968L63.2107 39.1523H62.0627L60.3751 32.999H61.4198L62.2693 36.2823C62.3535 36.6114 62.4338 36.9443 62.5104 37.2811C62.5869 37.6178 62.6405 37.8972 62.6711 38.1191H62.717C62.7476 37.989 62.7821 37.8283 62.8203 37.637C62.8663 37.4456 62.916 37.2466 62.9696 37.04C63.0232 36.8257 63.0767 36.6344 63.1303 36.466L64.2209 32.999H65.323L66.3792 36.466C66.4634 36.7262 66.5437 37.0094 66.6203 37.3155C66.7044 37.6217 66.7618 37.8857 66.7925 38.1076H66.8384C66.8613 37.9163 66.9111 37.6523 66.9876 37.3155C67.0718 36.9788 67.1598 36.6344 67.2517 36.2823L68.1127 32.999H69.1459L67.4353 39.1523H66.2529L65.1967 35.6853ZM72.8555 32.8957C73.3836 32.8957 73.8351 33.0105 74.2101 33.2401C74.5928 33.4697 74.8836 33.795 75.0826 34.2159C75.2893 34.6292 75.3926 35.1152 75.3926 35.6739V36.2823H71.1794C71.1947 36.9788 71.3707 37.5107 71.7075 37.878C72.0519 38.2378 72.5302 38.4176 73.1425 38.4176C73.5328 38.4176 73.8772 38.3832 74.1757 38.3143C74.4818 38.2378 74.7956 38.1306 75.1171 37.9928V38.8768C74.8033 39.0146 74.4933 39.1141 74.1872 39.1753C73.881 39.2442 73.5175 39.2786 73.0966 39.2786C72.5149 39.2786 71.9983 39.16 71.5468 38.9227C71.1029 38.6855 70.7546 38.3334 70.5021 37.8666C70.2572 37.3921 70.1347 36.8142 70.1347 36.1331C70.1347 35.4596 70.2457 34.8817 70.4676 34.3996C70.6972 33.9174 71.0148 33.5462 71.4205 33.286C71.8338 33.0258 72.3121 32.8957 72.8555 32.8957ZM72.844 33.7222C72.3618 33.7222 71.9792 33.8791 71.696 34.1929C71.4205 34.4991 71.2559 34.9277 71.2023 35.4787H74.3364C74.3288 34.9583 74.2063 34.5373 73.9691 34.2159C73.7318 33.8868 73.3568 33.7222 72.844 33.7222ZM80.0587 32.8957C80.1735 32.8957 80.296 32.9033 80.4261 32.9186C80.5638 32.9263 80.6825 32.9416 80.782 32.9646L80.6557 33.8944C80.5562 33.8715 80.4452 33.8524 80.3228 33.837C80.208 33.8217 80.097 33.8141 79.9898 33.8141C79.676 33.8141 79.3814 33.9021 79.1059 34.0781C78.8303 34.2465 78.6084 34.4876 78.44 34.8014C78.2793 35.1075 78.1989 35.4672 78.1989 35.8805V39.1638H77.1887V33.0105H78.0153L78.1301 34.1355H78.176C78.375 33.7988 78.6314 33.5079 78.9451 33.263C79.2589 33.0181 79.6301 32.8957 80.0587 32.8957ZM84.3127 32.8957C84.8408 32.8957 85.2924 33.0105 85.6674 33.2401C86.0501 33.4697 86.3409 33.795 86.5399 34.2159C86.7465 34.6292 86.8498 35.1152 86.8498 35.6739V36.2823H82.6366C82.6519 36.9788 82.828 37.5107 83.1647 37.878C83.5091 38.2378 83.9875 38.4176 84.5997 38.4176C84.9901 38.4176 85.3345 38.3832 85.6329 38.3143C85.9391 38.2378 86.2529 38.1306 86.5743 37.9928V38.8768C86.2605 39.0146 85.9506 39.1141 85.6444 39.1753C85.3383 39.2442 84.9747 39.2786 84.5538 39.2786C83.9721 39.2786 83.4555 39.16 83.004 38.9227C82.5601 38.6855 82.2119 38.3334 81.9593 37.8666C81.7144 37.3921 81.5919 36.8142 81.5919 36.1331C81.5919 35.4596 81.7029 34.8817 81.9249 34.3996C82.1545 33.9174 82.4721 33.5462 82.8777 33.286C83.291 33.0258 83.7693 32.8957 84.3127 32.8957ZM84.3012 33.7222C83.8191 33.7222 83.4364 33.8791 83.1532 34.1929C82.8777 34.4991 82.7132 34.9277 82.6596 35.4787H85.7937C85.786 34.9583 85.6636 34.5373 85.4263 34.2159C85.189 33.8868 84.814 33.7222 84.3012 33.7222ZM90.8272 39.2786C90.0618 39.2786 89.4495 39.0146 88.9903 38.4865C88.5311 37.9508 88.3015 37.1548 88.3015 36.0986C88.3015 35.0425 88.5311 34.2465 88.9903 33.7108C89.4572 33.1674 90.0733 32.8957 90.8386 32.8957C91.3131 32.8957 91.6996 32.9837 91.9981 33.1597C92.3043 33.3357 92.553 33.55 92.7443 33.8026H92.8132C92.8056 33.7031 92.7903 33.5577 92.7673 33.3664C92.752 33.1674 92.7443 33.0105 92.7443 32.8957V30.4389H93.7546V39.1638H92.9395L92.7903 38.3373H92.7443C92.5607 38.5975 92.3157 38.8194 92.0096 39.0031C91.7035 39.1868 91.3093 39.2786 90.8272 39.2786ZM90.9879 38.4406C91.6384 38.4406 92.0938 38.2645 92.354 37.9125C92.6219 37.5528 92.7558 37.0132 92.7558 36.2938V36.1101C92.7558 35.3448 92.6295 34.7593 92.377 34.3537C92.1244 33.9404 91.6576 33.7337 90.9764 33.7337C90.433 33.7337 90.0235 33.9518 89.748 34.3881C89.4802 34.8167 89.3462 35.3945 89.3462 36.1216C89.3462 36.8563 89.4802 37.4265 89.748 37.8321C90.0235 38.2378 90.4368 38.4406 90.9879 38.4406ZM100.16 32.5628C100.16 32.823 100.153 33.0679 100.138 33.2975C100.13 33.5194 100.118 33.6955 100.103 33.8256H100.16C100.337 33.5653 100.578 33.3472 100.884 33.1712C101.19 32.9952 101.584 32.9072 102.066 32.9072C102.832 32.9072 103.444 33.175 103.903 33.7108C104.37 34.2388 104.603 35.031 104.603 36.0871C104.603 37.1433 104.37 37.9393 103.903 38.475C103.436 39.0108 102.824 39.2786 102.066 39.2786C101.584 39.2786 101.19 39.1906 100.884 39.0146C100.578 38.8385 100.337 38.6281 100.16 38.3832H100.08L99.8735 39.1638H99.1502V30.4389H100.16V32.5628ZM101.894 33.7452C101.243 33.7452 100.792 33.9327 100.539 34.3077C100.287 34.6827 100.16 35.2644 100.16 36.0527V36.0986C100.16 36.8563 100.283 37.438 100.528 37.8436C100.78 38.2416 101.243 38.4406 101.917 38.4406C102.468 38.4406 102.877 38.2378 103.145 37.8321C103.421 37.4265 103.559 36.841 103.559 36.0757C103.559 34.522 103.004 33.7452 101.894 33.7452ZM105.254 33.0105H106.333L107.665 36.5119C107.78 36.818 107.883 37.1127 107.975 37.3959C108.067 37.6714 108.136 37.9354 108.182 38.188H108.228C108.274 37.9967 108.346 37.7479 108.446 37.4418C108.545 37.128 108.649 36.8142 108.756 36.5004L110.007 33.0105H111.098L108.446 40.0133C108.231 40.595 107.952 41.058 107.608 41.4024C107.271 41.7468 106.804 41.919 106.207 41.919C106.023 41.919 105.863 41.9076 105.725 41.8846C105.587 41.8693 105.469 41.8502 105.369 41.8272V41.0236C105.453 41.0389 105.553 41.0542 105.668 41.0695C105.79 41.0848 105.916 41.0925 106.046 41.0925C106.398 41.0925 106.682 40.993 106.896 40.794C107.118 40.595 107.29 40.331 107.413 40.0019L107.734 39.1868L105.254 33.0105ZM120.793 39.1638L119.806 36.6267H116.557L115.581 39.1638H114.536L117.739 30.9326H118.669L121.861 39.1638H120.793ZM118.577 33.2286C118.554 33.1674 118.516 33.0564 118.462 32.8957C118.409 32.735 118.355 32.5704 118.302 32.402C118.256 32.226 118.218 32.0921 118.187 32.0002C118.133 32.2375 118.072 32.4709 118.003 32.7005C117.934 32.9225 117.877 33.0985 117.831 33.2286L116.901 35.7083H119.496L118.577 33.2286ZM124.084 39.1638H123.074V30.4389H124.084V39.1638ZM128.639 32.8957C129.168 32.8957 129.619 33.0105 129.994 33.2401C130.377 33.4697 130.668 33.795 130.867 34.2159C131.073 34.6292 131.177 35.1152 131.177 35.6739V36.2823H126.963C126.979 36.9788 127.155 37.5107 127.491 37.878C127.836 38.2378 128.314 38.4176 128.926 38.4176C129.317 38.4176 129.661 38.3832 129.96 38.3143C130.266 38.2378 130.58 38.1306 130.901 37.9928V38.8768C130.587 39.0146 130.277 39.1141 129.971 39.1753C129.665 39.2442 129.301 39.2786 128.881 39.2786C128.299 39.2786 127.782 39.16 127.331 38.9227C126.887 38.6855 126.539 38.3334 126.286 37.8666C126.041 37.3921 125.919 36.8142 125.919 36.1331C125.919 35.4596 126.03 34.8817 126.252 34.3996C126.481 33.9174 126.799 33.5462 127.204 33.286C127.618 33.0258 128.096 32.8957 128.639 32.8957ZM128.628 33.7222C128.146 33.7222 127.763 33.8791 127.48 34.1929C127.204 34.4991 127.04 34.9277 126.986 35.4787H130.12C130.113 34.9583 129.99 34.5373 129.753 34.2159C129.516 33.8868 129.141 33.7222 128.628 33.7222ZM135.843 32.8957C135.957 32.8957 136.08 32.9033 136.21 32.9186C136.348 32.9263 136.466 32.9416 136.566 32.9646L136.44 33.8944C136.34 33.8715 136.229 33.8524 136.107 33.837C135.992 33.8217 135.881 33.8141 135.774 33.8141C135.46 33.8141 135.165 33.9021 134.89 34.0781C134.614 34.2465 134.392 34.4876 134.224 34.8014C134.063 35.1075 133.983 35.4672 133.983 35.8805V39.1638H132.973V33.0105H133.799L133.914 34.1355H133.96C134.159 33.7988 134.415 33.5079 134.729 33.263C135.043 33.0181 135.414 32.8957 135.843 32.8957ZM143.07 36.0757C143.07 37.0936 142.81 37.8819 142.289 38.4406C141.777 38.9993 141.08 39.2786 140.2 39.2786C139.657 39.2786 139.171 39.1562 138.742 38.9113C138.321 38.6587 137.988 38.2952 137.743 37.8206C137.498 37.3385 137.376 36.7568 137.376 36.0757C137.376 35.0578 137.632 34.2733 138.145 33.7222C138.658 33.1712 139.354 32.8957 140.234 32.8957C140.793 32.8957 141.283 33.022 141.704 33.2745C142.132 33.5194 142.465 33.8791 142.703 34.3537C142.948 34.8205 143.07 35.3945 143.07 36.0757ZM138.421 36.0757C138.421 36.8027 138.562 37.3806 138.845 37.8092C139.136 38.2301 139.595 38.4406 140.223 38.4406C140.843 38.4406 141.298 38.2301 141.589 37.8092C141.88 37.3806 142.025 36.8027 142.025 36.0757C142.025 35.3486 141.88 34.7784 141.589 34.3651C141.298 33.9518 140.839 33.7452 140.211 33.7452C139.584 33.7452 139.129 33.9518 138.845 34.3651C138.562 34.7784 138.421 35.3486 138.421 36.0757ZM152.831 39.1638H148.25V30.967H152.831V31.8739H149.283V34.434H152.624V35.3295H149.283V38.2569H152.831V39.1638ZM157.121 30.967C158.138 30.967 158.888 31.1622 159.371 31.5525C159.86 31.9352 160.105 32.5168 160.105 33.2975C160.105 33.7337 160.025 34.0973 159.864 34.3881C159.704 34.6789 159.497 34.9123 159.244 35.0884C158.999 35.2568 158.739 35.3907 158.464 35.4902L160.714 39.1638H159.508L157.522 35.7772H155.892V39.1638H154.859V30.967H157.121ZM157.063 31.8625H155.892V34.9047H157.121C157.786 34.9047 158.272 34.7746 158.578 34.5144C158.885 34.2465 159.038 33.8562 159.038 33.3434C159.038 32.8077 158.877 32.4288 158.556 32.2069C158.234 31.9773 157.737 31.8625 157.063 31.8625ZM164.4 30.967C165.471 30.967 166.252 31.1775 166.742 31.5984C167.231 32.0194 167.476 32.6125 167.476 33.3778C167.476 33.8294 167.373 34.2542 167.166 34.6521C166.967 35.0425 166.627 35.3601 166.145 35.605C165.67 35.8499 165.023 35.9723 164.205 35.9723H163.263V39.1638H162.23V30.967H164.4ZM164.308 31.851H163.263V35.0884H164.09C164.87 35.0884 165.452 34.9621 165.835 34.7095C166.217 34.457 166.409 34.0284 166.409 33.4238C166.409 32.8957 166.24 32.5015 165.904 32.2413C165.567 31.9811 165.035 31.851 164.308 31.851Z" fill="#949C9D"/>
</svg>
