<svg width="42" height="51" viewBox="0 0 42 51" fill="none" xmlns="http://www.w3.org/2000/svg">
<path fill-rule="evenodd" clip-rule="evenodd" d="M32.4321 44.7557V21.4745V17.7245H3.52588V21.4745V44.7557C3.52588 46.2061 4.10205 47.5971 5.12764 48.6227C6.15323 49.6483 7.54423 50.2245 8.99463 50.2245H26.9634C28.4138 50.2245 29.8048 49.6483 30.8304 48.6227C31.856 47.5971 32.4321 46.2061 32.4321 44.7557ZM7.27588 44.7557V21.4745H28.6821V44.7557C28.6821 45.2116 28.501 45.6487 28.1787 45.9711C27.8564 46.2934 27.4192 46.4745 26.9634 46.4745H8.99463C8.53879 46.4745 8.10162 46.2934 7.77929 45.9711C7.45696 45.6487 7.27588 45.2116 7.27588 44.7557Z" fill="#F3F3F3"/>
<path fill-rule="evenodd" clip-rule="evenodd" d="M14.3853 26.7089C15.4208 26.7089 16.2603 27.5483 16.2603 28.5839V39.3651C16.2603 40.4006 15.4208 41.2401 14.3853 41.2401C13.3497 41.2401 12.5103 40.4006 12.5103 39.3651V28.5839C12.5103 27.5483 13.3497 26.7089 14.3853 26.7089Z" fill="#F3F3F3"/>
<path fill-rule="evenodd" clip-rule="evenodd" d="M21.5728 26.7089C22.6083 26.7089 23.4478 27.5483 23.4478 28.5839V39.3651C23.4478 40.4006 22.6083 41.2401 21.5728 41.2401C20.5372 41.2401 19.6978 40.4006 19.6978 39.3651V28.5839C19.6978 27.5483 20.5372 26.7089 21.5728 26.7089Z" fill="#F3F3F3"/>
<path fill-rule="evenodd" clip-rule="evenodd" d="M12.3713 7.40918L11.7343 9.00552L5.13123 6.37054C4.16945 5.98673 3.07864 6.45527 2.69483 7.41706C2.31103 8.37884 2.77957 9.46965 3.74135 9.85346L5.33769 10.4905L8.82061 11.8804L28.7023 19.8143L32.1852 21.2041L33.7815 21.8412C34.7433 22.225 35.8341 21.7564 36.2179 20.7947C36.6017 19.8329 36.1332 18.7421 35.1714 18.3583L28.5684 15.7233L29.2054 14.1269C29.743 12.7798 29.7234 11.2744 29.151 9.94169C28.5785 8.60903 27.5002 7.55834 26.1531 7.02077L19.4775 4.35683C18.1304 3.81926 16.6249 3.83884 15.2922 4.41127C13.9596 4.9837 12.9089 6.06208 12.3713 7.40918ZM16.7722 7.85686C17.1911 7.67696 17.6642 7.6708 18.0876 7.83975L24.7632 10.5037C25.1866 10.6726 25.5255 11.0029 25.7054 11.4217C25.8853 11.8405 25.8914 12.3137 25.7225 12.7371L25.0855 14.3334L15.2172 10.3954L15.8542 8.79906C16.0232 8.37569 16.3534 8.03677 16.7722 7.85686Z" fill="#F3F3F3"/>
</svg>
