<svg width="33" height="35" viewBox="0 0 33 35" fill="none" xmlns="http://www.w3.org/2000/svg">
<path d="M28.2421 25.5279H25.8056C25.6393 25.5279 25.4833 25.6007 25.3794 25.7289C25.1367 26.0235 24.8768 26.3077 24.603 26.578C23.4832 27.699 22.1567 28.5923 20.697 29.2086C19.1847 29.8473 17.5593 30.175 15.9177 30.1721C14.2575 30.1721 12.6494 29.8463 11.1383 29.2086C9.67859 28.5923 8.35215 27.699 7.23232 26.578C6.11048 25.4609 5.21596 24.1367 4.59829 22.679C3.95712 21.1679 3.63479 19.5632 3.63479 17.9031C3.63479 16.243 3.96058 14.6383 4.59829 13.1272C5.21521 11.6681 6.10246 10.3545 7.23232 9.22813C8.36217 8.10174 9.67572 7.21449 11.1383 6.59757C12.6494 5.95986 14.2575 5.63408 15.9177 5.63408C17.5778 5.63408 19.1859 5.9564 20.697 6.59757C22.1596 7.21449 23.4732 8.10174 24.603 9.22813C24.8768 9.50193 25.1333 9.78613 25.3794 10.0773C25.4833 10.2055 25.6428 10.2783 25.8056 10.2783H28.2421C28.4605 10.2783 28.5956 10.0357 28.4743 9.85198C25.816 5.72072 21.1649 2.98619 15.8795 3.00005C7.57543 3.02085 0.917591 9.76187 1.00077 18.0556C1.08395 26.2176 7.7314 32.8061 15.9177 32.8061C21.1892 32.8061 25.8195 30.075 28.4743 25.9542C28.5922 25.7705 28.4605 25.5279 28.2421 25.5279ZM31.3232 17.6847L26.4052 13.803C26.2215 13.6575 25.9547 13.7892 25.9547 14.0214V16.6554H15.072C14.9195 16.6554 14.7947 16.7802 14.7947 16.9327V18.8735C14.7947 19.026 14.9195 19.1508 15.072 19.1508H25.9547V21.7848C25.9547 22.017 26.225 22.1487 26.4052 22.0031L31.3232 18.1214C31.3564 18.0955 31.3832 18.0624 31.4016 18.0245C31.42 17.9867 31.4296 17.9452 31.4296 17.9031C31.4296 17.861 31.42 17.8195 31.4016 17.7816C31.3832 17.7438 31.3564 17.7107 31.3232 17.6847Z" fill="black"/>
</svg>
