<svg width="528" height="135" viewBox="0 0 528 135" fill="none" xmlns="http://www.w3.org/2000/svg">
<path d="M53.4808 17.9428H57.1874L55.6745 37.0809H52.6487C51.5897 32.4413 49.5221 28.7852 46.4458 26.1124C43.4201 23.4396 39.7387 22.1032 35.4017 22.1032C32.4264 22.1032 29.7788 22.7084 27.459 23.9187C25.1393 25.0786 23.1725 26.768 21.5587 28.9869C19.9954 31.1554 18.7851 33.8281 17.9278 37.0052C17.1209 40.1319 16.7175 43.662 16.7175 47.5955C16.7175 55.4121 18.306 61.4385 21.4831 65.6746C24.7106 69.8602 29.451 71.9531 35.7043 71.9531C40.7473 71.9531 44.9077 70.5915 48.1857 67.8683C51.514 65.145 53.8842 61.0854 55.2963 55.6895H58.6246V76.1892H55.0693L54.0103 70.2132C48.463 74.7015 41.7307 76.9456 33.8132 76.9456C29.2241 76.9456 25.0636 76.2648 21.3318 74.9032C17.6 73.5416 14.4229 71.6253 11.8006 69.1542C9.17822 66.6327 7.13582 63.5817 5.67335 60.0012C4.26132 56.4207 3.5553 52.4367 3.5553 48.0493C3.5553 43.4602 4.31175 39.2746 5.82464 35.4923C7.33754 31.7101 9.45559 28.4574 12.1788 25.7342C14.9524 23.011 18.2304 20.9181 22.0126 19.4556C25.8453 17.9428 30.0814 17.1863 34.7209 17.1863C37.7971 17.1863 40.6716 17.615 43.3444 18.4723C46.0172 19.3296 48.9169 20.7164 52.0435 22.6327L53.4808 17.9428ZM85.7238 63.7834C85.7238 65.8006 85.7994 67.4144 85.9507 68.6247C86.102 69.835 86.4046 70.768 86.8584 71.4236C87.3123 72.0791 87.9679 72.533 88.8252 72.7852C89.6825 72.9869 90.8424 73.113 92.3048 73.1634V76.1892H68.4768V73.1634C69.8888 73.113 71.0235 72.9617 71.8808 72.7095C72.7885 72.4069 73.4693 71.9531 73.9232 71.3479C74.4275 70.6923 74.7553 69.8098 74.9066 68.7003C75.1083 67.5405 75.2091 66.078 75.2091 64.313V33.0717C75.2091 30.1468 75.1587 27.7514 75.0579 25.8854C74.957 23.9691 74.8309 22.6579 74.6796 21.9519C74.4275 20.6912 73.8475 19.8591 72.9398 19.4556C72.0825 19.0522 70.494 18.8505 68.1742 18.8505V16.2786L85.7238 13.4041V63.7834ZM124.716 54.6304C120.48 56.5468 117.278 58.337 115.109 60.0012C112.991 61.615 111.932 63.3044 111.932 65.0694C111.932 66.5319 112.336 67.6917 113.143 68.5491C113.949 69.4064 114.958 69.835 116.168 69.835C117.379 69.835 118.513 69.6333 119.572 69.2299C120.631 68.776 121.539 68.196 122.296 67.49C123.052 66.784 123.632 65.9519 124.035 64.9938C124.489 63.9852 124.716 62.9261 124.716 61.8167V54.6304ZM124.716 50.6213V47.4442C124.716 44.5193 124.187 42.4012 123.128 41.09C122.119 39.7284 120.531 39.0476 118.362 39.0476C116.9 39.0476 115.79 39.4511 115.034 40.2579C114.277 41.0144 113.571 42.3003 112.916 44.1158C112.462 45.3766 111.806 46.3599 110.949 47.066C110.142 47.772 109.007 48.125 107.545 48.125C106.133 48.125 105.049 47.6963 104.292 46.839C103.536 45.9817 103.157 44.7714 103.157 43.2081C103.157 40.7875 104.469 38.8711 107.091 37.4591C109.764 36.0471 113.773 35.341 119.119 35.341C124.767 35.341 128.801 36.3748 131.222 38.4425C133.642 40.4597 134.853 43.8637 134.853 48.6545V65.2207C134.853 69.5072 135.71 71.6505 137.425 71.6505C138.383 71.6505 139.265 71.3227 140.072 70.6671L141.207 72.8608C140.501 74.1215 139.391 75.1301 137.878 75.8866C136.416 76.5926 134.752 76.9456 132.886 76.9456C130.566 76.9456 128.801 76.2396 127.591 74.8276C126.38 73.4155 125.775 71.4236 125.775 68.8516H125.397C123.935 71.474 122.043 73.466 119.724 74.8276C117.404 76.1892 114.756 76.87 111.781 76.87C108.604 76.87 106.057 75.9875 104.141 74.2224C102.225 72.4069 101.266 70.062 101.266 67.1875C101.266 64.9685 102.25 62.9009 104.217 60.9846C106.183 59.0178 109.461 57.1015 114.05 55.2356L124.716 50.6213ZM153.326 76.1892H150.981V62.4218H154.159C155.016 66.0528 156.251 68.7003 157.865 70.3645C159.479 72.0287 161.572 72.8608 164.144 72.8608C166.01 72.8608 167.447 72.4826 168.455 71.7261C169.514 70.9193 170.044 69.835 170.044 68.4734C170.044 67.0614 169.414 65.6998 168.153 64.3886C166.892 63.027 164.85 61.5897 162.026 60.0769C158.193 58.0092 155.445 55.9668 153.78 53.9496C152.116 51.882 151.284 49.5622 151.284 46.9903C151.284 45.3261 151.587 43.788 152.192 42.376C152.847 40.9135 153.705 39.6528 154.764 38.5938C155.873 37.5347 157.184 36.7279 158.697 36.1731C160.21 35.568 161.849 35.2654 163.614 35.2654C165.177 35.2654 166.716 35.4923 168.228 35.9462C169.792 36.4001 171.153 37.0304 172.313 37.8373L173.675 36.0218H175.642V47.4442H172.692C171.532 44.5697 170.321 42.5021 169.061 41.2413C167.85 39.9806 166.363 39.3502 164.598 39.3502C163.185 39.3502 162.051 39.7284 161.194 40.4849C160.387 41.2413 159.983 42.2499 159.983 43.5107C159.983 44.9227 160.588 46.2591 161.799 47.5198C163.059 48.7806 165.127 50.1674 168.002 51.6803C170.019 52.7897 171.759 53.874 173.221 54.933C174.683 55.992 175.869 57.0763 176.776 58.1857C177.684 59.2448 178.34 60.3794 178.743 61.5897C179.197 62.7496 179.424 64.0104 179.424 65.372C179.424 67.137 179.096 68.7256 178.441 70.1376C177.785 71.5496 176.852 72.7599 175.642 73.7685C174.431 74.7771 172.969 75.5588 171.254 76.1135C169.59 76.6683 167.724 76.9456 165.657 76.9456C163.488 76.9456 161.471 76.6683 159.605 76.1135C157.739 75.5084 156.201 74.6511 154.991 73.5416L153.326 76.1892ZM193.329 76.1892H190.984V62.4218H194.161C195.018 66.0528 196.254 68.7003 197.868 70.3645C199.481 72.0287 201.574 72.8608 204.146 72.8608C206.012 72.8608 207.449 72.4826 208.458 71.7261C209.517 70.9193 210.046 69.835 210.046 68.4734C210.046 67.0614 209.416 65.6998 208.155 64.3886C206.895 63.027 204.852 61.5897 202.028 60.0769C198.195 58.0092 195.447 55.9668 193.783 53.9496C192.119 51.882 191.287 49.5622 191.287 46.9903C191.287 45.3261 191.589 43.788 192.194 42.376C192.85 40.9135 193.707 39.6528 194.766 38.5938C195.876 37.5347 197.187 36.7279 198.7 36.1731C200.213 35.568 201.852 35.2654 203.617 35.2654C205.18 35.2654 206.718 35.4923 208.231 35.9462C209.794 36.4001 211.156 37.0304 212.316 37.8373L213.677 36.0218H215.644V47.4442H212.694C211.534 44.5697 210.324 42.5021 209.063 41.2413C207.853 39.9806 206.365 39.3502 204.6 39.3502C203.188 39.3502 202.053 39.7284 201.196 40.4849C200.389 41.2413 199.986 42.2499 199.986 43.5107C199.986 44.9227 200.591 46.2591 201.801 47.5198C203.062 48.7806 205.129 50.1674 208.004 51.6803C210.021 52.7897 211.761 53.874 213.223 54.933C214.686 55.992 215.871 57.0763 216.779 58.1857C217.687 59.2448 218.342 60.3794 218.746 61.5897C219.199 62.7496 219.426 64.0104 219.426 65.372C219.426 67.137 219.099 68.7256 218.443 70.1376C217.787 71.5496 216.854 72.7599 215.644 73.7685C214.434 74.7771 212.971 75.5588 211.257 76.1135C209.593 76.6683 207.727 76.9456 205.659 76.9456C203.491 76.9456 201.473 76.6683 199.607 76.1135C197.742 75.5084 196.203 74.6511 194.993 73.5416L193.329 76.1892ZM278.69 40.4092C280.858 38.745 282.422 37.0304 283.38 35.2654C284.388 33.5003 284.893 31.584 284.893 29.5164C284.893 27.3983 284.363 25.7089 283.304 24.4482C282.296 23.1875 280.909 22.5571 279.144 22.5571C275.916 22.5571 274.302 24.8516 274.302 29.4407C274.302 31.4075 274.681 33.3238 275.437 35.1897C276.194 37.0556 277.278 38.7955 278.69 40.4092ZM273.092 49.4109C270.52 51.1256 268.553 53.1428 267.192 55.4625C265.83 57.7823 265.149 60.1777 265.149 62.6488C265.149 65.2207 265.956 67.3387 267.57 69.0029C269.184 70.6167 271.226 71.4236 273.697 71.4236C275.664 71.4236 277.782 70.9697 280.051 70.062C282.321 69.1038 284.489 67.7926 286.557 66.1284L273.092 49.4109ZM293.441 59.2448C294.651 57.8832 295.76 56.5215 296.769 55.1599C297.828 53.7983 298.736 52.5376 299.492 51.3777C300.249 50.1674 300.829 49.0832 301.232 48.125C301.635 47.1668 301.837 46.3852 301.837 45.78C301.837 44.9731 301.459 44.3932 300.702 44.0402C299.996 43.6872 298.761 43.5107 296.996 43.5107V40.4849H315.302V43.5107C314.142 43.5107 313.133 43.6115 312.276 43.8132C311.469 44.015 310.713 44.3175 310.007 44.721C309.351 45.074 308.746 45.5531 308.191 46.1582C307.637 46.713 307.082 47.3938 306.527 48.2006L296.012 62.8001C298.08 65.4224 300.299 67.49 302.669 69.0029C305.039 70.5158 307.334 71.2723 309.553 71.2723C310.965 71.2723 312.074 71.0453 312.881 70.5915C313.688 70.0872 314.52 69.129 315.378 67.717L317.344 68.2465C316.79 71.0705 315.504 73.239 313.486 74.7519C311.469 76.2144 308.847 76.9456 305.619 76.9456C304.308 76.9456 303.047 76.7943 301.837 76.4917C300.677 76.1892 299.467 75.7101 298.206 75.0545C296.996 74.3989 295.71 73.5668 294.348 72.5582C292.987 71.4992 291.474 70.2637 289.81 68.8516C287.238 71.2723 284.187 73.239 280.657 74.7519C277.177 76.2144 273.622 76.9456 269.991 76.9456C267.57 76.9456 265.326 76.6178 263.258 75.9622C261.241 75.2562 259.476 74.3233 257.963 73.1634C256.501 71.9531 255.341 70.541 254.484 68.9273C253.677 67.2631 253.273 65.4728 253.273 63.5565C253.273 60.1777 254.635 57.0511 257.358 54.1766C260.132 51.2516 264.519 48.3015 270.52 45.3261C268.856 42.9559 267.62 40.737 266.814 38.6694C266.057 36.6018 265.679 34.4333 265.679 32.164C265.679 29.945 266.032 27.9279 266.738 26.1124C267.444 24.2465 268.427 22.6579 269.688 21.3468C270.999 20.0356 272.537 19.027 274.302 18.321C276.118 17.5645 278.11 17.1863 280.278 17.1863C282.195 17.1863 283.96 17.4637 285.573 18.0184C287.187 18.5731 288.574 19.3548 289.734 20.3634C290.894 21.372 291.802 22.5571 292.457 23.9187C293.113 25.2803 293.441 26.7932 293.441 28.4574C293.441 31.1806 292.482 33.7777 290.566 36.2488C288.65 38.6694 285.573 41.2665 281.337 44.0402L293.441 59.2448ZM352.841 56.8998H355.791C356.497 61.6906 358.413 65.4728 361.54 68.2465C364.666 70.9697 368.524 72.3313 373.113 72.3313C374.979 72.3313 376.694 72.1044 378.257 71.6505C379.82 71.1966 381.157 70.5662 382.266 69.7594C383.376 68.9021 384.233 67.9187 384.838 66.8092C385.443 65.6493 385.746 64.3634 385.746 62.9513C385.746 61.741 385.544 60.7072 385.141 59.8499C384.788 58.9422 384.082 58.0849 383.023 57.278C381.964 56.4207 380.501 55.5634 378.635 54.7061C376.82 53.8488 374.45 52.8654 371.525 51.7559C365.625 49.4866 361.262 46.8642 358.438 43.8889C355.614 40.8631 354.202 37.3078 354.202 33.223C354.202 30.8528 354.656 28.6843 355.564 26.7175C356.471 24.7508 357.732 23.0614 359.346 21.6493C361.01 20.2373 362.977 19.1531 365.246 18.3966C367.566 17.5897 370.113 17.1863 372.886 17.1863C375.458 17.1863 377.879 17.5897 380.148 18.3966C382.418 19.2035 384.662 20.4138 386.881 22.0276L388.242 18.2453H390.058L390.89 34.5846H387.94C386.729 30.4493 384.838 27.2975 382.266 25.129C379.694 22.9101 376.719 21.8006 373.34 21.8006C370.214 21.8006 367.667 22.5823 365.7 24.1456C363.784 25.6585 362.826 27.6253 362.826 30.0459C362.826 31.1049 363.002 32.0631 363.355 32.9204C363.708 33.7273 364.364 34.5089 365.322 35.2654C366.28 36.0218 367.591 36.8035 369.255 37.6104C370.92 38.3668 373.063 39.2241 375.685 40.1823C379.215 41.5439 382.216 42.9307 384.687 44.3428C387.208 45.7044 389.251 47.192 390.814 48.8058C392.428 50.3691 393.613 52.0333 394.369 53.7983C395.126 55.5634 395.504 57.5049 395.504 59.623C395.504 62.1949 394.949 64.5399 393.84 66.6579C392.731 68.776 391.167 70.5915 389.15 72.1044C387.183 73.6173 384.813 74.8024 382.039 75.6597C379.316 76.517 376.29 76.9456 372.962 76.9456C369.936 76.9456 367.213 76.5422 364.792 75.7353C362.372 74.878 359.876 73.5164 357.304 71.6505L355.791 76.1892H353.975L352.841 56.8998ZM429.702 54.6304C425.466 56.5468 422.264 58.337 420.095 60.0012C417.977 61.615 416.918 63.3044 416.918 65.0694C416.918 66.5319 417.322 67.6917 418.128 68.5491C418.935 69.4064 419.944 69.835 421.154 69.835C422.365 69.835 423.499 69.6333 424.558 69.2299C425.617 68.776 426.525 68.196 427.281 67.49C428.038 66.784 428.618 65.9519 429.021 64.9938C429.475 63.9852 429.702 62.9261 429.702 61.8167V54.6304ZM429.702 50.6213V47.4442C429.702 44.5193 429.173 42.4012 428.114 41.09C427.105 39.7284 425.516 39.0476 423.348 39.0476C421.885 39.0476 420.776 39.4511 420.02 40.2579C419.263 41.0144 418.557 42.3003 417.901 44.1158C417.448 45.3766 416.792 46.3599 415.935 47.066C415.128 47.772 413.993 48.125 412.531 48.125C411.119 48.125 410.034 47.6963 409.278 46.839C408.522 45.9817 408.143 44.7714 408.143 43.2081C408.143 40.7875 409.454 38.8711 412.077 37.4591C414.75 36.0471 418.759 35.341 424.104 35.341C429.752 35.341 433.787 36.3748 436.207 38.4425C438.628 40.4597 439.838 43.8637 439.838 48.6545V65.2207C439.838 69.5072 440.696 71.6505 442.41 71.6505C443.369 71.6505 444.251 71.3227 445.058 70.6671L446.193 72.8608C445.487 74.1215 444.377 75.1301 442.864 75.8866C441.402 76.5926 439.738 76.9456 437.872 76.9456C435.552 76.9456 433.787 76.2396 432.577 74.8276C431.366 73.4155 430.761 71.4236 430.761 68.8516H430.383C428.92 71.474 427.029 73.466 424.709 74.8276C422.39 76.1892 419.742 76.87 416.767 76.87C413.59 76.87 411.043 75.9875 409.127 74.2224C407.21 72.4069 406.252 70.062 406.252 67.1875C406.252 64.9685 407.236 62.9009 409.202 60.9846C411.169 59.0178 414.447 57.1015 419.036 55.2356L429.702 50.6213ZM458.312 76.1892H455.967V62.4218H459.144C460.002 66.0528 461.237 68.7003 462.851 70.3645C464.465 72.0287 466.558 72.8608 469.129 72.8608C470.995 72.8608 472.433 72.4826 473.441 71.7261C474.5 70.9193 475.03 69.835 475.03 68.4734C475.03 67.0614 474.399 65.6998 473.139 64.3886C471.878 63.027 469.835 61.5897 467.011 60.0769C463.179 58.0092 460.43 55.9668 458.766 53.9496C457.102 51.882 456.27 49.5622 456.27 46.9903C456.27 45.3261 456.572 43.788 457.178 42.376C457.833 40.9135 458.69 39.6528 459.75 38.5938C460.859 37.5347 462.17 36.7279 463.683 36.1731C465.196 35.568 466.835 35.2654 468.6 35.2654C470.163 35.2654 471.701 35.4923 473.214 35.9462C474.778 36.4001 476.139 37.0304 477.299 37.8373L478.661 36.0218H480.627V47.4442H477.677C476.517 44.5697 475.307 42.5021 474.046 41.2413C472.836 39.9806 471.348 39.3502 469.583 39.3502C468.171 39.3502 467.037 39.7284 466.179 40.4849C465.372 41.2413 464.969 42.2499 464.969 43.5107C464.969 44.9227 465.574 46.2591 466.784 47.5198C468.045 48.7806 470.113 50.1674 472.987 51.6803C475.005 52.7897 476.744 53.874 478.207 54.933C479.669 55.992 480.854 57.0763 481.762 58.1857C482.67 59.2448 483.325 60.3794 483.729 61.5897C484.183 62.7496 484.41 64.0104 484.41 65.372C484.41 67.137 484.082 68.7256 483.426 70.1376C482.771 71.5496 481.838 72.7599 480.627 73.7685C479.417 74.7771 477.955 75.5588 476.24 76.1135C474.576 76.6683 472.71 76.9456 470.642 76.9456C468.474 76.9456 466.457 76.6683 464.591 76.1135C462.725 75.5084 461.187 74.6511 459.976 73.5416L458.312 76.1892ZM498.315 76.1892H495.97V62.4218H499.147C500.004 66.0528 501.24 68.7003 502.853 70.3645C504.467 72.0287 506.56 72.8608 509.132 72.8608C510.998 72.8608 512.435 72.4826 513.444 71.7261C514.503 70.9193 515.032 69.835 515.032 68.4734C515.032 67.0614 514.402 65.6998 513.141 64.3886C511.88 63.027 509.838 61.5897 507.014 60.0769C503.181 58.0092 500.433 55.9668 498.769 53.9496C497.104 51.882 496.272 49.5622 496.272 46.9903C496.272 45.3261 496.575 43.788 497.18 42.376C497.836 40.9135 498.693 39.6528 499.752 38.5938C500.861 37.5347 502.173 36.7279 503.686 36.1731C505.198 35.568 506.837 35.2654 508.602 35.2654C510.166 35.2654 511.704 35.4923 513.217 35.9462C514.78 36.4001 516.142 37.0304 517.302 37.8373L518.663 36.0218H520.63V47.4442H517.68C516.52 44.5697 515.31 42.5021 514.049 41.2413C512.839 39.9806 511.351 39.3502 509.586 39.3502C508.174 39.3502 507.039 39.7284 506.182 40.4849C505.375 41.2413 504.971 42.2499 504.971 43.5107C504.971 44.9227 505.577 46.2591 506.787 47.5198C508.048 48.7806 510.115 50.1674 512.99 51.6803C515.007 52.7897 516.747 53.874 518.209 54.933C519.672 55.992 520.857 57.0763 521.765 58.1857C522.672 59.2448 523.328 60.3794 523.731 61.5897C524.185 62.7496 524.412 64.0104 524.412 65.372C524.412 67.137 524.084 68.7256 523.429 70.1376C522.773 71.5496 521.84 72.7599 520.63 73.7685C519.42 74.7771 517.957 75.5588 516.243 76.1135C514.578 76.6683 512.712 76.9456 510.645 76.9456C508.476 76.9456 506.459 76.6683 504.593 76.1135C502.727 75.5084 501.189 74.6511 499.979 73.5416L498.315 76.1892Z" fill="#991D27"/>
<path d="M246.783 112.658C248.581 112.658 250.024 113.285 251.113 114.537C252.221 115.79 252.774 117.678 252.774 120.202C252.774 122.689 252.221 124.577 251.113 125.866C250.024 127.155 248.571 127.799 246.756 127.799C245.63 127.799 244.695 127.59 243.951 127.173C243.225 126.737 242.653 126.238 242.235 125.675H242.072C242.108 125.984 242.145 126.374 242.181 126.846C242.217 127.318 242.235 127.727 242.235 128.072V134.063H239.839V112.931H241.8L242.127 114.918H242.235C242.671 114.283 243.243 113.747 243.951 113.312C244.659 112.876 245.603 112.658 246.783 112.658ZM246.347 114.673C244.859 114.673 243.806 115.091 243.189 115.926C242.589 116.761 242.272 118.032 242.235 119.739V120.202C242.235 121.999 242.526 123.388 243.107 124.368C243.706 125.33 244.804 125.811 246.402 125.811C247.292 125.811 248.018 125.566 248.581 125.076C249.161 124.586 249.588 123.923 249.86 123.088C250.151 122.235 250.296 121.264 250.296 120.174C250.296 118.504 249.969 117.17 249.316 116.171C248.68 115.173 247.691 114.673 246.347 114.673ZM269.828 120.202C269.828 122.616 269.211 124.486 267.976 125.811C266.76 127.137 265.108 127.799 263.02 127.799C261.731 127.799 260.578 127.509 259.561 126.928C258.563 126.329 257.773 125.466 257.192 124.341C256.611 123.197 256.321 121.817 256.321 120.202C256.321 117.787 256.929 115.926 258.145 114.619C259.362 113.312 261.014 112.658 263.102 112.658C264.427 112.658 265.589 112.958 266.587 113.557C267.604 114.138 268.394 114.991 268.957 116.117C269.537 117.224 269.828 118.586 269.828 120.202ZM258.799 120.202C258.799 121.926 259.135 123.297 259.807 124.314C260.496 125.312 261.586 125.811 263.074 125.811C264.545 125.811 265.625 125.312 266.315 124.314C267.005 123.297 267.35 121.926 267.35 120.202C267.35 118.477 267.005 117.124 266.315 116.144C265.625 115.164 264.536 114.673 263.047 114.673C261.558 114.673 260.478 115.164 259.807 116.144C259.135 117.124 258.799 118.477 258.799 120.202ZM283.061 119.276C282.825 118.531 282.616 117.805 282.435 117.097C282.271 116.371 282.144 115.808 282.053 115.409H281.945C281.872 115.808 281.754 116.371 281.591 117.097C281.427 117.805 281.218 118.54 280.964 119.303L278.35 127.5H275.627L271.624 112.903H274.102L276.117 120.692C276.317 121.472 276.507 122.262 276.689 123.061C276.87 123.86 276.997 124.522 277.07 125.049H277.179C277.252 124.74 277.333 124.359 277.424 123.905C277.533 123.451 277.651 122.979 277.778 122.489C277.905 121.981 278.032 121.527 278.159 121.127L280.746 112.903H283.361L285.866 121.127C286.066 121.745 286.256 122.416 286.438 123.143C286.638 123.869 286.774 124.495 286.846 125.022H286.955C287.01 124.568 287.128 123.941 287.309 123.143C287.509 122.344 287.718 121.527 287.936 120.692L289.978 112.903H292.429L288.371 127.5H285.566L283.061 119.276ZM301.228 112.658C302.481 112.658 303.552 112.931 304.442 113.475C305.35 114.02 306.039 114.791 306.511 115.79C307.002 116.77 307.247 117.923 307.247 119.248V120.692H297.253C297.289 122.344 297.706 123.606 298.505 124.477C299.322 125.33 300.457 125.757 301.909 125.757C302.835 125.757 303.652 125.675 304.36 125.512C305.086 125.33 305.831 125.076 306.593 124.749V126.846C305.849 127.173 305.114 127.409 304.387 127.554C303.661 127.718 302.799 127.799 301.8 127.799C300.421 127.799 299.195 127.518 298.124 126.955C297.071 126.392 296.245 125.557 295.646 124.45C295.065 123.324 294.774 121.953 294.774 120.338C294.774 118.74 295.038 117.369 295.564 116.226C296.109 115.082 296.862 114.201 297.824 113.584C298.805 112.967 299.939 112.658 301.228 112.658ZM301.201 114.619C300.057 114.619 299.15 114.991 298.478 115.735C297.824 116.462 297.434 117.478 297.307 118.785H304.741C304.723 117.551 304.433 116.552 303.87 115.79C303.307 115.009 302.418 114.619 301.201 114.619ZM318.315 112.658C318.588 112.658 318.878 112.676 319.187 112.713C319.514 112.731 319.795 112.767 320.031 112.822L319.731 115.027C319.495 114.973 319.232 114.928 318.942 114.891C318.669 114.855 318.406 114.837 318.152 114.837C317.408 114.837 316.709 115.046 316.055 115.463C315.401 115.863 314.875 116.434 314.476 117.179C314.094 117.905 313.904 118.758 313.904 119.739V127.527H311.507V112.931H313.468L313.74 115.599H313.849C314.321 114.8 314.929 114.111 315.674 113.53C316.418 112.949 317.299 112.658 318.315 112.658ZM328.406 112.658C329.659 112.658 330.73 112.931 331.62 113.475C332.527 114.02 333.217 114.791 333.689 115.79C334.18 116.77 334.425 117.923 334.425 119.248V120.692H324.43C324.467 122.344 324.884 123.606 325.683 124.477C326.5 125.33 327.635 125.757 329.087 125.757C330.013 125.757 330.83 125.675 331.538 125.512C332.264 125.33 333.009 125.076 333.771 124.749V126.846C333.027 127.173 332.291 127.409 331.565 127.554C330.839 127.718 329.977 127.799 328.978 127.799C327.598 127.799 326.373 127.518 325.302 126.955C324.249 126.392 323.423 125.557 322.824 124.45C322.243 123.324 321.952 121.953 321.952 120.338C321.952 118.74 322.216 117.369 322.742 116.226C323.287 115.082 324.04 114.201 325.002 113.584C325.983 112.967 327.117 112.658 328.406 112.658ZM328.379 114.619C327.235 114.619 326.328 114.991 325.656 115.735C325.002 116.462 324.612 117.478 324.485 118.785H331.919C331.901 117.551 331.611 116.552 331.048 115.79C330.485 115.009 329.595 114.619 328.379 114.619ZM343.859 127.799C342.044 127.799 340.591 127.173 339.502 125.92C338.413 124.649 337.868 122.761 337.868 120.256C337.868 117.751 338.413 115.863 339.502 114.592C340.61 113.303 342.071 112.658 343.886 112.658C345.012 112.658 345.929 112.867 346.637 113.285C347.363 113.702 347.953 114.21 348.407 114.81H348.57C348.552 114.574 348.516 114.229 348.461 113.775C348.425 113.303 348.407 112.931 348.407 112.658V106.831H350.803V127.527H348.87L348.516 125.566H348.407C347.971 126.183 347.39 126.71 346.664 127.146C345.938 127.581 345.003 127.799 343.859 127.799ZM344.24 125.811C345.784 125.811 346.864 125.394 347.481 124.559C348.117 123.705 348.434 122.425 348.434 120.719V120.283C348.434 118.468 348.135 117.079 347.536 116.117C346.936 115.136 345.829 114.646 344.213 114.646C342.924 114.646 341.953 115.164 341.299 116.198C340.664 117.215 340.346 118.586 340.346 120.31C340.346 122.053 340.664 123.406 341.299 124.368C341.953 125.33 342.933 125.811 344.24 125.811ZM365.999 111.868C365.999 112.486 365.981 113.067 365.944 113.611C365.926 114.138 365.899 114.555 365.863 114.864H365.999C366.416 114.247 366.988 113.729 367.715 113.312C368.441 112.894 369.376 112.685 370.519 112.685C372.335 112.685 373.787 113.321 374.877 114.592C375.984 115.844 376.538 117.723 376.538 120.229C376.538 122.734 375.984 124.622 374.877 125.893C373.769 127.164 372.317 127.799 370.519 127.799C369.376 127.799 368.441 127.59 367.715 127.173C366.988 126.755 366.416 126.256 365.999 125.675H365.808L365.318 127.527H363.603V106.831H365.999V111.868ZM370.111 114.673C368.568 114.673 367.497 115.118 366.898 116.008C366.298 116.897 365.999 118.277 365.999 120.147V120.256C365.999 122.053 366.289 123.433 366.87 124.395C367.469 125.339 368.568 125.811 370.165 125.811C371.473 125.811 372.444 125.33 373.079 124.368C373.733 123.406 374.06 122.017 374.06 120.202C374.06 116.516 372.743 114.673 370.111 114.673ZM378.082 112.931H380.642L383.801 121.236C384.073 121.963 384.318 122.661 384.536 123.333C384.754 123.987 384.917 124.613 385.026 125.212H385.135C385.244 124.758 385.416 124.168 385.652 123.442C385.888 122.698 386.134 121.953 386.388 121.209L389.356 112.931H391.943L385.652 129.542C385.144 130.922 384.481 132.02 383.664 132.837C382.866 133.654 381.758 134.063 380.342 134.063C379.906 134.063 379.525 134.035 379.198 133.981C378.872 133.945 378.59 133.899 378.354 133.845V131.939C378.554 131.975 378.79 132.011 379.062 132.047C379.353 132.084 379.652 132.102 379.961 132.102C380.796 132.102 381.468 131.866 381.976 131.394C382.503 130.922 382.911 130.296 383.202 129.515L383.964 127.581L378.082 112.931ZM414.941 127.527L412.599 121.509H404.893L402.578 127.527H400.1L407.698 108.002H409.903L417.474 127.527H414.941ZM409.686 113.448C409.631 113.303 409.54 113.039 409.413 112.658C409.286 112.277 409.159 111.887 409.032 111.487C408.923 111.07 408.832 110.752 408.76 110.534C408.633 111.097 408.487 111.651 408.324 112.195C408.161 112.722 408.024 113.139 407.916 113.448L405.71 119.33H411.864L409.686 113.448ZM422.748 127.527H420.352V106.831H422.748V127.527ZM433.554 112.658C434.807 112.658 435.878 112.931 436.767 113.475C437.675 114.02 438.365 114.791 438.837 115.79C439.327 116.77 439.572 117.923 439.572 119.248V120.692H429.578C429.615 122.344 430.032 123.606 430.831 124.477C431.648 125.33 432.783 125.757 434.235 125.757C435.161 125.757 435.978 125.675 436.686 125.512C437.412 125.33 438.156 125.076 438.919 124.749V126.846C438.174 127.173 437.439 127.409 436.713 127.554C435.987 127.718 435.124 127.799 434.126 127.799C432.746 127.799 431.521 127.518 430.45 126.955C429.397 126.392 428.571 125.557 427.972 124.45C427.391 123.324 427.1 121.953 427.1 120.338C427.1 118.74 427.363 117.369 427.89 116.226C428.434 115.082 429.188 114.201 430.15 113.584C431.13 112.967 432.265 112.658 433.554 112.658ZM433.527 114.619C432.383 114.619 431.475 114.991 430.804 115.735C430.15 116.462 429.76 117.478 429.633 118.785H437.067C437.049 117.551 436.758 116.552 436.196 115.79C435.633 115.009 434.743 114.619 433.527 114.619ZM450.641 112.658C450.913 112.658 451.204 112.676 451.512 112.713C451.839 112.731 452.121 112.767 452.357 112.822L452.057 115.027C451.821 114.973 451.558 114.928 451.267 114.891C450.995 114.855 450.732 114.837 450.478 114.837C449.733 114.837 449.034 115.046 448.381 115.463C447.727 115.863 447.201 116.434 446.801 117.179C446.42 117.905 446.229 118.758 446.229 119.739V127.527H443.833V112.931H445.794L446.066 115.599H446.175C446.647 114.8 447.255 114.111 447.999 113.53C448.744 112.949 449.624 112.658 450.641 112.658ZM467.785 120.202C467.785 122.616 467.168 124.486 465.933 125.811C464.717 127.137 463.065 127.799 460.977 127.799C459.688 127.799 458.535 127.509 457.519 126.928C456.52 126.329 455.73 125.466 455.149 124.341C454.568 123.197 454.278 121.817 454.278 120.202C454.278 117.787 454.886 115.926 456.102 114.619C457.319 113.312 458.971 112.658 461.059 112.658C462.384 112.658 463.546 112.958 464.544 113.557C465.561 114.138 466.351 114.991 466.914 116.117C467.495 117.224 467.785 118.586 467.785 120.202ZM456.756 120.202C456.756 121.926 457.092 123.297 457.764 124.314C458.454 125.312 459.543 125.811 461.031 125.811C462.502 125.811 463.582 125.312 464.272 124.314C464.962 123.297 465.307 121.926 465.307 120.202C465.307 118.477 464.962 117.124 464.272 116.144C463.582 115.164 462.493 114.673 461.004 114.673C459.516 114.673 458.435 115.164 457.764 116.144C457.092 117.124 456.756 118.477 456.756 120.202ZM490.939 127.527H480.073V108.083H490.939V110.235H482.524V116.307H490.449V118.431H482.524V125.376H490.939V127.527ZM501.114 108.083C503.529 108.083 505.308 108.546 506.452 109.472C507.614 110.38 508.195 111.76 508.195 113.611C508.195 114.646 508.004 115.509 507.623 116.198C507.242 116.888 506.751 117.442 506.152 117.86C505.571 118.259 504.954 118.577 504.301 118.813L509.638 127.527H506.779L502.067 119.493H498.201V127.527H495.75V108.083H501.114ZM500.978 110.207H498.201V117.424H501.114C502.694 117.424 503.847 117.115 504.573 116.498C505.299 115.863 505.662 114.937 505.662 113.72C505.662 112.449 505.281 111.551 504.518 111.024C503.756 110.48 502.576 110.207 500.978 110.207ZM518.381 108.083C520.923 108.083 522.775 108.582 523.937 109.581C525.099 110.579 525.68 111.986 525.68 113.802C525.68 114.873 525.435 115.881 524.944 116.825C524.472 117.751 523.664 118.504 522.521 119.085C521.395 119.666 519.861 119.956 517.918 119.956H515.685V127.527H513.235V108.083H518.381ZM518.164 110.18H515.685V117.86H517.646C519.498 117.86 520.878 117.56 521.785 116.961C522.693 116.362 523.147 115.345 523.147 113.911C523.147 112.658 522.748 111.723 521.949 111.106C521.15 110.489 519.888 110.18 518.164 110.18Z" fill="#3A3A3A"/>
</svg>
