<svg width="57" height="22" viewBox="0 0 57 22" fill="none" xmlns="http://www.w3.org/2000/svg">
<path d="M15.2865 1.35138H16.3459L15.9135 6.82164H15.0486C14.7459 5.49552 14.1549 4.45047 13.2757 3.68651C12.4108 2.92255 11.3585 2.54057 10.1189 2.54057C9.26845 2.54057 8.5117 2.71354 7.84864 3.05948C7.18557 3.39101 6.62341 3.8739 6.16215 4.50813C5.71531 5.12795 5.36936 5.89191 5.12432 6.80002C4.89369 7.69371 4.77837 8.70272 4.77837 9.82704C4.77837 12.0613 5.23242 13.7838 6.14053 14.9946C7.06305 16.191 8.418 16.7892 10.2054 16.7892C11.6468 16.7892 12.836 16.4 13.773 15.6216C14.7243 14.8432 15.4018 13.6829 15.8054 12.1405H16.7567V18H15.7405L15.4378 16.2919C13.8522 17.5748 11.9279 18.2162 9.66485 18.2162C8.35314 18.2162 7.16395 18.0216 6.09729 17.6324C5.03062 17.2432 4.12252 16.6955 3.37297 15.9892C2.62342 15.2685 2.03964 14.3964 1.62162 13.373C1.21802 12.3496 1.01621 11.2108 1.01621 9.95677C1.01621 8.64506 1.23243 7.44867 1.66486 6.36759C2.09729 5.28651 2.7027 4.35678 3.48108 3.5784C4.27387 2.80002 5.2108 2.20183 6.29188 1.78381C7.38738 1.35138 8.59818 1.13516 9.92431 1.13516C10.8036 1.13516 11.6252 1.25768 12.3892 1.50273C13.1531 1.74777 13.982 2.14417 14.8757 2.69192L15.2865 1.35138ZM26.8592 7.77299C27.4791 7.29731 27.9259 6.80723 28.1998 6.30272C28.4881 5.79822 28.6322 5.25047 28.6322 4.65948C28.6322 4.05408 28.4809 3.57119 28.1782 3.21083C27.8899 2.85047 27.4935 2.67029 26.989 2.67029C26.0665 2.67029 25.6052 3.32615 25.6052 4.63786C25.6052 5.20002 25.7133 5.74777 25.9295 6.2811C26.1457 6.81443 26.4556 7.31173 26.8592 7.77299ZM25.2592 10.346C24.5241 10.836 23.962 11.4126 23.5728 12.0757C23.1836 12.7387 22.989 13.4234 22.989 14.1297C22.989 14.8649 23.2196 15.4703 23.6809 15.9459C24.1421 16.4072 24.7259 16.6378 25.4322 16.6378C25.9944 16.6378 26.5998 16.5081 27.2484 16.2487C27.8971 15.9748 28.5169 15.6 29.1079 15.1243L25.2592 10.346ZM31.0755 13.1568C31.4214 12.7676 31.7385 12.3784 32.0268 11.9892C32.3295 11.6 32.589 11.2397 32.8052 10.9081C33.0214 10.5622 33.1872 10.2523 33.3025 9.97839C33.4178 9.70452 33.4755 9.48109 33.4755 9.30812C33.4755 9.07749 33.3673 8.91173 33.1511 8.81083C32.9493 8.70993 32.5962 8.65947 32.0917 8.65947V7.79461H37.3241V8.65947C36.9926 8.65947 36.7043 8.6883 36.4592 8.74596C36.2286 8.80362 36.0124 8.8901 35.8106 9.00542C35.6232 9.10632 35.4502 9.24326 35.2917 9.41623C35.1331 9.57479 34.9745 9.76938 34.816 10L31.8106 14.173C32.4016 14.9225 33.0358 15.5135 33.7133 15.9459C34.3908 16.3784 35.0466 16.5946 35.6809 16.5946C36.0845 16.5946 36.4016 16.5297 36.6322 16.4C36.8628 16.2559 37.1007 15.982 37.3457 15.5784L37.9079 15.7297C37.7493 16.5369 37.3818 17.1568 36.8052 17.5892C36.2286 18.0072 35.4791 18.2162 34.5565 18.2162C34.1818 18.2162 33.8214 18.173 33.4755 18.0865C33.1439 18 32.798 17.8631 32.4376 17.6757C32.0917 17.4883 31.7241 17.2505 31.3349 16.9622C30.9457 16.6595 30.5133 16.3063 30.0376 15.9027C29.3025 16.5946 28.4304 17.1568 27.4214 17.5892C26.4268 18.0072 25.4106 18.2162 24.3728 18.2162C23.6809 18.2162 23.0394 18.1225 22.4484 17.9351C21.8719 17.7333 21.3674 17.4667 20.9349 17.1351C20.5169 16.7892 20.1854 16.3856 19.9403 15.9243C19.7097 15.4487 19.5944 14.9369 19.5944 14.3892C19.5944 13.4234 19.9836 12.5297 20.762 11.7081C21.5547 10.8721 22.8088 10.0288 24.5241 9.17839C24.0484 8.50092 23.6953 7.86668 23.4647 7.27569C23.2484 6.6847 23.1403 6.06488 23.1403 5.41624C23.1403 4.782 23.2412 4.20543 23.443 3.68651C23.6448 3.15318 23.9259 2.69912 24.2863 2.32435C24.6611 1.94958 25.1007 1.66129 25.6052 1.45949C26.1241 1.24327 26.6935 1.13516 27.3133 1.13516C27.861 1.13516 28.3655 1.21444 28.8268 1.373C29.2881 1.53156 29.6845 1.75498 30.016 2.04327C30.3475 2.33156 30.607 2.67029 30.7944 3.05948C30.9818 3.44867 31.0755 3.8811 31.0755 4.35678C31.0755 5.13516 30.8016 5.8775 30.2538 6.5838C29.7061 7.27569 28.8268 8.01803 27.616 8.81083L31.0755 13.1568ZM40.9484 12.4865H41.7917C41.9935 13.8559 42.5412 14.9369 43.4349 15.7297C44.3286 16.5081 45.4313 16.8973 46.743 16.8973C47.2763 16.8973 47.7664 16.8324 48.2133 16.7027C48.6601 16.573 49.0421 16.3928 49.3592 16.1622C49.6763 15.9171 49.9214 15.636 50.0943 15.3189C50.2673 14.9874 50.3538 14.6198 50.3538 14.2162C50.3538 13.8703 50.2961 13.5748 50.1808 13.3297C50.0799 13.0703 49.8781 12.8252 49.5754 12.5946C49.2727 12.3496 48.8547 12.1045 48.3214 11.8595C47.8025 11.6144 47.125 11.3333 46.2889 11.0162C44.6025 10.3676 43.3556 9.61803 42.5484 8.76758C41.7412 7.90272 41.3376 6.8865 41.3376 5.71894C41.3376 5.04146 41.4673 4.42164 41.7268 3.85948C41.9862 3.29732 42.3466 2.81444 42.8079 2.41084C43.2835 2.00723 43.8457 1.69732 44.4944 1.48111C45.1574 1.25048 45.8853 1.13516 46.6781 1.13516C47.4133 1.13516 48.1052 1.25048 48.7538 1.48111C49.4025 1.71174 50.0439 2.05768 50.6781 2.51894L51.0673 1.43786H51.5862L51.8241 6.10813H50.9808C50.6349 4.92615 50.0943 4.02525 49.3592 3.40543C48.6241 2.7712 47.7736 2.45408 46.8079 2.45408C45.9142 2.45408 45.1862 2.6775 44.6241 3.12435C44.0763 3.55678 43.8025 4.11894 43.8025 4.81083C43.8025 5.11353 43.8529 5.38741 43.9538 5.63245C44.0547 5.86308 44.2421 6.08651 44.516 6.30272C44.7898 6.51894 45.1646 6.74236 45.6403 6.97299C46.116 7.18921 46.7286 7.43425 47.4781 7.70812C48.4871 8.09731 49.3448 8.49371 50.0511 8.89731C50.7718 9.2865 51.3556 9.71172 51.8024 10.173C52.2637 10.6198 52.6024 11.0955 52.8187 11.6C53.0349 12.1045 53.143 12.6595 53.143 13.2649C53.143 14 52.9844 14.6703 52.6673 15.2757C52.3502 15.8811 51.9033 16.4 51.3268 16.8324C50.7646 17.2649 50.0871 17.6036 49.2943 17.8486C48.516 18.0937 47.6511 18.2162 46.6998 18.2162C45.8349 18.2162 45.0565 18.1009 44.3646 17.8703C43.6727 17.6252 42.9592 17.236 42.2241 16.7027L41.7917 18H41.2727L40.9484 12.4865Z" fill="#3A3A3A"/>
</svg>
