<svg width="28" height="37" viewBox="0 0 28 37" fill="none" xmlns="http://www.w3.org/2000/svg">
<path d="M11.8269 15.301C11.8269 14.9999 11.9465 14.7111 12.1595 14.4982C12.3724 14.2853 12.6612 14.1656 12.9623 14.1656H20.9099C21.211 14.1656 21.4998 14.2853 21.7127 14.4982C21.9256 14.7111 22.0452 14.9999 22.0452 15.301C22.0452 15.6021 21.9256 15.8909 21.7127 16.1038C21.4998 16.3168 21.211 16.4364 20.9099 16.4364H12.9623C12.6612 16.4364 12.3724 16.3168 12.1595 16.1038C11.9465 15.8909 11.8269 15.6021 11.8269 15.301ZM11.8269 22.1132C11.8269 21.8121 11.9465 21.5233 12.1595 21.3104C12.3724 21.0975 12.6612 20.9778 12.9623 20.9778H20.9099C21.211 20.9778 21.4998 21.0975 21.7127 21.3104C21.9256 21.5233 22.0452 21.8121 22.0452 22.1132C22.0452 22.4143 21.9256 22.7031 21.7127 22.916C21.4998 23.129 21.211 23.2486 20.9099 23.2486H12.9623C12.6612 23.2486 12.3724 23.129 12.1595 22.916C11.9465 22.7031 11.8269 22.4143 11.8269 22.1132ZM11.8269 28.9254C11.8269 28.6243 11.9465 28.3355 12.1595 28.1226C12.3724 27.9097 12.6612 27.79 12.9623 27.79H20.9099C21.211 27.79 21.4998 27.9097 21.7127 28.1226C21.9256 28.3355 22.0452 28.6243 22.0452 28.9254C22.0452 29.2265 21.9256 29.5153 21.7127 29.7282C21.4998 29.9412 21.211 30.0608 20.9099 30.0608H12.9623C12.6612 30.0608 12.3724 29.9412 12.1595 29.7282C11.9465 29.5153 11.8269 29.2265 11.8269 28.9254ZM9.55619 15.301C9.55619 15.7527 9.37677 16.1859 9.05738 16.5053C8.738 16.8246 8.30482 17.0041 7.85314 17.0041C7.40147 17.0041 6.96829 16.8246 6.64891 16.5053C6.32952 16.1859 6.1501 15.7527 6.1501 15.301C6.1501 14.8493 6.32952 14.4162 6.64891 14.0968C6.96829 13.7774 7.40147 13.598 7.85314 13.598C8.30482 13.598 8.738 13.7774 9.05738 14.0968C9.37677 14.4162 9.55619 14.8493 9.55619 15.301ZM9.55619 22.1132C9.55619 22.5649 9.37677 22.9981 9.05738 23.3174C8.738 23.6368 8.30482 23.8163 7.85314 23.8163C7.40147 23.8163 6.96829 23.6368 6.64891 23.3174C6.32952 22.9981 6.1501 22.5649 6.1501 22.1132C6.1501 21.6615 6.32952 21.2284 6.64891 20.909C6.96829 20.5896 7.40147 20.4102 7.85314 20.4102C8.30482 20.4102 8.738 20.5896 9.05738 20.909C9.37677 21.2284 9.55619 21.6615 9.55619 22.1132ZM7.85314 30.6285C8.30482 30.6285 8.738 30.449 9.05738 30.1296C9.37677 29.8103 9.55619 29.3771 9.55619 28.9254C9.55619 28.4737 9.37677 28.0406 9.05738 27.7212C8.738 27.4018 8.30482 27.2224 7.85314 27.2224C7.40147 27.2224 6.96829 27.4018 6.64891 27.7212C6.32952 28.0406 6.1501 28.4737 6.1501 28.9254C6.1501 29.3771 6.32952 29.8103 6.64891 30.1296C6.96829 30.449 7.40147 30.6285 7.85314 30.6285ZM7.47847 2.81199C7.71336 2.14763 8.14853 1.57246 8.72399 1.16578C9.29946 0.759086 9.98689 0.540891 10.6916 0.54126H17.5038C18.2084 0.540891 18.8959 0.759086 19.4713 1.16578C20.0468 1.57246 20.482 2.14763 20.7168 2.81199H24.3159C25.2193 2.81199 26.0857 3.17085 26.7244 3.80961C27.3632 4.44838 27.722 5.31474 27.722 6.21809V33.4669C27.722 34.3702 27.3632 35.2366 26.7244 35.8753C26.0857 36.5141 25.2193 36.873 24.3159 36.873H3.87936C2.97601 36.873 2.10966 36.5141 1.47089 35.8753C0.832122 35.2366 0.473267 34.3702 0.473267 33.4669V6.21809C0.473267 5.31474 0.832122 4.44838 1.47089 3.80961C2.10966 3.17085 2.97601 2.81199 3.87936 2.81199H7.47847ZM10.6916 2.81199C10.3904 2.81199 10.1017 2.93161 9.88873 3.14453C9.67581 3.35746 9.55619 3.64624 9.55619 3.94736C9.55619 4.24848 9.67581 4.53726 9.88873 4.75018C10.1017 4.9631 10.3904 5.08272 10.6916 5.08272H17.5038C17.8049 5.08272 18.0937 4.9631 18.3066 4.75018C18.5195 4.53726 18.6391 4.24848 18.6391 3.94736C18.6391 3.64624 18.5195 3.35746 18.3066 3.14453C18.0937 2.93161 17.8049 2.81199 17.5038 2.81199H10.6916ZM7.47847 5.08272H3.87936C3.57825 5.08272 3.28946 5.20234 3.07654 5.41527C2.86362 5.62819 2.744 5.91697 2.744 6.21809V33.4669C2.744 33.768 2.86362 34.0568 3.07654 34.2697C3.28946 34.4826 3.57825 34.6022 3.87936 34.6022H24.3159C24.6171 34.6022 24.9059 34.4826 25.1188 34.2697C25.3317 34.0568 25.4513 33.768 25.4513 33.4669V6.21809C25.4513 5.91697 25.3317 5.62819 25.1188 5.41527C24.9059 5.20234 24.6171 5.08272 24.3159 5.08272H20.7168C20.482 5.74709 20.0468 6.32225 19.4713 6.72894C18.8959 7.13563 18.2084 7.35382 17.5038 7.35346H10.6916C9.98689 7.35382 9.29946 7.13563 8.72399 6.72894C8.14853 6.32225 7.71336 5.74709 7.47847 5.08272Z" fill="black"/>
</svg>
