<svg width="24" height="25" viewBox="0 0 24 25" fill="none" xmlns="http://www.w3.org/2000/svg">
<path d="M3 19.2171C3 19.7561 3.21411 20.273 3.59523 20.6541C3.97636 21.0352 4.49327 21.2494 5.03226 21.2494H18.9677C19.5067 21.2494 20.0236 21.0352 20.4048 20.6541C20.7859 20.273 21 19.7561 21 19.2171V13.4106C21 12.8717 20.7859 12.3547 20.4048 11.9736C20.0236 11.5925 19.5067 11.3784 18.9677 11.3784H16.9123C16.9269 11.2823 16.9347 11.1853 16.9355 11.0881V5.28162C16.9355 4.74263 16.7214 4.22572 16.3402 3.84459C15.9591 3.46347 15.4422 3.24936 14.9032 3.24936H9.09677C8.55779 3.24936 8.04087 3.46347 7.65975 3.84459C7.27863 4.22572 7.06452 4.74263 7.06452 5.28162V11.0881C7.0653 11.1853 7.07307 11.2823 7.08774 11.3784H5.03226C4.49327 11.3784 3.97636 11.5925 3.59523 11.9736C3.21411 12.3547 3 12.8717 3 13.4106V19.2171ZM19.2581 13.4106V19.2171C19.2581 19.2941 19.2275 19.3679 19.173 19.4224C19.1186 19.4768 19.0447 19.5074 18.9677 19.5074H12.871V13.1203H15.1935V15.7332H16.9355V13.1203H18.9677C19.0447 13.1203 19.1186 13.1509 19.173 13.2054C19.2275 13.2598 19.2581 13.3337 19.2581 13.4106ZM8.80645 11.0881V5.28162C8.80645 5.20462 8.83704 5.13077 8.89148 5.07633C8.94593 5.02188 9.01978 4.99129 9.09677 4.99129H11.129V7.6042H12.871V4.99129H14.9032C14.9802 4.99129 15.0541 5.02188 15.1085 5.07633C15.163 5.13077 15.1935 5.20462 15.1935 5.28162V11.0881C15.1935 11.1651 15.163 11.2389 15.1085 11.2934C15.0541 11.3478 14.9802 11.3784 14.9032 11.3784H9.09677C9.01978 11.3784 8.94593 11.3478 8.89148 11.2934C8.83704 11.2389 8.80645 11.1651 8.80645 11.0881ZM4.74194 13.4106C4.74194 13.3337 4.77252 13.2598 4.82697 13.2054C4.88141 13.1509 4.95526 13.1203 5.03226 13.1203H7.06452V15.7332H8.80645V13.1203H11.129V19.5074H5.03226C4.95526 19.5074 4.88141 19.4768 4.82697 19.4224C4.77252 19.3679 4.74194 19.2941 4.74194 19.2171V13.4106Z" fill="black"/>
</svg>
