<svg width="71" height="71" viewBox="0 0 71 71" fill="none" xmlns="http://www.w3.org/2000/svg">
<rect x="0.658325" y="0.658325" width="69.6483" height="69.6483" rx="21.1055" fill="#FFECEC"/>
<path d="M24.4022 30.7337H38.1208V27.5679H24.4022V30.7337Z" fill="black"/>
<path d="M38.1208 37.0654H24.4022V33.8996H38.1208V37.0654Z" fill="black"/>
<path d="M24.4022 43.3971H31.7891V40.2312H24.4022V43.3971Z" fill="black"/>
<path fill-rule="evenodd" clip-rule="evenodd" d="M18.5981 19.6533V45.5076C18.5981 49.2959 21.6692 52.3669 25.4574 52.3669H44.9801C48.7684 52.3669 51.8394 49.2959 51.8394 45.5076V39.176H44.9801V19.6533H18.5981ZM44.9801 49.2011V42.3418H48.6736V45.5076C48.6736 47.5475 47.0199 49.2011 44.9801 49.2011ZM41.8142 49.2011H25.4574C23.4176 49.2011 21.764 47.5475 21.764 45.5076V22.8192H41.8142V49.2011Z" fill="black"/>
</svg>
