<svg width="24" height="24" viewBox="0 0 24 24" fill="none" xmlns="http://www.w3.org/2000/svg">
<path d="M8.51611 18.6774H6.19354C5.34656 18.6774 4.53427 18.3409 3.93537 17.742C3.33646 17.1431 3 16.3308 3 15.4838V6.19355C3 5.34657 3.33646 4.53428 3.93537 3.93537C4.53427 3.33647 5.34656 3.00001 6.19354 3.00001H15.4838C16.3308 3.00001 17.1431 3.33647 17.742 3.93537C18.3409 4.53428 18.6774 5.34657 18.6774 6.19355V9.96773H16.9354V6.19355C16.9354 5.80856 16.7825 5.43933 16.5103 5.1671C16.2381 4.89488 15.8688 4.74194 15.4838 4.74194H11.7097V7.93548H9.96772V4.74194H6.19354C5.80855 4.74194 5.43933 4.89488 5.1671 5.1671C4.89487 5.43933 4.74193 5.80856 4.74193 6.19355V15.4838C4.74193 15.8688 4.89487 16.2381 5.1671 16.5103C5.43933 16.7825 5.80855 16.9355 6.19354 16.9355H8.51611V18.6774Z" fill="black"/>
<path fill-rule="evenodd" clip-rule="evenodd" d="M12.5806 11.7097H18.9677C19.5067 11.7097 20.0236 11.9238 20.4047 12.3049C20.7858 12.686 20.9999 13.2029 20.9999 13.7419V19.5483C20.9999 20.0873 20.7858 20.6042 20.4047 20.9854C20.0236 21.3665 19.5067 21.5806 18.9677 21.5806H12.5806C12.0416 21.5806 11.5247 21.3665 11.1436 20.9854C10.7625 20.6042 10.5483 20.0873 10.5483 19.5483V13.7419C10.5483 13.2029 10.7625 12.686 11.1436 12.3049C11.5247 11.9238 12.0416 11.7097 12.5806 11.7097ZM19.173 19.7536C19.2274 19.6992 19.258 19.6253 19.258 19.5483V13.7419C19.258 13.6649 19.2274 13.5911 19.173 13.5366C19.1185 13.4822 19.0447 13.4516 18.9677 13.4516H16.6451V16.0645H14.9032V13.4516H12.5806C12.5036 13.4516 12.4298 13.4822 12.3753 13.5366C12.3209 13.5911 12.2903 13.6649 12.2903 13.7419V19.5483C12.2903 19.6253 12.3209 19.6992 12.3753 19.7536C12.4298 19.8081 12.5036 19.8387 12.5806 19.8387H18.9677C19.0447 19.8387 19.1185 19.8081 19.173 19.7536Z" fill="black"/>
</svg>
