<svg width="71" height="71" viewBox="0 0 71 71" fill="none" xmlns="http://www.w3.org/2000/svg">
<rect x="0.904205" y="0.658325" width="69.6483" height="69.6483" rx="21.1055" fill="#FFECEC"/>
<path d="M25.7628 46.9032H30.1711V42.9374H25.7628C25.2595 42.9374 24.7767 42.7375 24.4208 42.3816C24.0649 42.0257 23.865 41.543 23.865 41.0397V25.5169C23.865 25.0136 24.0649 24.5309 24.4208 24.175C24.7767 23.8191 25.2595 23.6191 25.7628 23.6191H31.5413V28.9551H35.5071V23.6191H41.2855C41.7889 23.6191 42.2716 23.8191 42.6275 24.175C42.9834 24.5309 43.1833 25.0136 43.1833 25.5169V32.3507H47.1491V25.5169C47.1491 23.9618 46.5313 22.4704 45.4317 21.3707C44.3321 20.2711 42.8407 19.6533 41.2855 19.6533H25.7628C24.2077 19.6533 22.7162 20.2711 21.6166 21.3707C20.517 22.4704 19.8992 23.9618 19.8992 25.5169V41.0397C19.8992 42.5948 20.517 44.0862 21.6166 45.1858C22.7162 46.2855 24.2077 46.9032 25.7628 46.9032Z" fill="black"/>
<path fill-rule="evenodd" clip-rule="evenodd" d="M47.1065 34.2059H36.4346C35.3941 34.2059 34.3962 34.6192 33.6605 35.355C32.9247 36.0907 32.5114 37.0886 32.5114 38.1291V47.8309C32.5114 48.8714 32.9247 49.8693 33.6605 50.605C34.3962 51.3408 35.3941 51.7541 36.4346 51.7541H47.1065C48.147 51.7541 49.1449 51.3408 49.8807 50.605C50.6164 49.8693 51.0298 48.8714 51.0298 47.8309V38.1291C51.0298 37.0886 50.6164 36.0907 49.8807 35.355C49.1449 34.6192 48.147 34.2059 47.1065 34.2059ZM43.7535 42.5375V38.1717H47.064V47.7883H36.4772V38.1717H39.7877V42.5375H43.7535Z" fill="black"/>
</svg>
