<svg width="27" height="29" viewBox="0 0 27 29" fill="none" xmlns="http://www.w3.org/2000/svg">
<mask id="path-1-outside-1" maskUnits="userSpaceOnUse" x="-0.552193" y="-0.341887" width="28" height="30" fill="black">
<rect fill="white" x="-0.552193" y="-0.341887" width="28" height="30"/>
<path fill-rule="evenodd" clip-rule="evenodd" d="M5.2056 4.39568V1.67813C5.2056 1.4076 5.09814 1.14816 4.90685 0.956868C4.71556 0.765578 4.45611 0.658113 4.18559 0.658113C3.91507 0.658113 3.65562 0.765578 3.46433 0.956868C3.27304 1.14816 3.16558 1.4076 3.16558 1.67813V4.39568C2.41206 4.60724 1.7428 5.05134 1.25462 5.66664C0.732155 6.32515 0.447807 7.14103 0.447807 7.98163C0.447807 8.82223 0.732155 9.63811 1.25462 10.2966C1.7428 10.9119 2.41206 11.356 3.16558 11.5676V27.6943C3.16558 27.9648 3.27304 28.2243 3.46433 28.4156C3.65562 28.6069 3.91507 28.7143 4.18559 28.7143C4.45611 28.7143 4.71556 28.6069 4.90685 28.4156C5.09814 28.2243 5.2056 27.9648 5.2056 27.6943V11.5676C5.95912 11.356 6.62838 10.9119 7.11656 10.2966C7.63903 9.63811 7.92337 8.82223 7.92337 7.98163C7.92337 7.14103 7.63903 6.32515 7.11656 5.66664C6.62838 5.05134 5.95912 4.60724 5.2056 4.39568ZM5.8756 7.98163C5.8756 7.64738 5.77648 7.32064 5.59078 7.04272C5.40508 6.7648 5.14113 6.54818 4.83233 6.42027C4.52352 6.29236 4.18372 6.25889 3.85589 6.3241C3.52806 6.38931 3.22693 6.55027 2.99058 6.78662C2.75422 7.02297 2.59327 7.3241 2.52806 7.65193C2.46285 7.97976 2.49632 8.31956 2.62423 8.62837C2.75214 8.93718 2.96875 9.20112 3.24667 9.38682C3.52459 9.57252 3.85134 9.67164 4.18559 9.67164H4.20604C4.65049 9.66626 5.07495 9.486 5.38745 9.16988C5.70022 8.85349 5.87562 8.42652 5.8756 7.98163Z"/>
<path fill-rule="evenodd" clip-rule="evenodd" d="M14.6329 18.4878V1.67813C14.6329 1.4076 14.5254 1.14816 14.3341 0.956868C14.1429 0.765578 13.8834 0.658113 13.6129 0.658113C13.3424 0.658113 13.0829 0.765578 12.8916 0.956868C12.7003 1.14816 12.5929 1.4076 12.5929 1.67813V18.4878C11.8394 18.6993 11.1701 19.1434 10.6819 19.7587C10.1594 20.4173 9.8751 21.2331 9.8751 22.0737C9.8751 22.9143 10.1594 23.7302 10.6819 24.3887C11.1701 25.004 11.8394 25.4481 12.5929 25.6597V27.6943C12.5929 27.9648 12.7003 28.2243 12.8916 28.4156C13.0829 28.6069 13.3424 28.7143 13.6129 28.7143C13.8834 28.7143 14.1429 28.6069 14.3341 28.4156C14.5254 28.2243 14.6329 27.9648 14.6329 27.6943V25.6597C15.3864 25.4481 16.0557 25.004 16.5439 24.3887C17.0663 23.7302 17.3507 22.9143 17.3507 22.0737C17.3507 21.2331 17.0663 20.4173 16.5439 19.7587C16.0557 19.1434 15.3864 18.6993 14.6329 18.4878ZM12.674 23.4789C12.9519 23.6646 13.2786 23.7637 13.6129 23.7637C14.0611 23.7637 14.491 23.5857 14.8079 23.2687C15.1248 22.9518 15.3029 22.5219 15.3029 22.0737C15.3029 21.7395 15.2038 21.4127 15.0181 21.1348C14.8324 20.8569 14.5684 20.6403 14.2596 20.5124C13.9508 20.3845 13.611 20.351 13.2832 20.4162C12.9553 20.4814 12.6542 20.6424 12.4179 20.8787C12.1815 21.1151 12.0206 21.4162 11.9554 21.744C11.8901 22.0719 11.9236 22.4117 12.0515 22.7205C12.1794 23.0293 12.396 23.2932 12.674 23.4789Z"/>
<path fill-rule="evenodd" clip-rule="evenodd" d="M26.7702 13.4013C26.7686 12.5625 26.4847 11.7486 25.9642 11.0908C25.4779 10.476 24.8113 10.0309 24.0602 9.81647V1.67813C24.0602 1.4076 23.9527 1.14816 23.7614 0.956868C23.5701 0.765578 23.3107 0.658113 23.0401 0.658113C22.7696 0.658113 22.5102 0.765578 22.3189 0.956868C22.1276 1.14816 22.0201 1.4076 22.0201 1.67813V9.81572C21.2666 10.0273 20.5974 10.4714 20.1092 11.0867C19.5867 11.7452 19.3024 12.5611 19.3024 13.4017C19.3024 14.2423 19.5867 15.0581 20.1092 15.7167C20.5974 16.332 21.2666 16.7761 22.0201 16.9876V27.6943C22.0201 27.9648 22.1276 28.2243 22.3189 28.4156C22.5102 28.6069 22.7696 28.7143 23.0401 28.7143C23.3107 28.7143 23.5701 28.6069 23.7614 28.4156C23.9527 28.2243 24.0602 27.9648 24.0602 27.6943V16.9869C24.8113 16.7724 25.4779 16.3274 25.9642 15.7126C26.4847 15.0547 26.7686 14.2401 26.7702 13.4013ZM23.0402 28.5073C23.0402 28.5073 23.0402 28.5073 23.0402 28.5073V28.5073ZM23.0401 15.2987C23.0329 15.2987 23.0257 15.2986 23.0185 15.2986L23.0401 15.2987ZM23.0655 15.2986C23.0571 15.2988 23.0486 15.2987 23.0401 15.2987L23.0655 15.2986ZM23.0401 15.0917C22.7059 15.0917 22.3791 14.9926 22.1012 14.8069C21.8233 14.6212 21.6067 14.3572 21.4788 14.0484C21.3509 13.7396 21.3174 13.3998 21.3826 13.072C21.4478 12.7441 21.6088 12.443 21.8451 12.2067C22.0815 11.9703 22.3826 11.8093 22.7104 11.7441C23.0383 11.6789 23.3781 11.7124 23.6869 11.8403C23.9957 11.9682 24.2596 12.1848 24.4453 12.4628C24.631 12.7407 24.7301 13.0674 24.7301 13.4017C24.7302 13.6253 24.6858 13.8466 24.5997 14.0529C24.5135 14.2592 24.3873 14.4464 24.2283 14.6036C24.0694 14.7608 23.8808 14.8848 23.6735 14.9686C23.4722 15.05 23.2571 15.0917 23.0401 15.0917Z"/>
</mask>
<path fill-rule="evenodd" clip-rule="evenodd" d="M5.2056 4.39568V1.67813C5.2056 1.4076 5.09814 1.14816 4.90685 0.956868C4.71556 0.765578 4.45611 0.658113 4.18559 0.658113C3.91507 0.658113 3.65562 0.765578 3.46433 0.956868C3.27304 1.14816 3.16558 1.4076 3.16558 1.67813V4.39568C2.41206 4.60724 1.7428 5.05134 1.25462 5.66664C0.732155 6.32515 0.447807 7.14103 0.447807 7.98163C0.447807 8.82223 0.732155 9.63811 1.25462 10.2966C1.7428 10.9119 2.41206 11.356 3.16558 11.5676V27.6943C3.16558 27.9648 3.27304 28.2243 3.46433 28.4156C3.65562 28.6069 3.91507 28.7143 4.18559 28.7143C4.45611 28.7143 4.71556 28.6069 4.90685 28.4156C5.09814 28.2243 5.2056 27.9648 5.2056 27.6943V11.5676C5.95912 11.356 6.62838 10.9119 7.11656 10.2966C7.63903 9.63811 7.92337 8.82223 7.92337 7.98163C7.92337 7.14103 7.63903 6.32515 7.11656 5.66664C6.62838 5.05134 5.95912 4.60724 5.2056 4.39568ZM5.8756 7.98163C5.8756 7.64738 5.77648 7.32064 5.59078 7.04272C5.40508 6.7648 5.14113 6.54818 4.83233 6.42027C4.52352 6.29236 4.18372 6.25889 3.85589 6.3241C3.52806 6.38931 3.22693 6.55027 2.99058 6.78662C2.75422 7.02297 2.59327 7.3241 2.52806 7.65193C2.46285 7.97976 2.49632 8.31956 2.62423 8.62837C2.75214 8.93718 2.96875 9.20112 3.24667 9.38682C3.52459 9.57252 3.85134 9.67164 4.18559 9.67164H4.20604C4.65049 9.66626 5.07495 9.486 5.38745 9.16988C5.70022 8.85349 5.87562 8.42652 5.8756 7.98163Z" fill="black"/>
<path fill-rule="evenodd" clip-rule="evenodd" d="M14.6329 18.4878V1.67813C14.6329 1.4076 14.5254 1.14816 14.3341 0.956868C14.1429 0.765578 13.8834 0.658113 13.6129 0.658113C13.3424 0.658113 13.0829 0.765578 12.8916 0.956868C12.7003 1.14816 12.5929 1.4076 12.5929 1.67813V18.4878C11.8394 18.6993 11.1701 19.1434 10.6819 19.7587C10.1594 20.4173 9.8751 21.2331 9.8751 22.0737C9.8751 22.9143 10.1594 23.7302 10.6819 24.3887C11.1701 25.004 11.8394 25.4481 12.5929 25.6597V27.6943C12.5929 27.9648 12.7003 28.2243 12.8916 28.4156C13.0829 28.6069 13.3424 28.7143 13.6129 28.7143C13.8834 28.7143 14.1429 28.6069 14.3341 28.4156C14.5254 28.2243 14.6329 27.9648 14.6329 27.6943V25.6597C15.3864 25.4481 16.0557 25.004 16.5439 24.3887C17.0663 23.7302 17.3507 22.9143 17.3507 22.0737C17.3507 21.2331 17.0663 20.4173 16.5439 19.7587C16.0557 19.1434 15.3864 18.6993 14.6329 18.4878ZM12.674 23.4789C12.9519 23.6646 13.2786 23.7637 13.6129 23.7637C14.0611 23.7637 14.491 23.5857 14.8079 23.2687C15.1248 22.9518 15.3029 22.5219 15.3029 22.0737C15.3029 21.7395 15.2038 21.4127 15.0181 21.1348C14.8324 20.8569 14.5684 20.6403 14.2596 20.5124C13.9508 20.3845 13.611 20.351 13.2832 20.4162C12.9553 20.4814 12.6542 20.6424 12.4179 20.8787C12.1815 21.1151 12.0206 21.4162 11.9554 21.744C11.8901 22.0719 11.9236 22.4117 12.0515 22.7205C12.1794 23.0293 12.396 23.2932 12.674 23.4789Z" fill="black"/>
<path fill-rule="evenodd" clip-rule="evenodd" d="M26.7702 13.4013C26.7686 12.5625 26.4847 11.7486 25.9642 11.0908C25.4779 10.476 24.8113 10.0309 24.0602 9.81647V1.67813C24.0602 1.4076 23.9527 1.14816 23.7614 0.956868C23.5701 0.765578 23.3107 0.658113 23.0401 0.658113C22.7696 0.658113 22.5102 0.765578 22.3189 0.956868C22.1276 1.14816 22.0201 1.4076 22.0201 1.67813V9.81572C21.2666 10.0273 20.5974 10.4714 20.1092 11.0867C19.5867 11.7452 19.3024 12.5611 19.3024 13.4017C19.3024 14.2423 19.5867 15.0581 20.1092 15.7167C20.5974 16.332 21.2666 16.7761 22.0201 16.9876V27.6943C22.0201 27.9648 22.1276 28.2243 22.3189 28.4156C22.5102 28.6069 22.7696 28.7143 23.0401 28.7143C23.3107 28.7143 23.5701 28.6069 23.7614 28.4156C23.9527 28.2243 24.0602 27.9648 24.0602 27.6943V16.9869C24.8113 16.7724 25.4779 16.3274 25.9642 15.7126C26.4847 15.0547 26.7686 14.2401 26.7702 13.4013ZM23.0402 28.5073C23.0402 28.5073 23.0402 28.5073 23.0402 28.5073V28.5073ZM23.0401 15.2987C23.0329 15.2987 23.0257 15.2986 23.0185 15.2986L23.0401 15.2987ZM23.0655 15.2986C23.0571 15.2988 23.0486 15.2987 23.0401 15.2987L23.0655 15.2986ZM23.0401 15.0917C22.7059 15.0917 22.3791 14.9926 22.1012 14.8069C21.8233 14.6212 21.6067 14.3572 21.4788 14.0484C21.3509 13.7396 21.3174 13.3998 21.3826 13.072C21.4478 12.7441 21.6088 12.443 21.8451 12.2067C22.0815 11.9703 22.3826 11.8093 22.7104 11.7441C23.0383 11.6789 23.3781 11.7124 23.6869 11.8403C23.9957 11.9682 24.2596 12.1848 24.4453 12.4628C24.631 12.7407 24.7301 13.0674 24.7301 13.4017C24.7302 13.6253 24.6858 13.8466 24.5997 14.0529C24.5135 14.2592 24.3873 14.4464 24.2283 14.6036C24.0694 14.7608 23.8808 14.8848 23.6735 14.9686C23.4722 15.05 23.2571 15.0917 23.0401 15.0917Z" fill="black"/>
<path d="M22.4653 28.2692L22.4025 28.3319L22.4653 28.2692ZM22.2271 16.8271H22.3159V16.7567L22.2473 16.7407L22.2271 16.8271ZM20.2713 11.2153L20.3408 11.2705L20.2713 11.2153ZM22.2271 9.9762L22.2473 10.0626L22.3159 10.0466V9.9762H22.2271ZM22.4653 1.10324L22.4025 1.04051V1.04051L22.4653 1.10324ZM23.0401 15.2987L23.0396 15.3874L23.0403 15.3874L23.0401 15.2987ZM23.7511 15.1606L23.7843 15.2428L23.7511 15.1606ZM24.3739 14.7508L24.3115 14.6877L24.3739 14.7508ZM24.7907 14.1327L24.7088 14.0985L24.7907 14.1327ZM24.9372 13.4017H24.8484V13.4017L24.9372 13.4017ZM24.6174 12.3477L24.6912 12.2985V12.2985L24.6174 12.3477ZM23.7661 11.6491L23.7321 11.731V11.731L23.7661 11.6491ZM26.77 13.3126L26.563 13.313L26.5634 13.4904L26.7703 13.49L26.77 13.3126ZM22.9955 28.5949C23.0103 28.5957 23.0252 28.596 23.0402 28.596V28.4186C23.0282 28.4186 23.0162 28.4183 23.0043 28.4177L22.9955 28.5949ZM22.6093 28.2765C22.5806 28.2553 22.5534 28.2319 22.528 28.2065L22.4025 28.3319C22.4343 28.3637 22.4681 28.3927 22.5037 28.4191L22.6093 28.2765ZM22.528 28.2065C22.3922 28.0706 22.3159 27.8864 22.3159 27.6943H22.1384C22.1384 27.9335 22.2334 28.1628 22.4025 28.3319L22.528 28.2065ZM22.3159 27.6943V16.8271H22.1384V27.6943H22.3159ZM22.2473 16.7407C21.4937 16.5648 20.8218 16.1391 20.3408 15.5329L20.2018 15.6431C20.7077 16.2807 21.4144 16.7285 22.207 16.9135L22.2473 16.7407ZM20.3408 15.5329C19.8599 14.9266 19.5981 14.1755 19.5981 13.4017H19.4206C19.4206 14.2156 19.696 15.0055 20.2018 15.6431L20.3408 15.5329ZM19.5981 13.4017C19.5981 12.6278 19.8599 11.8767 20.3408 11.2705L20.2018 11.1602C19.696 11.7978 19.4206 12.5878 19.4206 13.4017H19.5981ZM20.3408 11.2705C20.8218 10.6643 21.4937 10.2386 22.2473 10.0626L22.207 9.88981C21.4144 10.0749 20.7077 10.5226 20.2018 11.1602L20.3408 11.2705ZM22.3159 9.9762V1.67813H22.1384V9.9762H22.3159ZM22.3159 1.67813C22.3159 1.48603 22.3922 1.30181 22.528 1.16598L22.4025 1.04051C22.2334 1.20962 22.1384 1.43898 22.1384 1.67813H22.3159ZM22.528 1.16598C22.6468 1.04712 22.8028 0.97384 22.9686 0.957384L22.9511 0.780815C22.7446 0.801303 22.5505 0.892532 22.4025 1.04051L22.528 1.16598ZM23.0406 15.21L23.019 15.2098L23.018 15.3873L23.0396 15.3874L23.0406 15.21ZM23.0403 15.3874L23.0657 15.3874L23.0654 15.2099L23.04 15.21L23.0403 15.3874ZM23.7178 15.0783C23.675 15.0956 23.6315 15.1113 23.5876 15.1252L23.6413 15.2943C23.6896 15.279 23.7373 15.2618 23.7843 15.2428L23.7178 15.0783ZM24.3115 14.6877C24.1414 14.8559 23.9396 14.9887 23.7178 15.0783L23.7843 15.2428C24.0279 15.1444 24.2495 14.9986 24.4363 14.8139L24.3115 14.6877ZM24.7088 14.0985C24.6167 14.3192 24.4816 14.5195 24.3115 14.6877L24.4363 14.8139C24.6231 14.6292 24.7714 14.4093 24.8726 14.1668L24.7088 14.0985ZM24.8484 13.4017C24.8484 13.6409 24.801 13.8777 24.7088 14.0985L24.8726 14.1669C24.9738 13.9244 25.0259 13.6644 25.0259 13.4017L24.8484 13.4017ZM24.5437 12.397C24.7424 12.6944 24.8484 13.044 24.8484 13.4017H25.0259C25.0259 13.0089 24.9094 12.625 24.6912 12.2985L24.5437 12.397ZM23.7321 11.731C24.0626 11.8679 24.345 12.0997 24.5437 12.397L24.6912 12.2985C24.473 11.9719 24.1629 11.7174 23.8 11.5671L23.7321 11.731ZM23.4789 11.6474C23.5649 11.6689 23.6495 11.6968 23.7321 11.731L23.8 11.5671C23.7094 11.5295 23.6164 11.4989 23.5219 11.4753L23.4789 11.6474ZM5.2056 4.39568H5.02817V4.53016L5.15764 4.56651L5.2056 4.39568ZM4.90685 0.956868L5.03232 0.831402V0.831402L4.90685 0.956868ZM3.46433 0.956868L3.33886 0.831402V0.831402L3.46433 0.956868ZM3.16558 4.39568L3.21354 4.56651L3.34301 4.53016V4.39568H3.16558ZM1.25462 5.66664L1.39362 5.77693L1.25462 5.66664ZM1.25462 10.2966L1.11562 10.4069L1.25462 10.2966ZM3.16558 11.5676H3.34301V11.4331L3.21354 11.3967L3.16558 11.5676ZM4.90685 28.4156L5.03232 28.541H5.03232L4.90685 28.4156ZM5.2056 11.5676L5.15764 11.3967L5.02817 11.4331V11.5676H5.2056ZM7.11656 10.2966L6.97756 10.1863L7.11656 10.2966ZM7.11656 5.66664L6.97756 5.77693V5.77693L7.11656 5.66664ZM5.8756 7.98163H5.69816V7.98164L5.8756 7.98163ZM4.83233 6.42027L4.90023 6.25634L4.83233 6.42027ZM3.85589 6.3241L3.82127 6.15007L3.85589 6.3241ZM2.99058 6.78662L2.86511 6.66115L2.99058 6.78662ZM2.52806 7.65193L2.70208 7.68654V7.68654L2.52806 7.65193ZM2.62423 8.62837L2.4603 8.69627L2.62423 8.62837ZM4.20604 9.67164V9.84908L4.20819 9.84906L4.20604 9.67164ZM5.38745 9.16988L5.51364 9.29462L5.38745 9.16988ZM14.6329 18.4878H14.4555V18.6223L14.5849 18.6586L14.6329 18.4878ZM14.3341 0.956868L14.4596 0.831401V0.831401L14.3341 0.956868ZM12.8916 0.956868L12.7662 0.831401L12.7662 0.831402L12.8916 0.956868ZM12.5929 18.4878L12.6408 18.6586L12.7703 18.6223V18.4878H12.5929ZM10.6819 19.7587L10.8209 19.869L10.6819 19.7587ZM10.6819 24.3887L10.5429 24.499L10.6819 24.3887ZM12.5929 25.6597H12.7703V25.5252L12.6408 25.4888L12.5929 25.6597ZM14.6329 25.6597L14.5849 25.4888L14.4555 25.5252V25.6597H14.6329ZM16.5439 24.3887L16.6829 24.499L16.5439 24.3887ZM16.5439 19.7587L16.4049 19.869L16.5439 19.7587ZM15.0181 21.1348L15.1656 21.0362L15.0181 21.1348ZM14.2596 20.5124L14.1917 20.6763L14.2596 20.5124ZM13.2832 20.4162L13.3178 20.5902H13.3178L13.2832 20.4162ZM11.9554 21.744L11.7813 21.7094L11.9554 21.744ZM26.7702 13.4013L26.9476 13.4016L26.9476 13.4009L26.7702 13.4013ZM25.9642 11.0908L26.1034 10.9807L25.9642 11.0908ZM24.0602 9.81647H23.8827V9.95034L24.0114 9.98709L24.0602 9.81647ZM23.7614 0.956868L23.8869 0.831402V0.831401L23.7614 0.956868ZM22.3189 0.956868L22.4443 1.08233V1.08233L22.3189 0.956868ZM22.0201 9.81572L22.0681 9.98655L22.1976 9.9502V9.81572H22.0201ZM20.1092 11.0867L19.9702 10.9764L20.1092 11.0867ZM20.1092 15.7167L20.2482 15.6064L20.1092 15.7167ZM22.0201 16.9876H22.1976V16.8531L22.0681 16.8168L22.0201 16.9876ZM24.0602 16.9869L24.0114 16.8163L23.8827 16.853V16.9869H24.0602ZM25.9642 15.7126L26.1034 15.8227V15.8227L25.9642 15.7126ZM22.1012 14.8069L22.1998 14.6593L22.1012 14.8069ZM21.3826 13.072L21.5566 13.1066V13.1066L21.3826 13.072ZM22.7104 11.7441L22.7451 11.9182H22.7451L22.7104 11.7441ZM23.6869 11.8403L23.7548 11.6764H23.7548L23.6869 11.8403ZM24.4453 12.4628L24.2978 12.5613L24.4453 12.4628ZM24.7301 13.4017H24.5527V13.4017L24.7301 13.4017ZM24.5997 14.0529L24.4359 13.9846V13.9846L24.5997 14.0529ZM24.2283 14.6036L24.1036 14.4774L24.1036 14.4774L24.2283 14.6036ZM23.6735 14.9686L23.74 15.1331H23.74L23.6735 14.9686ZM5.02817 1.67813V4.39568H5.38304V1.67813H5.02817ZM4.78138 1.08233C4.9394 1.24035 5.02817 1.45466 5.02817 1.67813H5.38304C5.38304 1.36054 5.25688 1.05597 5.03232 0.831402L4.78138 1.08233ZM4.18559 0.835548C4.40906 0.835548 4.62337 0.92432 4.78138 1.08233L5.03232 0.831402C4.80775 0.606836 4.50317 0.480677 4.18559 0.480677V0.835548ZM3.5898 1.08233C3.74781 0.92432 3.96212 0.835548 4.18559 0.835548V0.480677C3.86801 0.480677 3.56343 0.606836 3.33886 0.831402L3.5898 1.08233ZM3.34301 1.67813C3.34301 1.45466 3.43178 1.24035 3.5898 1.08233L3.33886 0.831402C3.1143 1.05597 2.98814 1.36054 2.98814 1.67813H3.34301ZM3.34301 4.39568V1.67813H2.98814V4.39568H3.34301ZM1.39362 5.77693C1.85855 5.19093 2.49592 4.76799 3.21354 4.56651L3.11761 4.22485C2.3282 4.44649 1.62706 4.91174 1.11562 5.55636L1.39362 5.77693ZM0.625243 7.98163C0.625243 7.18108 0.896045 6.40407 1.39362 5.77693L1.11562 5.55636C0.568265 6.24624 0.270371 7.10099 0.270371 7.98163H0.625243ZM1.39362 10.1863C0.896045 9.5592 0.625243 8.78218 0.625243 7.98163H0.270371C0.270371 8.86227 0.568265 9.71702 1.11562 10.4069L1.39362 10.1863ZM3.21354 11.3967C2.49592 11.1953 1.85855 10.7723 1.39362 10.1863L1.11562 10.4069C1.62706 11.0515 2.3282 11.5168 3.11761 11.7384L3.21354 11.3967ZM3.34301 27.6943V11.5676H2.98814V27.6943H3.34301ZM3.5898 28.2901C3.43178 28.1321 3.34301 27.9178 3.34301 27.6943H2.98814C2.98814 28.0119 3.1143 28.3165 3.33886 28.541L3.5898 28.2901ZM4.18559 28.5369C3.96212 28.5369 3.74781 28.4481 3.5898 28.2901L3.33886 28.541C3.56343 28.7656 3.86801 28.8918 4.18559 28.8918V28.5369ZM4.78138 28.2901C4.62337 28.4481 4.40906 28.5369 4.18559 28.5369V28.8918C4.50317 28.8918 4.80775 28.7656 5.03232 28.541L4.78138 28.2901ZM5.02817 27.6943C5.02817 27.9178 4.9394 28.1321 4.78138 28.2901L5.03232 28.541C5.25688 28.3165 5.38304 28.0119 5.38304 27.6943H5.02817ZM5.02817 11.5676V27.6943H5.38304V11.5676H5.02817ZM6.97756 10.1863C6.51263 10.7723 5.87526 11.1953 5.15764 11.3967L5.25357 11.7384C6.04298 11.5168 6.74412 11.0515 7.25556 10.4069L6.97756 10.1863ZM7.74594 7.98163C7.74594 8.78218 7.47513 9.5592 6.97756 10.1863L7.25556 10.4069C7.80292 9.71702 8.10081 8.86227 8.10081 7.98163H7.74594ZM6.97756 5.77693C7.47514 6.40407 7.74594 7.18108 7.74594 7.98163H8.10081C8.10081 7.10099 7.80292 6.24624 7.25556 5.55636L6.97756 5.77693ZM5.15764 4.56651C5.87526 4.76799 6.51263 5.19093 6.97756 5.77693L7.25556 5.55636C6.74412 4.91174 6.04298 4.44649 5.25357 4.22485L5.15764 4.56651ZM5.44324 7.14129C5.60945 7.39003 5.69816 7.68247 5.69816 7.98163H6.05303C6.05303 7.61229 5.94351 7.25124 5.73831 6.94414L5.44324 7.14129ZM4.76442 6.5842C5.04081 6.69868 5.27704 6.89255 5.44324 7.14129L5.73831 6.94414C5.53311 6.63704 5.24146 6.39768 4.90023 6.25634L4.76442 6.5842ZM3.8905 6.49813C4.18391 6.43976 4.48804 6.46972 4.76443 6.5842L4.90023 6.25634C4.559 6.115 4.18352 6.07802 3.82127 6.15007L3.8905 6.49813ZM3.11604 6.91208C3.32758 6.70055 3.59709 6.55649 3.8905 6.49813L3.82127 6.15007C3.45902 6.22213 3.12628 6.39998 2.86511 6.66115L3.11604 6.91208ZM2.70208 7.68654C2.76045 7.39313 2.90451 7.12362 3.11604 6.91208L2.86511 6.66115C2.60394 6.92232 2.42609 7.25506 2.35403 7.61731L2.70208 7.68654ZM2.78816 8.56047C2.67368 8.28408 2.64372 7.97995 2.70208 7.68654L2.35403 7.61731C2.28198 7.97956 2.31896 8.35504 2.4603 8.69627L2.78816 8.56047ZM3.34525 9.23929C3.09651 9.07308 2.90264 8.83685 2.78816 8.56047L2.4603 8.69627C2.60164 9.0375 2.841 9.32915 3.1481 9.53435L3.34525 9.23929ZM4.18559 9.4942C3.88643 9.4942 3.59399 9.40549 3.34525 9.23929L3.1481 9.53435C3.45519 9.73955 3.81624 9.84907 4.18559 9.84907V9.4942ZM4.20604 9.4942H4.18559V9.84907H4.20604V9.4942ZM5.26127 9.04514C4.98157 9.32807 4.60168 9.4894 4.2039 9.49421L4.20819 9.84906C4.6993 9.84312 5.16832 9.64393 5.51364 9.29462L5.26127 9.04514ZM5.69816 7.98164C5.69818 8.37982 5.5412 8.76197 5.26127 9.04514L5.51364 9.29462C5.85925 8.94502 6.05306 8.47322 6.05303 7.98162L5.69816 7.98164ZM14.4555 1.67813V18.4878H14.8103V1.67813H14.4555ZM14.2087 1.08233C14.3667 1.24035 14.4555 1.45466 14.4555 1.67813H14.8103C14.8103 1.36054 14.6842 1.05597 14.4596 0.831401L14.2087 1.08233ZM13.6129 0.835548C13.8363 0.835548 14.0507 0.92432 14.2087 1.08233L14.4596 0.831401C14.235 0.606836 13.9305 0.480677 13.6129 0.480677V0.835548ZM13.0171 1.08233C13.1751 0.92432 13.3894 0.835548 13.6129 0.835548V0.480677C13.2953 0.480677 12.9907 0.606836 12.7662 0.831401L13.0171 1.08233ZM12.7703 1.67813C12.7703 1.45466 12.8591 1.24035 13.0171 1.08233L12.7662 0.831402C12.5416 1.05597 12.4154 1.36054 12.4154 1.67813H12.7703ZM12.7703 18.4878V1.67813H12.4154V18.4878H12.7703ZM10.8209 19.869C11.2858 19.283 11.9232 18.8601 12.6408 18.6586L12.5449 18.317C11.7555 18.5386 11.0544 19.0038 10.5429 19.6485L10.8209 19.869ZM10.0525 22.0737C10.0525 21.2732 10.3233 20.4962 10.8209 19.869L10.5429 19.6485C9.99556 20.3383 9.69766 21.1931 9.69766 22.0737H10.0525ZM10.8209 24.2784C10.3233 23.6513 10.0525 22.8743 10.0525 22.0737H9.69766C9.69766 22.9544 9.99556 23.8091 10.5429 24.499L10.8209 24.2784ZM12.6408 25.4888C11.9232 25.2874 11.2858 24.8644 10.8209 24.2784L10.5429 24.499C11.0544 25.1436 11.7555 25.6089 12.5449 25.8305L12.6408 25.4888ZM12.7703 27.6943V25.6597H12.4154V27.6943H12.7703ZM13.0171 28.2901C12.8591 28.1321 12.7703 27.9178 12.7703 27.6943H12.4154C12.4154 28.0119 12.5416 28.3165 12.7662 28.541L13.0171 28.2901ZM13.6129 28.5369C13.3894 28.5369 13.1751 28.4481 13.0171 28.2901L12.7662 28.541C12.9907 28.7656 13.2953 28.8918 13.6129 28.8918V28.5369ZM14.2087 28.2901C14.0507 28.4481 13.8363 28.5369 13.6129 28.5369V28.8918C13.9305 28.8918 14.235 28.7656 14.4596 28.541L14.2087 28.2901ZM14.4555 27.6943C14.4555 27.9178 14.3667 28.1321 14.2087 28.2901L14.4596 28.541C14.6842 28.3165 14.8103 28.0119 14.8103 27.6943H14.4555ZM14.4555 25.6597V27.6943H14.8103V25.6597H14.4555ZM16.4049 24.2784C15.9399 24.8644 15.3026 25.2874 14.5849 25.4888L14.6809 25.8305C15.4703 25.6089 16.1714 25.1436 16.6829 24.499L16.4049 24.2784ZM17.1732 22.0737C17.1732 22.8743 16.9024 23.6513 16.4049 24.2784L16.6829 24.499C17.2302 23.8091 17.5281 22.9544 17.5281 22.0737H17.1732ZM16.4049 19.869C16.9024 20.4962 17.1732 21.2732 17.1732 22.0737H17.5281C17.5281 21.1931 17.2302 20.3383 16.6829 19.6485L16.4049 19.869ZM14.5849 18.6586C15.3026 18.8601 15.9399 19.283 16.4049 19.869L16.6829 19.6485C16.1714 19.0038 15.4703 18.5386 14.6809 18.317L14.5849 18.6586ZM13.6129 23.5863C13.3137 23.5863 13.0213 23.4976 12.7725 23.3314L12.5754 23.6265C12.8825 23.8316 13.2435 23.9412 13.6129 23.9412V23.5863ZM14.6824 23.1433C14.3988 23.4269 14.014 23.5863 13.6129 23.5863V23.9412C14.1082 23.9412 14.5831 23.7444 14.9334 23.3942L14.6824 23.1433ZM15.1255 22.0737C15.1255 22.4749 14.9661 22.8596 14.6824 23.1433L14.9334 23.3942C15.2836 23.044 15.4803 22.569 15.4803 22.0737H15.1255ZM14.8705 21.2334C15.0367 21.4821 15.1255 21.7746 15.1255 22.0737H15.4803C15.4803 21.7044 15.3708 21.3433 15.1656 21.0362L14.8705 21.2334ZM14.1917 20.6763C14.4681 20.7908 14.7043 20.9847 14.8705 21.2334L15.1656 21.0362C14.9604 20.7291 14.6688 20.4898 14.3275 20.3484L14.1917 20.6763ZM13.3178 20.5902C13.6112 20.5319 13.9153 20.5618 14.1917 20.6763L14.3275 20.3484C13.9863 20.2071 13.6108 20.1701 13.2486 20.2422L13.3178 20.5902ZM12.5433 21.0042C12.7549 20.7926 13.0244 20.6486 13.3178 20.5902L13.2486 20.2422C12.8863 20.3142 12.5536 20.4921 12.2924 20.7532L12.5433 21.0042ZM12.1294 21.7786C12.1877 21.4852 12.3318 21.2157 12.5433 21.0042L12.2924 20.7532C12.0312 21.0144 11.8534 21.3472 11.7813 21.7094L12.1294 21.7786ZM12.2155 22.6526C12.101 22.3762 12.071 22.0721 12.1294 21.7786L11.7813 21.7094C11.7093 22.0717 11.7463 22.4471 11.8876 22.7884L12.2155 22.6526ZM12.7725 23.3314C12.5238 23.1652 12.3299 22.929 12.2155 22.6526L11.8876 22.7884C12.0289 23.1296 12.2683 23.4213 12.5754 23.6265L12.7725 23.3314ZM25.8251 11.2009C26.3208 11.8274 26.5912 12.6026 26.5927 13.4016L26.9476 13.4009C26.9459 12.5223 26.6486 11.6698 26.1034 10.9807L25.8251 11.2009ZM24.0114 9.98709C24.7269 10.1913 25.3618 10.6153 25.8251 11.2009L26.1034 10.9807C25.5939 10.3367 24.8957 9.87046 24.1089 9.64585L24.0114 9.98709ZM23.8827 1.67813V9.81647H24.2376V1.67813H23.8827ZM23.6359 1.08233C23.7939 1.24035 23.8827 1.45466 23.8827 1.67813H24.2376C24.2376 1.36054 24.1114 1.05597 23.8869 0.831402L23.6359 1.08233ZM23.0401 0.835548C23.2636 0.835548 23.4779 0.92432 23.6359 1.08233L23.8869 0.831401C23.6623 0.606836 23.3577 0.480677 23.0401 0.480677V0.835548ZM22.4443 1.08233C22.6024 0.92432 22.8167 0.835548 23.0401 0.835548V0.480677C22.7226 0.480677 22.418 0.606836 22.1934 0.831402L22.4443 1.08233ZM22.1976 1.67813C22.1976 1.45466 22.2863 1.24035 22.4443 1.08233L22.1934 0.831402C21.9688 1.05597 21.8427 1.36054 21.8427 1.67813H22.1976ZM22.1976 9.81572V1.67813H21.8427V9.81572H22.1976ZM20.2482 11.197C20.7131 10.611 21.3505 10.188 22.0681 9.98655L21.9722 9.64489C21.1827 9.86652 20.4816 10.3318 19.9702 10.9764L20.2482 11.197ZM19.4798 13.4017C19.4798 12.6011 19.7506 11.8241 20.2482 11.197L19.9702 10.9764C19.4228 11.6663 19.1249 12.521 19.1249 13.4017H19.4798ZM20.2482 15.6064C19.7506 14.9792 19.4798 14.2022 19.4798 13.4017H19.1249C19.1249 14.2823 19.4228 15.1371 19.9702 15.8269L20.2482 15.6064ZM22.0681 16.8168C21.3505 16.6153 20.7131 16.1924 20.2482 15.6064L19.9702 15.8269C20.4816 16.4716 21.1827 16.9368 21.9722 17.1584L22.0681 16.8168ZM22.1976 27.6943V16.9876H21.8427V27.6943H22.1976ZM22.4443 28.2901C22.2863 28.1321 22.1976 27.9178 22.1976 27.6943H21.8427C21.8427 28.0119 21.9688 28.3165 22.1934 28.541L22.4443 28.2901ZM23.0401 28.5369C22.8167 28.5369 22.6024 28.4481 22.4443 28.2901L22.1934 28.541C22.418 28.7656 22.7226 28.8918 23.0401 28.8918V28.5369ZM23.6359 28.2901C23.4779 28.4481 23.2636 28.5369 23.0401 28.5369V28.8918C23.3577 28.8918 23.6623 28.7656 23.8869 28.541L23.6359 28.2901ZM23.8827 27.6943C23.8827 27.9178 23.7939 28.1321 23.6359 28.2901L23.8869 28.541C24.1114 28.3165 24.2376 28.0119 24.2376 27.6943H23.8827ZM23.8827 16.9869V27.6943H24.2376V16.9869H23.8827ZM25.8251 15.6025C25.3618 16.1881 24.7269 16.612 24.0114 16.8163L24.1089 17.1575C24.8957 16.9329 25.5939 16.4667 26.1034 15.8227L25.8251 15.6025ZM26.5927 13.4009C26.5912 14.1999 26.3208 14.9759 25.8251 15.6025L26.1034 15.8227C26.6486 15.1335 26.9459 14.2802 26.9476 13.4016L26.5927 13.4009ZM23.0402 28.3299C23.0402 28.3299 23.0402 28.3299 23.0402 28.3299H23.0402C23.0402 28.5073 23.0402 28.6848 23.0402 28.6848H23.0402C23.0402 28.6848 23.0402 28.6848 23.0402 28.6848C23.0402 28.6848 23.0402 28.6848 23.0402 28.6848C23.0402 28.6848 23.0402 28.6848 23.0402 28.6848C23.0402 28.6848 23.0402 28.5073 23.0402 28.3299H23.0402C23.0402 28.3299 23.0402 28.3299 23.0402 28.3299V28.6848C23.0402 28.6848 23.0402 28.6848 23.0402 28.6848H23.0402C23.0402 28.5073 23.0402 28.3299 23.0402 28.3299C23.0402 28.3299 23.0402 28.3299 23.0402 28.3299C23.0402 28.3299 23.0402 28.3299 23.0402 28.3299C23.0402 28.3299 23.0402 28.3299 23.0402 28.3299H23.0402C23.0402 28.3299 23.0402 28.5073 23.0402 28.6848H23.0402C23.0402 28.6848 23.0402 28.6848 23.0402 28.6848V28.3299ZM23.0401 15.1212C23.0336 15.1212 23.0271 15.1212 23.0205 15.1211L23.0165 15.476C23.0243 15.4761 23.0322 15.4761 23.0401 15.4761V15.1212ZM23.0632 15.1212C23.0563 15.1213 23.0505 15.1212 23.0401 15.1212V15.4761C23.0467 15.4761 23.0579 15.4762 23.0679 15.4761L23.0632 15.1212ZM22.0026 14.9544C22.3097 15.1596 22.6708 15.2691 23.0401 15.2691V14.9142C22.741 14.9142 22.4485 14.8255 22.1998 14.6593L22.0026 14.9544ZM21.3148 14.1163C21.4562 14.4575 21.6955 14.7492 22.0026 14.9544L22.1998 14.6593C21.9511 14.4931 21.7572 14.2569 21.6427 13.9805L21.3148 14.1163ZM21.2086 13.0373C21.1365 13.3996 21.1735 13.7751 21.3148 14.1163L21.6427 13.9805C21.5282 13.7041 21.4983 13.4 21.5566 13.1066L21.2086 13.0373ZM21.7197 12.0812C21.4585 12.3424 21.2806 12.6751 21.2086 13.0373L21.5566 13.1066C21.615 12.8132 21.7591 12.5437 21.9706 12.3321L21.7197 12.0812ZM22.6758 11.5701C22.3136 11.6422 21.9808 11.82 21.7197 12.0812L21.9706 12.3321C22.1821 12.1206 22.4516 11.9765 22.7451 11.9182L22.6758 11.5701ZM23.7548 11.6764C23.4135 11.535 23.0381 11.4981 22.6758 11.5701L22.7451 11.9182C23.0385 11.8598 23.3426 11.8898 23.619 12.0042L23.7548 11.6764ZM24.5929 12.3642C24.3877 12.0571 24.096 11.8177 23.7548 11.6764L23.619 12.0042C23.8954 12.1187 24.1316 12.3126 24.2978 12.5613L24.5929 12.3642ZM24.9076 13.4017C24.9076 13.0323 24.7981 12.6713 24.5929 12.3642L24.2978 12.5613C24.464 12.8101 24.5527 13.1025 24.5527 13.4017H24.9076ZM24.7634 14.1213C24.8586 13.8933 24.9076 13.6487 24.9076 13.4017L24.5527 13.4017C24.5527 13.6018 24.513 13.7999 24.4359 13.9846L24.7634 14.1213ZM24.3531 14.7298C24.5288 14.5561 24.6682 14.3492 24.7634 14.1213L24.4359 13.9846C24.3588 14.1692 24.2459 14.3367 24.1036 14.4774L24.3531 14.7298ZM23.74 15.1331C23.969 15.0406 24.1774 14.9034 24.3531 14.7298L24.1036 14.4774C23.9613 14.6181 23.7925 14.7291 23.607 14.8041L23.74 15.1331ZM23.0401 15.2691C23.2799 15.2691 23.5175 15.2231 23.74 15.1331L23.607 14.8041C23.4269 14.8769 23.2344 14.9142 23.0401 14.9142V15.2691Z" fill="black" mask="url(#path-1-outside-1)"/>
</svg>
