<svg width="19" height="21" viewBox="0 0 19 21" fill="none" xmlns="http://www.w3.org/2000/svg">
<mask id="path-1-outside-1" maskUnits="userSpaceOnUse" x="0.0600586" y="-3.05176e-05" width="19" height="21" fill="black">
<rect fill="white" x="0.0600586" y="-3.05176e-05" width="19" height="21"/>
<path fill-rule="evenodd" clip-rule="evenodd" d="M4.27776 3.52769V1.68981C4.27776 1.50685 4.20508 1.33139 4.07571 1.20202C3.94634 1.07265 3.77088 0.999969 3.58792 0.999969C3.40497 0.999969 3.2295 1.07265 3.10014 1.20202C2.97077 1.33139 2.89809 1.50685 2.89809 1.68981V3.52769C2.38848 3.67077 1.93587 3.97111 1.60571 4.38724C1.25236 4.83259 1.06006 5.38437 1.06006 5.95287C1.06006 6.52137 1.25236 7.07315 1.60571 7.5185C1.93587 7.93463 2.38848 8.23497 2.89809 8.37805V19.2846C2.89809 19.4675 2.97077 19.643 3.10014 19.7724C3.2295 19.9017 3.40497 19.9744 3.58792 19.9744C3.77088 19.9744 3.94634 19.9017 4.07571 19.7724C4.20508 19.643 4.27776 19.4675 4.27776 19.2846V8.37805C4.78736 8.23497 5.23998 7.93463 5.57014 7.5185C5.92348 7.07315 6.11579 6.52137 6.11579 5.95287C6.11579 5.38437 5.92348 4.83259 5.57014 4.38724C5.23998 3.97111 4.78736 3.67077 4.27776 3.52769ZM4.73087 5.95287C4.73087 5.72681 4.66384 5.50584 4.53825 5.31788C4.41266 5.12992 4.23416 4.98343 4.02531 4.89692C3.81646 4.81041 3.58666 4.78778 3.36494 4.83188C3.14323 4.87598 2.93958 4.98484 2.77973 5.14468C2.61989 5.30453 2.51103 5.50818 2.46693 5.72989C2.42283 5.9516 2.44547 6.18141 2.53197 6.39026C2.61848 6.59911 2.76498 6.77761 2.95293 6.9032C3.14089 7.02879 3.36187 7.09582 3.58792 7.09582H3.60176C3.90234 7.09218 4.1894 6.97027 4.40074 6.75648C4.61227 6.54251 4.73089 6.25375 4.73087 5.95287Z"/>
<path fill-rule="evenodd" clip-rule="evenodd" d="M10.6534 13.0582V1.68981C10.6534 1.50685 10.5808 1.33139 10.4514 1.20202C10.322 1.07265 10.1466 0.999969 9.96361 0.999969C9.78065 0.999969 9.60519 1.07265 9.47582 1.20202C9.34645 1.33139 9.27377 1.50685 9.27377 1.68981V13.0582C8.76417 13.2013 8.31155 13.5016 7.98139 13.9177C7.62805 14.3631 7.43574 14.9149 7.43574 15.4834C7.43574 16.0519 7.62805 16.6036 7.98139 17.049C8.31155 17.4651 8.76417 17.7655 9.27377 17.9085V19.2846C9.27377 19.4675 9.34645 19.643 9.47582 19.7724C9.60519 19.9017 9.78065 19.9744 9.96361 19.9744C10.1466 19.9744 10.322 19.9017 10.4514 19.7724C10.5808 19.643 10.6534 19.4675 10.6534 19.2846V17.9085C11.163 17.7655 11.6157 17.4651 11.9458 17.049C12.2992 16.6036 12.4915 16.0519 12.4915 15.4834C12.4915 14.9149 12.2992 14.3631 11.9458 13.9177C11.6157 13.5016 11.163 13.2013 10.6534 13.0582ZM9.32862 16.4337C9.51657 16.5593 9.73755 16.6263 9.96361 16.6263C10.2667 16.6263 10.5575 16.5059 10.7718 16.2916C10.9861 16.0772 11.1066 15.7865 11.1066 15.4834C11.1066 15.2573 11.0395 15.0363 10.9139 14.8484C10.7883 14.6604 10.6098 14.5139 10.401 14.4274C10.1921 14.3409 9.96234 14.3183 9.74063 14.3624C9.51892 14.4065 9.31526 14.5153 9.15542 14.6752C8.99557 14.835 8.88672 15.0387 8.84262 15.2604C8.79852 15.4821 8.82115 15.7119 8.90766 15.9208C8.99416 16.1296 9.14066 16.3081 9.32862 16.4337Z"/>
<path fill-rule="evenodd" clip-rule="evenodd" d="M18.8619 9.61818C18.8608 9.05089 18.6688 8.50047 18.3168 8.05558C17.9879 7.63979 17.5371 7.33879 17.0291 7.19377V1.68981C17.0291 1.50685 16.9564 1.33139 16.8271 1.20202C16.6977 1.07265 16.5222 0.999969 16.3393 0.999969C16.1563 0.999969 15.9808 1.07265 15.8515 1.20202C15.7221 1.33139 15.6494 1.50685 15.6494 1.68981V7.19327C15.1398 7.33634 14.6872 7.63668 14.357 8.05282C14.0037 8.49817 13.8114 9.04995 13.8114 9.61844C13.8114 10.1869 14.0037 10.7387 14.357 11.1841C14.6872 11.6002 15.1398 11.9005 15.6494 12.0436V19.2846C15.6494 19.4675 15.7221 19.643 15.8515 19.7724C15.9808 19.9017 16.1563 19.9744 16.3393 19.9744C16.5222 19.9744 16.6977 19.9017 16.8271 19.7724C16.9564 19.643 17.0291 19.4675 17.0291 19.2846V12.0431C17.5371 11.8981 17.9879 11.5971 18.3168 11.1813C18.6688 10.7364 18.8608 10.1855 18.8619 9.61818ZM16.3393 19.8344C16.3393 19.8344 16.3393 19.8344 16.3393 19.8344V19.8344ZM16.3393 10.9014C16.3344 10.9014 16.3295 10.9014 16.3246 10.9013L16.3393 10.9014ZM16.3564 10.9014C16.3507 10.9014 16.345 10.9014 16.3393 10.9014L16.3564 10.9014ZM16.3393 10.7614C16.1132 10.7614 15.8922 10.6944 15.7043 10.5688C15.5163 10.4432 15.3698 10.2647 15.2833 10.0558C15.1968 9.84699 15.1742 9.61718 15.2183 9.39547C15.2624 9.17376 15.3712 8.9701 15.5311 8.81026C15.6909 8.65041 15.8946 8.54156 16.1163 8.49746C16.338 8.45335 16.5678 8.47599 16.7767 8.5625C16.9855 8.649 17.164 8.7955 17.2896 8.98346C17.4152 9.17141 17.4822 9.39239 17.4822 9.61844C17.4822 9.76965 17.4522 9.91935 17.394 10.0589C17.3357 10.1984 17.2504 10.325 17.1428 10.4313C17.0353 10.5376 16.9078 10.6215 16.7676 10.6782C16.6315 10.7332 16.486 10.7614 16.3393 10.7614Z"/>
</mask>
<path fill-rule="evenodd" clip-rule="evenodd" d="M4.27776 3.52769V1.68981C4.27776 1.50685 4.20508 1.33139 4.07571 1.20202C3.94634 1.07265 3.77088 0.999969 3.58792 0.999969C3.40497 0.999969 3.2295 1.07265 3.10014 1.20202C2.97077 1.33139 2.89809 1.50685 2.89809 1.68981V3.52769C2.38848 3.67077 1.93587 3.97111 1.60571 4.38724C1.25236 4.83259 1.06006 5.38437 1.06006 5.95287C1.06006 6.52137 1.25236 7.07315 1.60571 7.5185C1.93587 7.93463 2.38848 8.23497 2.89809 8.37805V19.2846C2.89809 19.4675 2.97077 19.643 3.10014 19.7724C3.2295 19.9017 3.40497 19.9744 3.58792 19.9744C3.77088 19.9744 3.94634 19.9017 4.07571 19.7724C4.20508 19.643 4.27776 19.4675 4.27776 19.2846V8.37805C4.78736 8.23497 5.23998 7.93463 5.57014 7.5185C5.92348 7.07315 6.11579 6.52137 6.11579 5.95287C6.11579 5.38437 5.92348 4.83259 5.57014 4.38724C5.23998 3.97111 4.78736 3.67077 4.27776 3.52769ZM4.73087 5.95287C4.73087 5.72681 4.66384 5.50584 4.53825 5.31788C4.41266 5.12992 4.23416 4.98343 4.02531 4.89692C3.81646 4.81041 3.58666 4.78778 3.36494 4.83188C3.14323 4.87598 2.93958 4.98484 2.77973 5.14468C2.61989 5.30453 2.51103 5.50818 2.46693 5.72989C2.42283 5.9516 2.44547 6.18141 2.53197 6.39026C2.61848 6.59911 2.76498 6.77761 2.95293 6.9032C3.14089 7.02879 3.36187 7.09582 3.58792 7.09582H3.60176C3.90234 7.09218 4.1894 6.97027 4.40074 6.75648C4.61227 6.54251 4.73089 6.25375 4.73087 5.95287Z" fill="black"/>
<path fill-rule="evenodd" clip-rule="evenodd" d="M10.6534 13.0582V1.68981C10.6534 1.50685 10.5808 1.33139 10.4514 1.20202C10.322 1.07265 10.1466 0.999969 9.96361 0.999969C9.78065 0.999969 9.60519 1.07265 9.47582 1.20202C9.34645 1.33139 9.27377 1.50685 9.27377 1.68981V13.0582C8.76417 13.2013 8.31155 13.5016 7.98139 13.9177C7.62805 14.3631 7.43574 14.9149 7.43574 15.4834C7.43574 16.0519 7.62805 16.6036 7.98139 17.049C8.31155 17.4651 8.76417 17.7655 9.27377 17.9085V19.2846C9.27377 19.4675 9.34645 19.643 9.47582 19.7724C9.60519 19.9017 9.78065 19.9744 9.96361 19.9744C10.1466 19.9744 10.322 19.9017 10.4514 19.7724C10.5808 19.643 10.6534 19.4675 10.6534 19.2846V17.9085C11.163 17.7655 11.6157 17.4651 11.9458 17.049C12.2992 16.6036 12.4915 16.0519 12.4915 15.4834C12.4915 14.9149 12.2992 14.3631 11.9458 13.9177C11.6157 13.5016 11.163 13.2013 10.6534 13.0582ZM9.32862 16.4337C9.51657 16.5593 9.73755 16.6263 9.96361 16.6263C10.2667 16.6263 10.5575 16.5059 10.7718 16.2916C10.9861 16.0772 11.1066 15.7865 11.1066 15.4834C11.1066 15.2573 11.0395 15.0363 10.9139 14.8484C10.7883 14.6604 10.6098 14.5139 10.401 14.4274C10.1921 14.3409 9.96234 14.3183 9.74063 14.3624C9.51892 14.4065 9.31526 14.5153 9.15542 14.6752C8.99557 14.835 8.88672 15.0387 8.84262 15.2604C8.79852 15.4821 8.82115 15.7119 8.90766 15.9208C8.99416 16.1296 9.14066 16.3081 9.32862 16.4337Z" fill="black"/>
<path fill-rule="evenodd" clip-rule="evenodd" d="M18.8619 9.61818C18.8608 9.05089 18.6688 8.50047 18.3168 8.05558C17.9879 7.63979 17.5371 7.33879 17.0291 7.19377V1.68981C17.0291 1.50685 16.9564 1.33139 16.8271 1.20202C16.6977 1.07265 16.5222 0.999969 16.3393 0.999969C16.1563 0.999969 15.9808 1.07265 15.8515 1.20202C15.7221 1.33139 15.6494 1.50685 15.6494 1.68981V7.19327C15.1398 7.33634 14.6872 7.63668 14.357 8.05282C14.0037 8.49817 13.8114 9.04995 13.8114 9.61844C13.8114 10.1869 14.0037 10.7387 14.357 11.1841C14.6872 11.6002 15.1398 11.9005 15.6494 12.0436V19.2846C15.6494 19.4675 15.7221 19.643 15.8515 19.7724C15.9808 19.9017 16.1563 19.9744 16.3393 19.9744C16.5222 19.9744 16.6977 19.9017 16.8271 19.7724C16.9564 19.643 17.0291 19.4675 17.0291 19.2846V12.0431C17.5371 11.8981 17.9879 11.5971 18.3168 11.1813C18.6688 10.7364 18.8608 10.1855 18.8619 9.61818ZM16.3393 19.8344C16.3393 19.8344 16.3393 19.8344 16.3393 19.8344V19.8344ZM16.3393 10.9014C16.3344 10.9014 16.3295 10.9014 16.3246 10.9013L16.3393 10.9014ZM16.3564 10.9014C16.3507 10.9014 16.345 10.9014 16.3393 10.9014L16.3564 10.9014ZM16.3393 10.7614C16.1132 10.7614 15.8922 10.6944 15.7043 10.5688C15.5163 10.4432 15.3698 10.2647 15.2833 10.0558C15.1968 9.84699 15.1742 9.61718 15.2183 9.39547C15.2624 9.17376 15.3712 8.9701 15.5311 8.81026C15.6909 8.65041 15.8946 8.54156 16.1163 8.49746C16.338 8.45335 16.5678 8.47599 16.7767 8.5625C16.9855 8.649 17.164 8.7955 17.2896 8.98346C17.4152 9.17141 17.4822 9.39239 17.4822 9.61844C17.4822 9.76965 17.4522 9.91935 17.394 10.0589C17.3357 10.1984 17.2504 10.325 17.1428 10.4313C17.0353 10.5376 16.9078 10.6215 16.7676 10.6782C16.6315 10.7332 16.486 10.7614 16.3393 10.7614Z" fill="black"/>
<path d="M15.9505 19.6734L15.908 19.7158H15.908L15.9505 19.6734ZM15.7894 11.9351H15.8494V11.8875L15.8031 11.8767L15.7894 11.9351ZM14.4667 8.13983L14.5137 8.17712L14.4667 8.13983ZM15.7894 7.3018L15.8031 7.36023L15.8494 7.3494V7.3018H15.7894ZM15.9505 1.30101L15.908 1.25859V1.25859L15.9505 1.30101ZM16.3393 10.9014L16.3389 10.9614L16.3394 10.9614L16.3393 10.9014ZM16.8201 10.808L16.8426 10.8636L16.8201 10.808ZM17.2413 10.5309L17.1991 10.4882V10.4882L17.2413 10.5309ZM17.5232 10.1128L17.4678 10.0897V10.0897L17.5232 10.1128ZM17.6222 9.61844H17.5622V9.61845L17.6222 9.61844ZM17.406 8.90568L17.4559 8.87234L17.406 8.90568ZM16.8302 8.43315L16.8073 8.48858H16.8073L16.8302 8.43315ZM18.8618 9.55818L18.7218 9.55844L18.722 9.67844L18.862 9.67818L18.8618 9.55818ZM16.309 19.8937C16.3191 19.8942 16.3292 19.8944 16.3393 19.8944V19.7744C16.3312 19.7744 16.3231 19.7742 16.315 19.7738L16.309 19.8937ZM16.0479 19.6783C16.0285 19.6639 16.0101 19.6481 15.9929 19.6309L15.908 19.7158C15.9295 19.7372 15.9524 19.7569 15.9765 19.7747L16.0479 19.6783ZM15.9929 19.6309C15.901 19.5391 15.8494 19.4145 15.8494 19.2846H15.7294C15.7294 19.4463 15.7937 19.6014 15.908 19.7158L15.9929 19.6309ZM15.8494 19.2846V11.9351H15.7294V19.2846H15.8494ZM15.8031 11.8767C15.2934 11.7577 14.839 11.4698 14.5137 11.0598L14.4197 11.1343C14.7618 11.5656 15.2398 11.8684 15.7758 11.9935L15.8031 11.8767ZM14.5137 11.0598C14.1884 10.6498 14.0114 10.1418 14.0114 9.61844H13.8914C13.8914 10.1689 14.0776 10.7031 14.4197 11.1343L14.5137 11.0598ZM14.0114 9.61844C14.0114 9.09509 14.1884 8.58711 14.5137 8.17712L14.4197 8.10254C14.0776 8.53375 13.8914 9.068 13.8914 9.61844H14.0114ZM14.5137 8.17712C14.839 7.76713 15.2934 7.47923 15.8031 7.36023L15.7758 7.24337C15.2398 7.36853 14.7618 7.67133 14.4197 8.10254L14.5137 8.17712ZM15.8494 7.3018V1.68981H15.7294V7.3018H15.8494ZM15.8494 1.68981C15.8494 1.55989 15.901 1.4353 15.9929 1.34344L15.908 1.25859C15.7937 1.37295 15.7294 1.52807 15.7294 1.68981H15.8494ZM15.9929 1.34344C16.0733 1.26306 16.1787 1.2135 16.2909 1.20237L16.279 1.08295C16.1394 1.09681 16.0081 1.15851 15.908 1.25859L15.9929 1.34344ZM16.3396 10.8414L16.325 10.8413L16.3243 10.9613L16.3389 10.9614L16.3396 10.8414ZM16.3394 10.9614L16.3565 10.9614L16.3563 10.8414L16.3392 10.8414L16.3394 10.9614ZM16.7976 10.7524C16.7686 10.7641 16.7392 10.7747 16.7095 10.7841L16.7458 10.8985C16.7785 10.8881 16.8107 10.8765 16.8426 10.8636L16.7976 10.7524ZM17.1991 10.4882C17.084 10.6019 16.9476 10.6917 16.7976 10.7524L16.8426 10.8636C17.0073 10.797 17.1571 10.6984 17.2835 10.5735L17.1991 10.4882ZM17.4678 10.0897C17.4055 10.239 17.3141 10.3744 17.1991 10.4882L17.2835 10.5735C17.4098 10.4486 17.5101 10.2999 17.5785 10.1359L17.4678 10.0897ZM17.5622 9.61845C17.5622 9.78023 17.5301 9.94041 17.4678 10.0897L17.5785 10.1359C17.647 9.97199 17.6822 9.7961 17.6822 9.61844L17.5622 9.61845ZM17.3561 8.93901C17.4905 9.14012 17.5622 9.37657 17.5622 9.61844H17.6822C17.6822 9.35283 17.6035 9.09319 17.4559 8.87234L17.3561 8.93901ZM16.8073 8.48858C17.0307 8.58115 17.2217 8.7379 17.3561 8.93901L17.4559 8.87234C17.3083 8.65149 17.0986 8.47936 16.8532 8.37772L16.8073 8.48858ZM16.636 8.43203C16.6941 8.44657 16.7514 8.46545 16.8073 8.48858L16.8532 8.37772C16.7919 8.35231 16.729 8.33159 16.6651 8.31561L16.636 8.43203ZM4.27776 3.52769H4.15776V3.61864L4.24532 3.64322L4.27776 3.52769ZM4.07571 1.20202L4.16056 1.11716L4.16056 1.11716L4.07571 1.20202ZM3.10014 1.20202L3.01528 1.11716V1.11716L3.10014 1.20202ZM2.89809 3.52769L2.93052 3.64322L3.01809 3.61864V3.52769H2.89809ZM1.60571 4.38724L1.69971 4.46183H1.69971L1.60571 4.38724ZM1.60571 7.5185L1.5117 7.59308L1.60571 7.5185ZM2.89809 8.37805H3.01809V8.2871L2.93052 8.26252L2.89809 8.37805ZM4.07571 19.7724L4.16056 19.8572H4.16056L4.07571 19.7724ZM4.27776 8.37805L4.24532 8.26252L4.15776 8.2871V8.37805H4.27776ZM5.57014 7.5185L5.47613 7.44391L5.57014 7.5185ZM5.57014 4.38724L5.47613 4.46183L5.57014 4.38724ZM4.73087 5.95287H4.61087V5.95288L4.73087 5.95287ZM4.02531 4.89692L4.07123 4.78605H4.07123L4.02531 4.89692ZM3.36494 4.83188L3.34153 4.71419L3.36494 4.83188ZM2.77973 5.14468L2.69488 5.05983H2.69488L2.77973 5.14468ZM2.46693 5.72989L2.58463 5.7533L2.46693 5.72989ZM2.53197 6.39026L2.42111 6.43618L2.53197 6.39026ZM3.60176 7.09582V7.21583L3.60321 7.21581L3.60176 7.09582ZM4.40074 6.75648L4.48608 6.84085L4.40074 6.75648ZM10.6534 13.0582H10.5334V13.1491L10.621 13.1737L10.6534 13.0582ZM10.4514 1.20202L10.5362 1.11716V1.11716L10.4514 1.20202ZM9.47582 1.20202L9.39097 1.11716L9.39097 1.11717L9.47582 1.20202ZM9.27377 13.0582L9.30621 13.1737L9.39377 13.1491V13.0582H9.27377ZM7.98139 13.9177L8.07539 13.9923L7.98139 13.9177ZM7.98139 17.049L7.88738 17.1236L7.98139 17.049ZM9.27377 17.9085H9.39377V17.8176L9.30621 17.793L9.27377 17.9085ZM10.6534 17.9085L10.621 17.793L10.5334 17.8176V17.9085H10.6534ZM11.9458 17.049L12.0398 17.1236H12.0398L11.9458 17.049ZM11.9458 13.9177L11.8518 13.9923H11.8518L11.9458 13.9177ZM10.9139 14.8484L11.0137 14.7817L10.9139 14.8484ZM10.401 14.4274L10.3551 14.5383L10.401 14.4274ZM9.74063 14.3624L9.76404 14.4801L9.74063 14.3624ZM8.84262 15.2604L8.72492 15.237L8.84262 15.2604ZM18.8619 9.61818L18.9819 9.61841L18.9819 9.61795L18.8619 9.61818ZM18.3168 8.05558L18.4109 7.98112L18.3168 8.05558ZM17.0291 7.19377H16.9091V7.28431L16.9962 7.30916L17.0291 7.19377ZM16.8271 1.20202L16.9119 1.11716V1.11716L16.8271 1.20202ZM15.8515 1.20202L15.9363 1.28687V1.28687L15.8515 1.20202ZM15.6494 7.19327L15.6819 7.3088L15.7694 7.28421V7.19327H15.6494ZM14.357 8.05282L14.263 7.97823L14.357 8.05282ZM14.357 11.1841L14.4511 11.1095H14.4511L14.357 11.1841ZM15.6494 12.0436H15.7694V11.9527L15.6819 11.9281L15.6494 12.0436ZM17.0291 12.0431L16.9962 11.9277L16.9091 11.9526V12.0431H17.0291ZM18.3168 11.1813L18.4109 11.2558V11.2558L18.3168 11.1813ZM15.7043 10.5688L15.7709 10.469L15.7043 10.5688ZM15.2183 9.39547L15.336 9.41888L15.2183 9.39547ZM16.1163 8.49746L16.1397 8.61515L16.1163 8.49746ZM16.7767 8.5625L16.8226 8.45163L16.7767 8.5625ZM17.2896 8.98346L17.1898 9.05012L17.1898 9.05012L17.2896 8.98346ZM17.4822 9.61844H17.3622V9.61845L17.4822 9.61844ZM17.394 10.0589L17.2832 10.0126V10.0126L17.394 10.0589ZM17.1428 10.4313L17.0585 10.346L17.0585 10.346L17.1428 10.4313ZM16.7676 10.6782L16.8126 10.7894L16.7676 10.6782ZM4.15776 1.68981V3.52769H4.39776V1.68981H4.15776ZM3.99086 1.28687C4.09772 1.39374 4.15776 1.53868 4.15776 1.68981H4.39776C4.39776 1.47502 4.31244 1.26904 4.16056 1.11716L3.99086 1.28687ZM3.58792 1.11997C3.73905 1.11997 3.88399 1.18001 3.99086 1.28687L4.16056 1.11716C4.00869 0.965291 3.80271 0.879969 3.58792 0.879969V1.11997ZM3.18499 1.28687C3.29185 1.18001 3.43679 1.11997 3.58792 1.11997V0.879969C3.37314 0.879969 3.16716 0.965291 3.01528 1.11716L3.18499 1.28687ZM3.01809 1.68981C3.01809 1.53868 3.07812 1.39374 3.18499 1.28687L3.01528 1.11716C2.86341 1.26904 2.77809 1.47502 2.77809 1.68981H3.01809ZM3.01809 3.52769V1.68981H2.77809V3.52769H3.01809ZM1.69971 4.46183C2.01414 4.06552 2.4452 3.77948 2.93052 3.64322L2.86565 3.41216C2.33177 3.56205 1.85759 3.8767 1.5117 4.31266L1.69971 4.46183ZM1.18006 5.95287C1.18006 5.41145 1.3632 4.88596 1.69971 4.46183L1.5117 4.31266C1.14152 4.77922 0.940059 5.35729 0.940059 5.95287H1.18006ZM1.69971 7.44391C1.3632 7.01978 1.18006 6.49428 1.18006 5.95287H0.940059C0.940059 6.54845 1.14152 7.12652 1.5117 7.59308L1.69971 7.44391ZM2.93052 8.26252C2.4452 8.12626 2.01414 7.84022 1.69971 7.44391L1.5117 7.59308C1.85759 8.02904 2.33177 8.34369 2.86565 8.49358L2.93052 8.26252ZM3.01809 19.2846V8.37805H2.77809V19.2846H3.01809ZM3.18499 19.6875C3.07812 19.5806 3.01809 19.4357 3.01809 19.2846H2.77809C2.77809 19.4993 2.86341 19.7053 3.01528 19.8572L3.18499 19.6875ZM3.58792 19.8544C3.43679 19.8544 3.29185 19.7944 3.18499 19.6875L3.01528 19.8572C3.16716 20.0091 3.37314 20.0944 3.58792 20.0944V19.8544ZM3.99086 19.6875C3.88399 19.7944 3.73905 19.8544 3.58792 19.8544V20.0944C3.8027 20.0944 4.00869 20.0091 4.16056 19.8572L3.99086 19.6875ZM4.15776 19.2846C4.15776 19.4357 4.09772 19.5806 3.99086 19.6875L4.16056 19.8572C4.31244 19.7053 4.39776 19.4993 4.39776 19.2846H4.15776ZM4.15776 8.37805V19.2846H4.39776V8.37805H4.15776ZM5.47613 7.44391C5.1617 7.84022 4.73065 8.12626 4.24532 8.26252L4.3102 8.49358C4.84408 8.34369 5.31826 8.02904 5.66415 7.59308L5.47613 7.44391ZM5.99579 5.95287C5.99579 6.49428 5.81264 7.01978 5.47613 7.44391L5.66415 7.59308C6.03432 7.12652 6.23579 6.54845 6.23579 5.95287H5.99579ZM5.47613 4.46183C5.81264 4.88596 5.99579 5.41145 5.99579 5.95287H6.23579C6.23579 5.35729 6.03432 4.77922 5.66415 4.31266L5.47613 4.46183ZM4.24532 3.64322C4.73065 3.77948 5.1617 4.06552 5.47613 4.46183L5.66415 4.31266C5.31826 3.8767 4.84408 3.56205 4.3102 3.41216L4.24532 3.64322ZM4.43848 5.38455C4.55088 5.55277 4.61087 5.75055 4.61087 5.95287H4.85087C4.85087 5.70308 4.7768 5.4589 4.63803 5.25121L4.43848 5.38455ZM3.97939 5.00779C4.16631 5.08521 4.32607 5.21633 4.43848 5.38455L4.63803 5.25121C4.49925 5.04352 4.30201 4.88164 4.07123 4.78605L3.97939 5.00779ZM3.38836 4.94957C3.58679 4.9101 3.79247 4.93036 3.97939 5.00779L4.07123 4.78605C3.84046 4.69046 3.58652 4.66545 3.34153 4.71419L3.38836 4.94957ZM2.86459 5.22953C3.00765 5.08647 3.18992 4.98905 3.38836 4.94957L3.34153 4.71419C3.09654 4.76292 2.87151 4.8832 2.69488 5.05983L2.86459 5.22953ZM2.58463 5.7533C2.6241 5.55487 2.72152 5.3726 2.86459 5.22953L2.69488 5.05983C2.51825 5.23646 2.39797 5.46149 2.34924 5.70648L2.58463 5.7533ZM2.64284 6.34434C2.56541 6.15742 2.54516 5.95173 2.58463 5.7533L2.34924 5.70648C2.30051 5.95147 2.32552 6.20541 2.42111 6.43618L2.64284 6.34434ZM3.0196 6.80342C2.85138 6.69102 2.72026 6.53126 2.64284 6.34434L2.42111 6.43618C2.5167 6.66695 2.67857 6.8642 2.88626 7.00297L3.0196 6.80342ZM3.58792 6.97582C3.3856 6.97582 3.18782 6.91583 3.0196 6.80342L2.88626 7.00297C3.09396 7.14175 3.33814 7.21582 3.58792 7.21582V6.97582ZM3.60176 6.97582H3.58792V7.21582H3.60176V6.97582ZM4.3154 6.67212C4.12625 6.86346 3.86933 6.97257 3.6003 6.97583L3.60321 7.21581C3.93535 7.21179 4.25255 7.07708 4.48608 6.84085L4.3154 6.67212ZM4.61087 5.95288C4.61089 6.22217 4.50472 6.48061 4.3154 6.67212L4.48608 6.84085C4.71982 6.60441 4.8509 6.28533 4.85087 5.95286L4.61087 5.95288ZM10.5334 1.68981V13.0582H10.7734V1.68981H10.5334ZM10.3665 1.28687C10.4734 1.39374 10.5334 1.53868 10.5334 1.68981H10.7734C10.7734 1.47502 10.6881 1.26904 10.5362 1.11716L10.3665 1.28687ZM9.96361 1.11997C10.1147 1.11997 10.2597 1.18001 10.3665 1.28687L10.5362 1.11716C10.3844 0.965291 10.1784 0.879969 9.96361 0.879969V1.11997ZM9.56067 1.28687C9.66754 1.18001 9.81248 1.11997 9.96361 1.11997V0.879969C9.74883 0.879969 9.54284 0.965291 9.39097 1.11716L9.56067 1.28687ZM9.39377 1.68981C9.39377 1.53868 9.45381 1.39374 9.56067 1.28687L9.39097 1.11717C9.23909 1.26904 9.15377 1.47502 9.15377 1.68981H9.39377ZM9.39377 13.0582V1.68981H9.15377V13.0582H9.39377ZM8.07539 13.9923C8.38983 13.596 8.82088 13.31 9.30621 13.1737L9.24133 12.9427C8.70745 13.0925 8.23327 13.4072 7.88738 13.8432L8.07539 13.9923ZM7.55574 15.4834C7.55574 14.942 7.73888 14.4165 8.07539 13.9923L7.88738 13.8432C7.51721 14.3097 7.31574 14.8878 7.31574 15.4834H7.55574ZM8.07539 16.9744C7.73889 16.5503 7.55574 16.0248 7.55574 15.4834H7.31574C7.31574 16.0789 7.51721 16.657 7.88738 17.1236L8.07539 16.9744ZM9.30621 17.793C8.82088 17.6568 8.38983 17.3707 8.07539 16.9744L7.88738 17.1236C8.23327 17.5595 8.70745 17.8742 9.24133 18.0241L9.30621 17.793ZM9.39377 19.2846V17.9085H9.15377V19.2846H9.39377ZM9.56067 19.6875C9.45381 19.5806 9.39377 19.4357 9.39377 19.2846H9.15377C9.15377 19.4993 9.23909 19.7053 9.39097 19.8572L9.56067 19.6875ZM9.96361 19.8544C9.81248 19.8544 9.66754 19.7944 9.56067 19.6875L9.39097 19.8572C9.54284 20.0091 9.74883 20.0944 9.96361 20.0944V19.8544ZM10.3665 19.6875C10.2597 19.7944 10.1147 19.8544 9.96361 19.8544V20.0944C10.1784 20.0944 10.3844 20.0091 10.5362 19.8572L10.3665 19.6875ZM10.5334 19.2846C10.5334 19.4357 10.4734 19.5806 10.3665 19.6875L10.5362 19.8572C10.6881 19.7053 10.7734 19.4993 10.7734 19.2846H10.5334ZM10.5334 17.9085V19.2846H10.7734V17.9085H10.5334ZM11.8518 16.9744C11.5374 17.3707 11.1063 17.6568 10.621 17.793L10.6859 18.0241C11.2198 17.8742 11.6939 17.5595 12.0398 17.1236L11.8518 16.9744ZM12.3715 15.4834C12.3715 16.0248 12.1883 16.5503 11.8518 16.9744L12.0398 17.1236C12.41 16.657 12.6115 16.0789 12.6115 15.4834H12.3715ZM11.8518 13.9923C12.1883 14.4165 12.3715 14.942 12.3715 15.4834H12.6115C12.6115 14.8878 12.41 14.3097 12.0398 13.8432L11.8518 13.9923ZM10.621 13.1737C11.1063 13.31 11.5374 13.596 11.8518 13.9923L12.0398 13.8432C11.6939 13.4072 11.2198 13.0925 10.6859 12.9427L10.621 13.1737ZM9.96361 16.5063C9.76129 16.5063 9.56351 16.4463 9.39529 16.3339L9.26195 16.5335C9.46964 16.6722 9.71382 16.7463 9.96361 16.7463V16.5063ZM10.6869 16.2067C10.4951 16.3985 10.2349 16.5063 9.96361 16.5063V16.7463C10.2986 16.7463 10.6198 16.6133 10.8566 16.3764L10.6869 16.2067ZM10.9866 15.4834C10.9866 15.7547 10.8788 16.0149 10.6869 16.2067L10.8566 16.3764C11.0935 16.1396 11.2266 15.8183 11.2266 15.4834H10.9866ZM10.8142 14.915C10.9266 15.0833 10.9866 15.281 10.9866 15.4834H11.2266C11.2266 15.2336 11.1525 14.9894 11.0137 14.7817L10.8142 14.915ZM10.3551 14.5383C10.542 14.6157 10.7018 14.7468 10.8142 14.915L11.0137 14.7817C10.8749 14.574 10.6777 14.4121 10.4469 14.3166L10.3551 14.5383ZM9.76404 14.4801C9.96247 14.4406 10.1682 14.4609 10.3551 14.5383L10.4469 14.3166C10.2161 14.221 9.96221 14.1959 9.71722 14.2447L9.76404 14.4801ZM9.24027 14.76C9.38333 14.617 9.56561 14.5195 9.76404 14.4801L9.71722 14.2447C9.47223 14.2934 9.24719 14.4137 9.07057 14.5903L9.24027 14.76ZM8.96031 15.2838C8.99978 15.0854 9.09721 14.9031 9.24027 14.76L9.07057 14.5903C8.89394 14.7669 8.77365 14.992 8.72492 15.237L8.96031 15.2838ZM9.01852 15.8748C8.9411 15.6879 8.92084 15.4822 8.96031 15.2838L8.72492 15.237C8.67619 15.482 8.7012 15.7359 8.79679 15.9667L9.01852 15.8748ZM9.39529 16.3339C9.22706 16.2215 9.09595 16.0618 9.01852 15.8748L8.79679 15.9667C8.89238 16.1974 9.05426 16.3947 9.26195 16.5335L9.39529 16.3339ZM18.2227 8.13003C18.558 8.5538 18.7409 9.07806 18.7419 9.61841L18.9819 9.61795C18.9808 9.02371 18.7796 8.44715 18.4109 7.98112L18.2227 8.13003ZM16.9962 7.30916C17.48 7.44729 17.9094 7.734 18.2227 8.13003L18.4109 7.98112C18.0664 7.54559 17.5942 7.23029 17.062 7.07838L16.9962 7.30916ZM16.9091 1.68981V7.19377H17.1491V1.68981H16.9091ZM16.7422 1.28687C16.8491 1.39374 16.9091 1.53868 16.9091 1.68981H17.1491C17.1491 1.47502 17.0638 1.26904 16.9119 1.11716L16.7422 1.28687ZM16.3393 1.11997C16.4904 1.11997 16.6353 1.18001 16.7422 1.28687L16.9119 1.11716C16.76 0.965291 16.554 0.879969 16.3393 0.879969V1.11997ZM15.9363 1.28687C16.0432 1.18001 16.1881 1.11997 16.3393 1.11997V0.879969C16.1245 0.879969 15.9185 0.965291 15.7666 1.11717L15.9363 1.28687ZM15.7694 1.68981C15.7694 1.53868 15.8295 1.39374 15.9363 1.28687L15.7666 1.11716C15.6148 1.26904 15.5294 1.47502 15.5294 1.68981H15.7694ZM15.7694 7.19327V1.68981H15.5294V7.19327H15.7694ZM14.4511 8.1274C14.7655 7.73109 15.1965 7.44506 15.6819 7.3088L15.617 7.07773C15.0831 7.22762 14.6089 7.54227 14.263 7.97823L14.4511 8.1274ZM13.9314 9.61844C13.9314 9.07703 14.1145 8.55154 14.4511 8.1274L14.263 7.97823C13.8929 8.4448 13.6914 9.02287 13.6914 9.61844H13.9314ZM14.4511 11.1095C14.1145 10.6854 13.9314 10.1599 13.9314 9.61844H13.6914C13.6914 10.214 13.8929 10.7921 14.263 11.2587L14.4511 11.1095ZM15.6819 11.9281C15.1965 11.7918 14.7655 11.5058 14.4511 11.1095L14.263 11.2587C14.6089 11.6946 15.0831 12.0093 15.617 12.1592L15.6819 11.9281ZM15.7694 19.2846V12.0436H15.5294V19.2846H15.7694ZM15.9363 19.6875C15.8295 19.5806 15.7694 19.4357 15.7694 19.2846H15.5294C15.5294 19.4993 15.6148 19.7053 15.7666 19.8572L15.9363 19.6875ZM16.3393 19.8544C16.1881 19.8544 16.0432 19.7944 15.9363 19.6875L15.7666 19.8572C15.9185 20.0091 16.1245 20.0944 16.3393 20.0944V19.8544ZM16.7422 19.6875C16.6353 19.7944 16.4904 19.8544 16.3393 19.8544V20.0944C16.554 20.0944 16.76 20.0091 16.9119 19.8572L16.7422 19.6875ZM16.9091 19.2846C16.9091 19.4357 16.8491 19.5806 16.7422 19.6875L16.9119 19.8572C17.0638 19.7053 17.1491 19.4993 17.1491 19.2846H16.9091ZM16.9091 12.0431V19.2846H17.1491V12.0431H16.9091ZM18.2227 11.1069C17.9094 11.5029 17.48 11.7896 16.9962 11.9277L17.062 12.1585C17.5942 12.0066 18.0664 11.6913 18.4109 11.2558L18.2227 11.1069ZM18.7419 9.61795C18.7409 10.1583 18.558 10.6831 18.2227 11.1069L18.4109 11.2558C18.7797 10.7897 18.9808 10.2126 18.9819 9.61841L18.7419 9.61795ZM16.3393 19.7144C16.3393 19.7144 16.3393 19.7144 16.3393 19.7144H16.3393C16.3393 19.7144 16.3393 19.7144 16.3393 19.7144C16.3393 19.8344 16.3393 19.9544 16.3393 19.9544C16.3393 19.9544 16.3393 19.9544 16.3393 19.9544C16.3393 19.9544 16.3393 19.9544 16.3393 19.9544C16.3393 19.9544 16.3393 19.9544 16.3393 19.9544C16.3393 19.9544 16.3393 19.9544 16.3393 19.9544C16.3393 19.9544 16.3393 19.9544 16.3393 19.9544C16.3393 19.9544 16.3393 19.9544 16.3393 19.9544C16.3393 19.9544 16.3393 19.8344 16.3393 19.7144C16.3393 19.7144 16.3393 19.7144 16.3393 19.7144H16.3393C16.3393 19.7144 16.3393 19.7144 16.3393 19.7144V19.9544C16.3393 19.9544 16.3393 19.9544 16.3393 19.9544H16.3393C16.3393 19.9544 16.3393 19.9544 16.3393 19.9544C16.3393 19.8344 16.3393 19.7144 16.3393 19.7144C16.3393 19.7144 16.3393 19.7144 16.3393 19.7144C16.3393 19.7144 16.3393 19.7144 16.3393 19.7144C16.3393 19.7144 16.3393 19.7144 16.3393 19.7144C16.3393 19.7144 16.3393 19.7144 16.3393 19.7144C16.3393 19.7144 16.3393 19.7144 16.3393 19.7144C16.3393 19.7144 16.3393 19.7144 16.3393 19.7144C16.3393 19.7144 16.3393 19.8344 16.3393 19.9544C16.3393 19.9544 16.3393 19.9544 16.3393 19.9544H16.3393C16.3393 19.9544 16.3393 19.9544 16.3393 19.9544V19.7144ZM16.3393 10.7814C16.3349 10.7814 16.3304 10.7814 16.326 10.7813L16.3233 11.0213C16.3286 11.0214 16.3339 11.0214 16.3393 11.0214V10.7814ZM16.3548 10.7814C16.3502 10.7814 16.3463 10.7814 16.3393 10.7814V11.0214C16.3437 11.0214 16.3513 11.0214 16.358 11.0214L16.3548 10.7814ZM15.6376 10.6685C15.8453 10.8073 16.0895 10.8814 16.3393 10.8814V10.6414C16.1369 10.6414 15.9392 10.5814 15.7709 10.469L15.6376 10.6685ZM15.1725 10.1018C15.268 10.3325 15.4299 10.5298 15.6376 10.6685L15.7709 10.469C15.6027 10.3566 15.4716 10.1968 15.3942 10.0099L15.1725 10.1018ZM15.1006 9.37206C15.0519 9.61704 15.0769 9.87098 15.1725 10.1018L15.3942 10.0099C15.3168 9.82299 15.2965 9.61731 15.336 9.41888L15.1006 9.37206ZM15.4462 8.7254C15.2696 8.90203 15.1493 9.12707 15.1006 9.37206L15.336 9.41888C15.3754 9.22044 15.4729 9.03817 15.6159 8.89511L15.4462 8.7254ZM16.0929 8.37976C15.8479 8.42849 15.6229 8.54878 15.4462 8.7254L15.6159 8.89511C15.759 8.75205 15.9413 8.65462 16.1397 8.61515L16.0929 8.37976ZM16.8226 8.45163C16.5918 8.35604 16.3379 8.33103 16.0929 8.37976L16.1397 8.61515C16.3381 8.57568 16.5438 8.59594 16.7307 8.67336L16.8226 8.45163ZM17.3894 8.91679C17.2506 8.7091 17.0534 8.54722 16.8226 8.45163L16.7307 8.67336C16.9177 8.75079 17.0774 8.8819 17.1898 9.05012L17.3894 8.91679ZM17.6022 9.61844C17.6022 9.36866 17.5281 9.12448 17.3894 8.91679L17.1898 9.05012C17.3022 9.21835 17.3622 9.41612 17.3622 9.61844H17.6022ZM17.5047 10.1051C17.5691 9.95094 17.6022 9.78552 17.6022 9.61843L17.3622 9.61845C17.3622 9.75379 17.3354 9.88777 17.2832 10.0126L17.5047 10.1051ZM17.2272 10.5166C17.346 10.3992 17.4403 10.2593 17.5047 10.1051L17.2832 10.0126C17.2311 10.1375 17.1547 10.2508 17.0585 10.346L17.2272 10.5166ZM16.8126 10.7894C16.9675 10.7268 17.1084 10.6341 17.2272 10.5166L17.0585 10.346C16.9622 10.4411 16.8481 10.5162 16.7226 10.5669L16.8126 10.7894ZM16.3393 10.8814C16.5014 10.8814 16.6621 10.8503 16.8126 10.7894L16.7226 10.5669C16.6008 10.6162 16.4707 10.6414 16.3393 10.6414V10.8814Z" fill="black" mask="url(#path-1-outside-1)"/>
</svg>
