<svg width="57" height="23" viewBox="0 0 57 23" fill="none" xmlns="http://www.w3.org/2000/svg">
<path d="M15.2865 2.14325H16.3459L15.9135 7.61351H15.0486C14.7459 6.28739 14.1549 5.24234 13.2757 4.47838C12.4108 3.71442 11.3585 3.33244 10.1189 3.33244C9.26845 3.33244 8.5117 3.50541 7.84864 3.85135C7.18557 4.18288 6.62341 4.66577 6.16215 5.3C5.71531 5.91982 5.36936 6.68378 5.12432 7.59189C4.89369 8.48558 4.77837 9.49459 4.77837 10.6189C4.77837 12.8531 5.23242 14.5757 6.14053 15.7865C7.06305 16.9829 8.418 17.5811 10.2054 17.5811C11.6468 17.5811 12.836 17.1919 13.773 16.4135C14.7243 15.6351 15.4018 14.4748 15.8054 12.9324H16.7567V18.7919H15.7405L15.4378 17.0838C13.8522 18.3666 11.9279 19.0081 9.66485 19.0081C8.35314 19.0081 7.16395 18.8135 6.09729 18.4243C5.03062 18.0351 4.12252 17.4874 3.37297 16.7811C2.62342 16.0603 2.03964 15.1883 1.62162 14.1649C1.21802 13.1414 1.01621 12.0027 1.01621 10.7486C1.01621 9.43693 1.23243 8.24054 1.66486 7.15946C2.09729 6.07838 2.7027 5.14865 3.48108 4.37027C4.27387 3.59189 5.2108 2.9937 6.29188 2.57568C7.38738 2.14325 8.59818 1.92703 9.92431 1.92703C10.8036 1.92703 11.6252 2.04955 12.3892 2.2946C13.1531 2.53964 13.982 2.93604 14.8757 3.48379L15.2865 2.14325ZM26.8592 8.56486C27.4791 8.08918 27.9259 7.5991 28.1998 7.09459C28.4881 6.59009 28.6322 6.04234 28.6322 5.45135C28.6322 4.84595 28.4809 4.36306 28.1782 4.00271C27.8899 3.64234 27.4935 3.46216 26.989 3.46216C26.0665 3.46216 25.6052 4.11802 25.6052 5.42973C25.6052 5.99189 25.7133 6.53964 25.9295 7.07297C26.1457 7.6063 26.4556 8.1036 26.8592 8.56486ZM25.2592 11.1378C24.5241 11.6279 23.962 12.2045 23.5728 12.8676C23.1836 13.5306 22.989 14.2153 22.989 14.9216C22.989 15.6567 23.2196 16.2621 23.6809 16.7378C24.1421 17.1991 24.7259 17.4297 25.4322 17.4297C25.9944 17.4297 26.5998 17.3 27.2484 17.0405C27.8971 16.7666 28.5169 16.3919 29.1079 15.9162L25.2592 11.1378ZM31.0755 13.9486C31.4214 13.5594 31.7385 13.1703 32.0268 12.7811C32.3295 12.3919 32.589 12.0315 32.8052 11.7C33.0214 11.354 33.1872 11.0441 33.3025 10.7703C33.4178 10.4964 33.4755 10.273 33.4755 10.1C33.4755 9.86936 33.3673 9.7036 33.1511 9.6027C32.9493 9.5018 32.5962 9.45134 32.0917 9.45134V8.58648H37.3241V9.45134C36.9926 9.45134 36.7043 9.48017 36.4592 9.53783C36.2286 9.59549 36.0124 9.68197 35.8106 9.79729C35.6232 9.89819 35.4502 10.0351 35.2917 10.2081C35.1331 10.3667 34.9745 10.5613 34.816 10.7919L31.8106 14.9648C32.4016 15.7144 33.0358 16.3054 33.7133 16.7378C34.3908 17.1703 35.0466 17.3865 35.6809 17.3865C36.0845 17.3865 36.4016 17.3216 36.6322 17.1919C36.8628 17.0477 37.1007 16.7739 37.3457 16.3703L37.9079 16.5216C37.7493 17.3288 37.3818 17.9486 36.8052 18.3811C36.2286 18.7991 35.4791 19.0081 34.5565 19.0081C34.1818 19.0081 33.8214 18.9648 33.4755 18.8784C33.1439 18.7919 32.798 18.6549 32.4376 18.4675C32.0917 18.2802 31.7241 18.0423 31.3349 17.754C30.9457 17.4513 30.5133 17.0982 30.0376 16.6946C29.3025 17.3865 28.4304 17.9486 27.4214 18.3811C26.4268 18.7991 25.4106 19.0081 24.3728 19.0081C23.6809 19.0081 23.0394 18.9144 22.4484 18.727C21.8719 18.5252 21.3674 18.2585 20.9349 17.927C20.5169 17.5811 20.1854 17.1775 19.9403 16.7162C19.7097 16.2405 19.5944 15.7288 19.5944 15.1811C19.5944 14.2153 19.9836 13.3216 20.762 12.5C21.5547 11.664 22.8088 10.8207 24.5241 9.97026C24.0484 9.29279 23.6953 8.65855 23.4647 8.06756C23.2484 7.47657 23.1403 6.85675 23.1403 6.20811C23.1403 5.57387 23.2412 4.9973 23.443 4.47838C23.6448 3.94505 23.9259 3.49099 24.2863 3.11622C24.6611 2.74145 25.1007 2.45316 25.6052 2.25136C26.1241 2.03514 26.6935 1.92703 27.3133 1.92703C27.861 1.92703 28.3655 2.00631 28.8268 2.16487C29.2881 2.32343 29.6845 2.54685 30.016 2.83514C30.3475 3.12343 30.607 3.46216 30.7944 3.85135C30.9818 4.24054 31.0755 4.67297 31.0755 5.14865C31.0755 5.92703 30.8016 6.66937 30.2538 7.37567C29.7061 8.06756 28.8268 8.8099 27.616 9.6027L31.0755 13.9486ZM40.9484 13.2784H41.7917C41.9935 14.6477 42.5412 15.7288 43.4349 16.5216C44.3286 17.3 45.4313 17.6892 46.743 17.6892C47.2763 17.6892 47.7664 17.6243 48.2133 17.4946C48.6601 17.3648 49.0421 17.1847 49.3592 16.954C49.6763 16.709 49.9214 16.4279 50.0943 16.1108C50.2673 15.7793 50.3538 15.4117 50.3538 15.0081C50.3538 14.6621 50.2961 14.3667 50.1808 14.1216C50.0799 13.8621 49.8781 13.6171 49.5754 13.3865C49.2727 13.1414 48.8547 12.8964 48.3214 12.6513C47.8025 12.4063 47.125 12.1252 46.2889 11.8081C44.6025 11.1594 43.3556 10.4099 42.5484 9.55945C41.7412 8.69459 41.3376 7.67837 41.3376 6.51081C41.3376 5.83333 41.4673 5.21351 41.7268 4.65135C41.9862 4.08919 42.3466 3.60631 42.8079 3.20271C43.2835 2.7991 43.8457 2.48919 44.4944 2.27298C45.1574 2.04235 45.8853 1.92703 46.6781 1.92703C47.4133 1.92703 48.1052 2.04235 48.7538 2.27298C49.4025 2.50361 50.0439 2.84955 50.6781 3.31081L51.0673 2.22973H51.5862L51.8241 6.9H50.9808C50.6349 5.71802 50.0943 4.81712 49.3592 4.1973C48.6241 3.56307 47.7736 3.24595 46.8079 3.24595C45.9142 3.24595 45.1862 3.46937 44.6241 3.91622C44.0763 4.34865 43.8025 4.91081 43.8025 5.6027C43.8025 5.9054 43.8529 6.17928 43.9538 6.42432C44.0547 6.65495 44.2421 6.87838 44.516 7.09459C44.7898 7.31081 45.1646 7.53423 45.6403 7.76486C46.116 7.98108 46.7286 8.22612 47.4781 8.5C48.4871 8.88918 49.3448 9.28558 50.0511 9.68918C50.7718 10.0784 51.3556 10.5036 51.8024 10.9649C52.2637 11.4117 52.6024 11.8874 52.8187 12.3919C53.0349 12.8964 53.143 13.4513 53.143 14.0567C53.143 14.7919 52.9844 15.4621 52.6673 16.0676C52.3502 16.673 51.9033 17.1919 51.3268 17.6243C50.7646 18.0567 50.0871 18.3955 49.2943 18.6405C48.516 18.8856 47.6511 19.0081 46.6998 19.0081C45.8349 19.0081 45.0565 18.8928 44.3646 18.6621C43.6727 18.4171 42.9592 18.0279 42.2241 17.4946L41.7917 18.7919H41.2727L40.9484 13.2784Z" fill="#3A3A3A"/>
</svg>
