<svg width="24" height="25" viewBox="0 0 24 25" fill="none" xmlns="http://www.w3.org/2000/svg">
<path fill-rule="evenodd" clip-rule="evenodd" d="M12.9102 15.9543L16.1941 17.7787L16.196 17.7796C16.2041 17.783 16.2154 17.788 16.2296 17.7944C16.258 17.8072 16.2981 17.8259 16.3459 17.8499C16.4412 17.8978 16.5698 17.9681 16.7005 18.0571C16.8302 18.1454 16.9687 18.2567 17.0785 18.3882C17.1877 18.5189 17.2803 18.6839 17.2904 18.8764L17.2907 18.8869V20.3213C17.2907 20.9661 16.7793 21.4775 16.1344 21.4775H3.9563C3.31147 21.4775 2.80005 20.9661 2.80005 20.3213V18.8869C2.80005 18.6924 2.88679 18.5233 2.99189 18.3889C3.09753 18.2537 3.23345 18.1382 3.36125 18.0461C3.49015 17.9532 3.61784 17.8791 3.71263 17.8285C3.76026 17.803 3.80016 17.7832 3.8285 17.7696C3.84269 17.7627 3.85401 17.7575 3.86201 17.7538L3.86729 17.7514L7.23461 15.9242C6.65824 15.3822 6.26695 14.6498 6.01417 13.9331C5.72918 13.125 5.61255 12.3151 5.61255 11.7713V9.40875C5.61255 8.53492 6.19893 7.65367 7.02071 7.00204C7.84801 6.34603 8.9524 5.89 10.0594 5.89C11.1668 5.89 12.2577 6.34634 13.0714 7.00313C13.88 7.65587 14.45 8.53698 14.45 9.40875V11.7713C14.45 12.366 14.3561 13.182 14.092 13.9853C13.8575 14.6985 13.4841 15.4153 12.9102 15.9543ZM14.25 9.40873V11.7712C14.25 12.9244 13.8844 14.9494 12.5625 15.99C12.6187 15.9457 12.6732 15.8997 12.726 15.852C13.9149 14.7787 14.25 12.8753 14.25 11.7712V9.40873ZM4.54144 19.1431L8.21137 17.1517C8.61191 16.95 8.87578 16.55 8.90888 16.0892C8.94162 15.6614 8.7762 15.2314 8.41421 14.9352L8.41192 14.9334C7.97561 14.5869 7.65463 14.0222 7.44271 13.4172C7.23163 12.8146 7.13755 12.1971 7.13755 11.7713V9.40875C7.13755 9.26203 7.20842 9.06286 7.36479 8.83508C7.51849 8.61118 7.74298 8.37719 8.0193 8.16451C8.57394 7.73761 9.31267 7.415 10.0594 7.415C10.8201 7.415 11.544 7.73752 12.0796 8.16267C12.3467 8.37466 12.5616 8.60804 12.7082 8.83157C12.857 9.05851 12.925 9.25905 12.925 9.40875V11.7713C12.925 12.1895 12.8571 12.8096 12.6735 13.4148C12.4892 14.0221 12.1967 14.5875 11.7663 14.9309C11.394 15.2037 11.2342 15.6403 11.2662 16.0886L11.2663 16.0897C11.2999 16.5276 11.5674 16.9208 11.9555 17.1472L15.4869 19.1091C15.5078 19.1247 15.5278 19.1351 15.5428 19.1419C15.5618 19.1506 15.5808 19.1569 15.5905 19.1601L15.6045 19.1742L15.6493 19.1891C15.6897 19.2026 15.732 19.2222 15.7657 19.2412V19.9525H4.32505V19.2457C4.34052 19.2351 4.35636 19.2245 4.37383 19.2133C4.41135 19.1892 4.43879 19.1741 4.45693 19.166C4.47354 19.1625 4.48734 19.158 4.49762 19.1541C4.50722 19.1505 4.51628 19.1465 4.52351 19.1431H4.54144Z" fill="black"/>
<path fill-rule="evenodd" clip-rule="evenodd" d="M15.1193 13.2761C15.0873 12.8278 15.2471 12.3912 15.6194 12.1184C16.0517 11.7736 16.358 11.2059 16.556 10.5984C16.7534 9.99249 16.8344 9.37356 16.8344 8.95875V6.59625C16.8344 6.44014 16.7634 6.23471 16.6096 6.00407C16.458 5.7767 16.2363 5.54056 15.9622 5.32657C15.4121 4.89729 14.6738 4.57438 13.9125 4.57438C13.1429 4.57438 12.4257 4.83992 11.8681 5.26471L11.784 5.32881L11.6837 5.29536C11.3668 5.18975 10.981 5.17037 10.5938 5.15091C10.5051 5.14645 10.4163 5.14199 10.3282 5.13649L9.92884 5.11153L10.1885 4.80709C11.0382 3.81085 12.4983 3.04938 13.9125 3.04938C15.0205 3.04938 16.1251 3.51309 16.9521 4.17615C17.7736 4.83479 18.3594 5.72293 18.3594 6.59625V8.95875C18.3594 9.55492 18.2581 10.3713 17.9868 11.1743C17.7461 11.8868 17.367 12.6022 16.7931 13.1406L20.1311 14.966L20.1338 14.9672C20.1418 14.9707 20.1533 14.9757 20.1675 14.9821C20.1961 14.9951 20.2362 15.014 20.284 15.0384C20.3793 15.0869 20.5076 15.1586 20.6373 15.25C20.7658 15.3408 20.9026 15.456 21.0089 15.5935C21.1152 15.7311 21.2001 15.9032 21.2001 16.1025V17.5088C21.2001 18.1536 20.6886 18.665 20.0438 18.665H18.0355L17.9948 18.5185C17.8514 18.002 17.7518 17.7062 17.4769 17.5L16.9969 17.14H19.675V16.4287C19.6414 16.4097 19.5991 16.3901 19.5587 16.3766L19.5139 16.3617L19.4998 16.3476C19.4901 16.3444 19.4712 16.3381 19.4522 16.3294C19.4373 16.3227 19.4176 16.3125 19.397 16.2971L15.8087 14.3346C15.4205 14.1082 15.1531 13.7151 15.1194 13.2772L15.1193 13.2761ZM18.1594 6.59623V8.95873C18.1594 10.1119 17.7656 12.1369 16.4437 13.1775C16.5001 13.1331 16.5548 13.087 16.6078 13.0392C17.7985 11.9659 18.1594 10.0627 18.1594 8.95873V6.59623ZM21 16.1025V17.5087C21 18.0431 20.5781 18.465 20.0437 18.465H18.1875C18.1875 18.465 18.1875 18.465 18.1875 18.465H20.0437C20.5781 18.465 21 18.0431 21 17.5087V16.1025ZM13.9125 4.37436C13.0969 4.37436 12.3375 4.65561 11.7469 5.10561C11.4013 4.99043 10.9804 4.96959 10.5921 4.95037C10.5063 4.94612 10.4221 4.94195 10.3407 4.93686C10.3407 4.93687 10.3407 4.93686 10.3407 4.93686C10.4221 4.94195 10.5063 4.94612 10.5921 4.95037L10.596 4.95057C10.9832 4.96975 11.4025 4.99081 11.7469 5.10561C12.3375 4.65561 13.0969 4.37436 13.9125 4.37436Z" fill="black"/>
</svg>
